<?xml version="1.0"?>

<svg width="100%" height="100%" viewBox="0 0 4000 2000" version="1.1" xmlns="http://www.w3.org/2000/svg" xmlns:xlink="http://www.w3.org/1999/xlink" xml:space="preserve" xmlns:serif="http://www.serif.com/" style="fill-rule:evenodd;clip-rule:evenodd;stroke-linejoin:round;stroke-miterlimit:2;">
    <g transform="matrix(1,0,0,1,0,-1000)">
        <path d="M4000,0L0,0L0,4000L4000,4000L4000,0ZM3999,1L3999,3999L1,3999L1,1L3999,1Z" style="fill:rgb(3,4,4);fill-rule:nonzero;"></path>
        <path d="M2114.33,1198.02L2118.67,1145.71L2114.33,1198.02ZM2119.63,1134.19L2120.14,1128.01L2138.96,901.198L2139.7,892.38L2119.63,1134.19ZM2140.22,886.108L2150.53,761.799L2150.53,761.798L2140.22,886.108ZM1883.83,751.633L2180.12,405.326L1883.83,751.633ZM2151.83,746.134L2162.83,613.606L2151.83,746.134ZM1582.52,285.182L1582.52,285.183L1582.52,285.182Z" style="fill:url(#_Linear1);"></path>
        <g transform="matrix(1,0,0,1,-52.1173,159.826)">
            <path d="M2031.73,2193.38L2040.8,2084.05L2041.62,2074.22L2031.73,2193.38ZM2102.12,1345.14L2107.35,1282.15L2114.33,1198.02L2102.12,1345.14Z" style="fill:rgb(198,174,161);fill-rule:nonzero;"></path>
        </g>
        <g transform="matrix(1,0,0,1,-52.1173,159.826)">
            <path d="M2040.8,2084.05L2041.62,2074.22L2040.8,2084.05Z" style="fill:rgb(165,129,109);fill-rule:nonzero;"></path>
        </g>
        <g transform="matrix(1,0,0,1,-52.1173,159.826)">
            <path d="M2102.12,1345.14L2107.35,1282.15L2102.12,1345.14Z" style="fill:rgb(165,129,109);fill-rule:nonzero;"></path>
        </g>
        <g transform="matrix(1,0,0,1,-52.1173,159.826)">
            <path d="M2015.9,2384.14L2018.3,2355.22L2015.9,2384.14Z" style="fill:rgb(207,187,177);fill-rule:nonzero;"></path>
        </g>
        <g transform="matrix(1,0,0,1,-52.1173,159.826)">
            <path d="M1513.26,2468.59L1513.66,2456C1527.75,2454.03 1543.08,2451.39 1559.39,2447.9L1558.21,2460.79C1542.19,2464.14 1527.13,2466.68 1513.26,2468.59Z" style="fill:rgb(136,82,44);fill-rule:nonzero;"></path>
        </g>
        <g transform="matrix(1,0,0,1,-52.1173,159.826)">
            <path d="M2040.8,2084.05L2041.62,2074.22L2040.8,2084.05Z" style="fill:rgb(149,107,83);fill-rule:nonzero;"></path>
        </g>
        <g transform="matrix(1,0,0,1,-52.1173,159.826)">
            <path d="M2022.11,2095.42C2025.5,2089.47 2028.87,2083.41 2032.2,2077.26L2041.62,2074.22L2040.8,2084.05L2022.11,2095.42Z" style="fill:rgb(136,82,44);fill-rule:nonzero;"></path>
        </g>
        <g transform="matrix(1,0,0,1,-52.1173,159.826)">
            <path d="M1513.26,2468.59L1513.65,2456L1513.26,2468.59Z" style="fill:rgb(123,68,38);fill-rule:nonzero;"></path>
        </g>
        <g transform="matrix(1,0,0,1,-52.1173,159.826)">
            <path d="M654.803,2522.45L610.952,2411.93L623.832,1185.18L730.181,1069.26L998.464,2072.95C998.464,2072.95 845.179,2300.91 817.667,2328.43C790.156,2355.94 654.803,2522.45 654.803,2522.45Z" style="fill:rgb(123,68,38);"></path>
        </g>
        <g transform="matrix(1,0,0,1,-52.1173,159.826)">
            <path d="M2495.43,1523.18L2395.34,1497.44C2389.69,1512.03 2384.94,1526.63 2385.88,1532.53C2388.02,1546.02 1808.11,1644.54 1762.91,1638.65C1717.71,1632.75 1281.44,1373.35 1281.44,1373.35L1185.15,1257.4L1103.67,1165.3L1185.15,1123.77L2375.34,1411.1L2400.59,1094.8L2538.15,1018.16L2495.43,1523.18Z" style="fill:rgb(123,68,38);"></path>
        </g>
        <g transform="matrix(1,0,0,1,-52.1173,159.826)">
            <path d="M2463.48,1937.87L1956.46,1963.41L2049.01,2026.93L2093.49,2057.45L651.573,2523.49L730.181,1069.26L1211.65,1538.93L1153.79,1338.74L1103.67,1165.3L2368.99,1490.66L2495.43,1523.18L2538.15,1018.16L3626.87,1647.02L2424.17,2547.08L2463.48,1937.87Z" style="fill:rgb(191,135,74);"></path>
        </g>
        <g transform="matrix(1,0,0,1,-52.1173,159.826)">
            <path d="M2424.17,2547.08L2440.42,2295.24C2481.26,2305.75 2513.84,2310.26 2539.64,2310.26C2589.66,2310.26 2614.31,2293.33 2624.73,2270.39L2730.27,2204.74C2713.75,2223.31 2714.02,2254.23 2748.18,2304.6L2424.17,2547.08ZM654.803,2522.45C654.837,2522.34 654.878,2522.2 654.912,2522.09L857.561,2436.97C850.102,2450.54 846.625,2458.24 846.506,2458.49L849.017,2459.68L654.804,2522.45M852.646,2458.51C854.471,2454.7 858.755,2446.06 865.862,2433.48L1480.42,2175.34C1441.38,2209.28 1404.54,2246.95 1370.37,2288.71L1372.53,2290.47L1377.59,2288.84C1414.64,2243.99 1454.88,2203.88 1497.58,2168.14L1852.81,2018.92L1812.88,1989.34C2000,1920.81 2203.39,1897.45 2393.82,1897.45C2453.71,1897.45 2512.29,1899.76 2568.71,1903.7L2587.99,2081.78C2576.23,2094.56 2576.59,2113.52 2594.36,2140.64L2609.44,2279.88C2596.5,2294.39 2573.93,2304.05 2536.77,2304.06C2511.84,2304.06 2480.36,2299.71 2440.79,2289.55L2440.54,2293.43L2463.48,1937.87L1956.46,1963.41L2049.01,2026.93L2093.49,2057.45L2041.62,2074.22L2032.2,2077.26L1520.42,2242.67L1422.66,2274.27L852.647,2458.51M2752.97,2301.02C2688.57,2203.22 2761.54,2184.65 2826.23,2184.65C2859.67,2184.65 2890.89,2189.61 2899.78,2191.15L2900.9,2190.31L2752.97,2301.02ZM2902.82,2188.87L2903.32,2186.14C2903,2186.08 2864.66,2178.82 2823.09,2178.82C2800.33,2178.82 2776.6,2180.99 2757.62,2187.73L2910.36,2092.71C2958.29,2102.29 2994.78,2111.11 3003.78,2113.32L3005.84,2111.77L2902.82,2188.87ZM2592.87,2126.86C2585.81,2112.62 2584.98,2101.27 2589.14,2092.37L2592.87,2126.86ZM3006.65,2111.17L3007.32,2108.47C3006.91,2108.37 2969.59,2099.02 2917.17,2088.48L3081.85,1986.04C3119.25,1995.54 3142.84,2002.5 3149.28,2004.43L3006.65,2111.17ZM3152.05,2002.36L3152.84,1999.7C3152.36,1999.55 3129.27,1992.46 3088.38,1981.98L3213.76,1903.99C3231.12,1908.18 3248.6,1912.49 3266.2,1916.93L3152.05,2002.36ZM1807.51,1985.36L1693.63,1901.01L2562.25,1844.02L2568.11,1898.13C2511.87,1894.22 2453.49,1891.94 2393.81,1891.94C2201.64,1891.94 1996.28,1915.64 1807.51,1985.36ZM3269.09,1914.77L3269.76,1912.07C3253.19,1907.88 3236.77,1903.82 3220.41,1899.85L3599.53,1664.03C3604.38,1661.8 3608.65,1659.74 3612.31,1657.91L3269.09,1914.77Z" style="fill:rgb(173,117,64);fill-rule:nonzero;"></path>
        </g>
        <g transform="matrix(1,0,0,1,-52.1173,159.826)">
            <path d="M651.573,2523.49L674.507,2099.21L685.075,2091.75L652.564,2510.72C652.442,2511.11 652.322,2511.51 652.2,2511.9L651.573,2523.49ZM3624.09,1645.42L2538.15,1018.16L2523.17,1195.34L2538.15,1018.16L3624.09,1645.42Z" style="fill:url(#_Linear2);"></path>
        </g>
        <g transform="matrix(1,0,0,1,-52.1173,159.826)">
            <path d="M1956.46,1963.41L2463.48,1937.87L2424.17,2547.08L2339.67,2488.12L2312.16,2047.92L2049.01,2026.93L1956.46,1963.41Z" style="fill:rgb(123,68,38);"></path>
        </g>
        <g transform="matrix(1,0,0,1,-52.1173,159.826)">
            <path d="M1153.79,1338.74L1211.65,1538.93L730.181,1069.26L1153.79,1338.74Z" style="fill:rgb(123,68,38);"></path>
        </g>
        <g transform="matrix(1,0,0,1,-52.1173,159.826)">
            <path d="M3615.97,1649.82C3569.46,1649.56 3382.88,1644.88 3240.99,1588.23L3267.32,1592.24C3397.26,1637.45 3555.18,1643.49 3608.33,1644.2L3614.3,1645.11L3619.56,1647.92C3618.5,1648.49 3617.31,1649.12 3615.97,1649.82Z" style="fill:rgb(147,92,50);fill-rule:nonzero;"></path>
        </g>
        <g transform="matrix(1,0,0,1,-52.1173,159.826)">
            <path d="M3619.56,1647.92L3614.3,1645.11L3622.43,1646.35C3621.63,1646.79 3620.67,1647.32 3619.56,1647.92Z" style="fill:url(#_Linear3);"></path>
        </g>
        <g transform="matrix(1,0,0,1,-52.1173,159.826)">
            <path d="M2495.43,1523.18L2490.36,1521.87L2495.43,1523.18Z" style="fill:rgb(170,135,117);fill-rule:nonzero;"></path>
        </g>
        <g transform="matrix(1,0,0,1,-52.1173,159.826)">
            <path d="M2495.43,1523.18L2490.36,1521.87L2495.43,1523.18Z" style="fill:rgb(123,68,38);fill-rule:nonzero;"></path>
        </g>
        <g transform="matrix(1,0,0,1,-52.1173,159.826)">
            <path d="M651.573,2523.49L654.802,2522.45L654.803,2522.45L651.573,2523.49Z" style="fill:rgb(170,135,117);fill-rule:nonzero;"></path>
        </g>
        <g transform="matrix(1,0,0,1,-52.1173,159.826)">
            <path d="M651.573,2523.49L652.564,2510.72C732.464,2251.32 836.306,2073.97 943.735,1948.11C992.569,1890.89 1042.14,1844.31 1090.54,1805.49L1100.08,1805C1050.01,1844.57 998.578,1892.41 947.957,1951.72C839.635,2078.64 734.956,2258.17 654.912,2522.09L651.573,2523.49Z" style="fill:rgb(147,92,50);fill-rule:nonzero;"></path>
        </g>
        <g transform="matrix(1,0,0,1,-52.1173,159.826)">
            <path d="M651.573,2523.49L654.912,2522.09C654.878,2522.2 654.837,2522.34 654.803,2522.45L654.802,2522.45L651.573,2523.49Z" style="fill:rgb(140,86,46);fill-rule:nonzero;"></path>
        </g>
        <g transform="matrix(1,0,0,1,-52.1173,159.826)">
            <path d="M651.573,2523.49L652.2,2511.9C652.322,2511.51 652.442,2511.11 652.564,2510.72L651.573,2523.49Z" style="fill:url(#_Linear4);"></path>
        </g>
        <g transform="matrix(1,0,0,1,-52.1173,159.826)">
            <path d="M3612.31,1657.91L3626.87,1647.02L3612.31,1657.91Z" style="fill:rgb(170,135,117);fill-rule:nonzero;"></path>
        </g>
        <g transform="matrix(1,0,0,1,-52.1173,159.826)">
            <path d="M3330.92,1721.39C3206.58,1721.38 3054.26,1685.83 2896.2,1564.79C2868.67,1546.59 2843.62,1533.31 2820.65,1524.18L2842.24,1527.47C2860.04,1535.96 2879.03,1546.77 2899.33,1560.2L2899.48,1560.3C3056.5,1680.58 3207.66,1715.87 3331.03,1715.86C3477.34,1715.85 3584.56,1666.21 3615.97,1649.82C3617.65,1649.83 3619.15,1649.83 3620.45,1649.83L3622.36,1649.83L3599.53,1664.03C3553.79,1685.06 3456.65,1721.4 3330.92,1721.39Z" style="fill:rgb(147,92,50);fill-rule:nonzero;"></path>
        </g>
        <g transform="matrix(1,0,0,1,-52.1173,159.826)">
            <path d="M3599.53,1664.03L3622.36,1649.83C3622.62,1649.83 3622.88,1649.83 3623.12,1649.82L3626.87,1647.02L3612.31,1657.91C3608.65,1659.74 3604.38,1661.8 3599.53,1664.03Z" style="fill:rgb(140,86,46);fill-rule:nonzero;"></path>
        </g>
        <g transform="matrix(1,0,0,1,-52.1173,159.826)">
            <path d="M3626.87,1647.02L3624.09,1645.42L3626.87,1647.02Z" style="fill:rgb(170,135,117);fill-rule:nonzero;"></path>
        </g>
        <g transform="matrix(1,0,0,1,-52.1173,159.826)">
            <path d="M3620.45,1649.83C3619.15,1649.83 3617.65,1649.83 3615.97,1649.82C3617.31,1649.12 3618.5,1648.49 3619.56,1647.92L3622.71,1649.61L3622.36,1649.83L3620.45,1649.83Z" style="fill:rgb(131,77,42);fill-rule:nonzero;"></path>
        </g>
        <g transform="matrix(1,0,0,1,-52.1173,159.826)">
            <path d="M3622.36,1649.83L3622.71,1649.61L3623.12,1649.82L3626.87,1647.02L3623.12,1649.82C3622.88,1649.83 3622.62,1649.83 3622.36,1649.83Z" style="fill:rgb(128,73,41);fill-rule:nonzero;"></path>
        </g>
        <g transform="matrix(1,0,0,1,-52.1173,159.826)">
            <path d="M3622.71,1649.61L3619.56,1647.92C3620.67,1647.32 3621.63,1646.79 3622.43,1646.35L3626.87,1647.02L3622.71,1649.61Z" style="fill:url(#_Linear5);"></path>
        </g>
        <g transform="matrix(1,0,0,1,-52.1173,159.826)">
            <path d="M3623.12,1649.82L3622.71,1649.61L3626.87,1647.02L3623.12,1649.82Z" style="fill:url(#_Linear6);"></path>
        </g>
        <g transform="matrix(1,0,0,1,-52.1173,159.826)">
            <path d="M849.018,2459.68L849.017,2459.68L852.647,2458.51L852.646,2458.51L849.018,2459.68ZM3266.2,1916.93L3269.09,1914.77L3266.2,1916.93Z" style="fill:rgb(170,135,117);fill-rule:nonzero;"></path>
        </g>
        <g transform="matrix(1,0,0,1,-52.1173,159.826)">
            <path d="M857.561,2436.97C921.136,2321.33 1273.65,1778.98 2300.89,1778.98C2561.71,1778.98 2866.32,1814.01 3220.41,1899.85L3213.76,1903.99C2862.01,1819.1 2559.84,1784.52 2300.61,1784.52C1293.5,1784.52 937.245,2307.18 865.862,2433.48L857.561,2436.97Z" style="fill:rgb(147,92,50);fill-rule:nonzero;"></path>
        </g>
        <g transform="matrix(1,0,0,1,-52.1173,159.826)">
            <path d="M849.017,2459.68L846.506,2458.49C846.625,2458.24 850.102,2450.54 857.561,2436.97L865.862,2433.48C858.755,2446.06 854.471,2454.7 852.646,2458.51L849.017,2459.68ZM3266.2,1916.93C3248.6,1912.49 3231.12,1908.18 3213.76,1903.99L3220.41,1899.85C3236.77,1903.82 3253.19,1907.88 3269.76,1912.07L3269.09,1914.77L3266.2,1916.93Z" style="fill:rgb(140,86,46);fill-rule:nonzero;"></path>
        </g>
        <g transform="matrix(1,0,0,1,-52.1173,159.826)">
            <path d="M3149.28,2004.43L3152.05,2002.36L3149.28,2004.43Z" style="fill:rgb(170,135,117);fill-rule:nonzero;"></path>
        </g>
        <g transform="matrix(1,0,0,1,-52.1173,159.826)">
            <path d="M1480.42,2175.34C1578.08,2090.45 1689.57,2028.92 1807.51,1985.36L1812.88,1989.34C1699.67,2030.81 1592.38,2088.78 1497.58,2168.14L1480.42,2175.34ZM3081.85,1986.04C2984.67,1961.36 2794.28,1919.47 2568.71,1903.7L2568.11,1898.13C2798.51,1914.15 2992.47,1957.39 3088.38,1981.98L3081.85,1986.04Z" style="fill:rgb(147,92,50);fill-rule:nonzero;"></path>
        </g>
        <g transform="matrix(1,0,0,1,-52.1173,159.826)">
            <path d="M1372.53,2290.47L1370.37,2288.71C1404.54,2246.95 1441.38,2209.28 1480.42,2175.34L1497.58,2168.14C1454.88,2203.88 1414.64,2243.99 1377.59,2288.84L1372.53,2290.47ZM3149.28,2004.43C3142.84,2002.5 3119.25,1995.54 3081.85,1986.04L3088.38,1981.98C3129.27,1992.46 3152.36,1999.55 3152.84,1999.7L3152.05,2002.36L3149.28,2004.43ZM1812.88,1989.34L1807.51,1985.36C1996.28,1915.64 2201.64,1891.94 2393.81,1891.94C2453.49,1891.94 2511.87,1894.22 2568.11,1898.13L2568.71,1903.7C2512.29,1899.76 2453.71,1897.45 2393.82,1897.45C2203.39,1897.45 2000,1920.81 1812.88,1989.34Z" style="fill:rgb(140,86,46);fill-rule:nonzero;"></path>
        </g>
        <g transform="matrix(1,0,0,1,-52.1173,159.826)">
            <path d="M2609.44,2279.9L2609.44,2279.88C2647.41,2237.33 2602.58,2153.17 2600.65,2149.6C2598.35,2146.51 2596.26,2143.53 2594.36,2140.64L2592.87,2126.86C2595.85,2132.87 2599.94,2139.4 2605.24,2146.47L2605.37,2146.65L2605.47,2146.83C2605.68,2147.23 2646.65,2222.14 2624.73,2270.39L2609.44,2279.9ZM2910.36,2092.71C2842.56,2079.17 2751.86,2064.11 2683.71,2064.11C2635.67,2064.11 2598.83,2071.59 2589.14,2092.37L2587.99,2081.78C2603.3,2065.16 2639.11,2059.01 2683.71,2059.01C2755.07,2059.01 2848.93,2074.76 2917.17,2088.48L2910.36,2092.71Z" style="fill:rgb(147,92,50);fill-rule:nonzero;"></path>
        </g>
        <g transform="matrix(1,0,0,1,-52.1173,159.826)">
            <path d="M2539.64,2310.26C2513.84,2310.26 2481.26,2305.75 2440.42,2295.24L2440.54,2293.43L2440.79,2289.55C2480.36,2299.71 2511.84,2304.06 2536.77,2304.06C2573.93,2304.05 2596.5,2294.39 2609.44,2279.88L2609.44,2279.9L2624.73,2270.39C2614.31,2293.33 2589.66,2310.26 2539.64,2310.26ZM2594.36,2140.64C2576.59,2113.52 2576.23,2094.56 2587.99,2081.78L2589.14,2092.37C2584.98,2101.27 2585.81,2112.62 2592.87,2126.86L2594.36,2140.64ZM3003.78,2113.32C2994.78,2111.11 2958.29,2102.29 2910.36,2092.71L2917.17,2088.48C2969.59,2099.02 3006.91,2108.37 3007.32,2108.47L3006.65,2111.17L3005.84,2111.77L3003.78,2113.32Z" style="fill:rgb(140,86,46);fill-rule:nonzero;"></path>
        </g>
        <g transform="matrix(1,0,0,1,-52.1173,159.826)">
            <path d="M2440.42,2295.24L2440.54,2293.43L2440.42,2295.24Z" style="fill:rgb(123,68,38);fill-rule:nonzero;"></path>
        </g>
        <g transform="matrix(1,0,0,1,-52.1173,159.826)">
            <path d="M2748.18,2304.6L2752.97,2301.02L2748.18,2304.6ZM2900.9,2190.31L2902.82,2188.87L2900.9,2190.31Z" style="fill:rgb(170,135,117);fill-rule:nonzero;"></path>
        </g>
        <g transform="matrix(1,0,0,1,-52.1173,159.826)">
            <path d="M2730.27,2204.74C2736.99,2197.18 2746.49,2191.67 2757.62,2187.73L2730.27,2204.74Z" style="fill:rgb(147,92,50);fill-rule:nonzero;"></path>
        </g>
        <g transform="matrix(1,0,0,1,-52.1173,159.826)">
            <path d="M2748.18,2304.6C2714.02,2254.23 2713.75,2223.31 2730.27,2204.74L2757.62,2187.73C2776.6,2180.99 2800.33,2178.82 2823.09,2178.82C2864.66,2178.82 2903,2186.08 2903.32,2186.14L2902.82,2188.87L2900.9,2190.31L2899.78,2191.15C2890.89,2189.61 2859.67,2184.65 2826.23,2184.65C2761.54,2184.65 2688.57,2203.22 2752.97,2301.02L2748.18,2304.6Z" style="fill:rgb(140,86,46);fill-rule:nonzero;"></path>
        </g>
        <g transform="matrix(1,0,0,1,-52.1173,159.826)">
            <path d="M2523,1197.28L2523.17,1195.34L2523,1197.28Z" style="fill:rgb(123,68,38);fill-rule:nonzero;"></path>
        </g>
        <g transform="matrix(1,0,0,1,-52.1173,159.826)">
            <path d="M674.507,2099.22L674.506,2099.22L699.261,1641.26L698.884,1648.25L674.507,2099.21L674.507,2099.22Z" style="fill:rgb(148,97,61);fill-rule:nonzero;"></path>
        </g>
        <g transform="matrix(1,0,0,1,-52.1173,159.826)">
            <path d="M685.075,2091.75L722.244,1612.76C794.192,1516.05 891.855,1487.98 980.899,1487.98C1081.08,1487.98 1170.37,1523.47 1200.03,1536.61L1213.17,1547.93L1214.4,1539.33C1227.1,1451.08 1288.21,1420.96 1380.52,1420.96C1408.73,1420.96 1439.86,1423.77 1473.41,1428.6C1544.97,1438.89 1627.56,1458.34 1716.4,1479.27C1881.5,1518.16 2068.18,1562.12 2246.68,1562.13C2332.92,1562.13 2417.23,1551.87 2496.3,1525.82L2495.59,1523.66L2498.02,1524.2C2526.53,1452.07 2547.36,1399.46 2589.62,1380.29C2601.33,1374.98 2614.75,1372.18 2630.49,1372.18C2671.83,1372.18 2729.22,1391.48 2813.98,1435.28C2855.3,1456.63 2886.63,1465.48 2910.14,1465.49C2991.64,1465.51 2979.35,1359.1 2965.6,1298.02L3074.52,1356.3C3054.77,1475.31 3135.54,1546.13 3240.99,1588.23L2842.24,1527.47C2804.57,1509.52 2772.12,1501.96 2743.37,1501.96C2668.55,1501.96 2618.77,1553.2 2567.3,1606.18C2529.24,1645.36 2490.25,1685.5 2439.46,1705.85C2388.83,1726.13 2338.56,1734.3 2288.13,1734.3C2189.15,1734.31 2089.5,1702.86 1984.9,1669.86C1868.91,1633.26 1746.86,1594.75 1612.87,1594.75C1504.41,1594.75 1388.13,1619.96 1260.83,1691.81C1208.24,1721.49 1150.28,1757.58 1090.54,1805.49L685.075,2091.75ZM3612.69,1644.25C3611.33,1644.23 3609.88,1644.22 3608.33,1644.2L3267.32,1592.24C3153.07,1552.49 3060.47,1482.42 3079.74,1359.09L3612.69,1644.25ZM2501.62,1500.06L2545.71,1203.92C2602.65,1222.72 2677.19,1260.21 2730.52,1260.21C2762.7,1260.21 2787.16,1246.57 2795.39,1206.95L2959.04,1294.52C2972.58,1352.5 2986.59,1458.84 2907.31,1458.84C2885.08,1458.84 2855.51,1450.48 2816.53,1430.34C2731.04,1386.17 2672.72,1366.66 2630.31,1366.66C2613.79,1366.66 2599.69,1369.61 2587.33,1375.22C2547.59,1393.25 2526.45,1438.12 2501.62,1500.06ZM2728.04,1248.72C2676.36,1248.72 2603.51,1215.93 2546.56,1198.23L2563.72,1083L2789.91,1204.02C2781.93,1237.15 2758.72,1248.72 2728.04,1248.72Z" style="fill:rgb(204,153,91);fill-rule:nonzero;"></path>
        </g>
        <g transform="matrix(1,0,0,1,-52.1173,159.826)">
            <path d="M674.507,2099.21L698.884,1648.25C706.313,1635.5 714.109,1623.7 722.244,1612.76L685.075,2091.75L674.507,2099.22L674.507,2099.21ZM3624.09,1645.42L3622.12,1644.28L3620.44,1644.28C3618.34,1644.28 3615.75,1644.27 3612.69,1644.25L3079.74,1359.09C3081,1350.97 3082.76,1342.64 3085.02,1334.04L3080.01,1331.15C3079.94,1331.4 3079.89,1331.64 3079.82,1331.88C3077.59,1340.25 3075.83,1348.37 3074.52,1356.3L2965.6,1298.02C2961.39,1279.35 2957.04,1264.92 2955.2,1259.05L2948.23,1255.03L2948.97,1257.84C2949.03,1258.03 2954,1272.92 2959.04,1294.52L2795.39,1206.95C2797.64,1196.14 2798.67,1183.38 2798.33,1168.44L2795.49,1166.8L2792.72,1166.92C2793.38,1181.54 2792.37,1193.8 2789.91,1204.02L2563.72,1083L2546.56,1198.23C2538.51,1195.73 2530.77,1193.53 2523.47,1191.76L2523.17,1195.34L2538.15,1018.16L3624.09,1645.42ZM1213.17,1547.93L1200.03,1536.61C1204.91,1538.78 1208.18,1540.34 1209.61,1541.03L1213.17,1547.93ZM2498.02,1524.2L2495.59,1523.66L2495.43,1523.18L2498.02,1524.2ZM2496.25,1513.55L2523,1197.28C2530.16,1199.03 2537.76,1201.29 2545.71,1203.92L2501.62,1500.06C2499.85,1504.47 2498.06,1508.97 2496.25,1513.55Z" style="fill:url(#_Linear7);"></path>
        </g>
        <g transform="matrix(1,0,0,1,-52.1173,159.826)">
            <path d="M1100.08,1805C1157.42,1759.68 1212.97,1725.19 1263.55,1696.64C1389.77,1625.41 1505.2,1600.39 1612.91,1600.39C1746.24,1600.39 1867.74,1638.72 1983.22,1675.16C2088.28,1708.31 2188.41,1739.9 2288.09,1739.9C2339.15,1739.9 2390.09,1731.62 2441.53,1711C2493.4,1690.22 2532.82,1649.65 2571.28,1610.05C2621.72,1558.13 2670.51,1507.91 2743.79,1507.91C2766.74,1507.91 2792.09,1512.84 2820.65,1524.18L2722.99,1509.31L2678.11,1722.82L1100.08,1805Z" style="fill:rgb(204,153,91);fill-rule:nonzero;"></path>
        </g>
        <g transform="matrix(1,0,0,1,-52.1173,159.826)">
            <path d="M699.53,1636.28L718.492,1285.49L718.338,1288.35L699.531,1636.28L699.53,1636.28Z" style="fill:rgb(148,97,61);fill-rule:nonzero;"></path>
        </g>
        <g transform="matrix(1,0,0,1,-52.1173,159.826)">
            <path d="M723.051,1602.37L748.29,1277.12C771.385,1269.72 795.007,1266.76 817.986,1266.76C846.928,1266.76 874.875,1271.45 899.54,1277.85L1186.29,1524.78C1146.78,1508.89 1067.69,1482.32 980.429,1482.32C892.166,1482.32 795.565,1509.48 723.051,1602.37Z" style="fill:rgb(204,153,91);fill-rule:nonzero;"></path>
        </g>
        <g transform="matrix(1,0,0,1,-52.1173,159.826)">
            <path d="M699.531,1636.28L718.338,1288.35L718.273,1289.55C728.117,1284.47 738.152,1280.37 748.29,1277.12L723.051,1602.37C714.892,1612.82 707.032,1624.11 699.53,1636.28L699.531,1636.28ZM1211.65,1538.93L1205.57,1533L1205.37,1532.8C1205.39,1532.85 1205.41,1532.9 1205.44,1532.94C1200.93,1530.9 1194.45,1528.07 1186.29,1524.78L899.54,1277.85C928.817,1285.44 953.463,1295.45 969.688,1302.9L958.573,1292.05L1211.65,1538.93Z" style="fill:url(#_Linear8);"></path>
        </g>
        <g transform="matrix(1,0,0,1,-52.1173,159.826)">
            <path d="M2246.64,1556.54C2068.73,1556.54 1882.45,1512.67 1717.67,1473.85C1628.71,1452.9 1546.03,1433.43 1474.19,1423.09C1440.23,1418.21 1408.68,1415.36 1380.06,1415.36C1288.34,1415.36 1226.51,1444.54 1210.46,1529.28L1166.47,1226.46L2489.23,1522.23C2412.34,1546.8 2330.39,1556.53 2246.64,1556.54Z" style="fill:rgb(204,153,91);fill-rule:nonzero;"></path>
        </g>
        <g transform="matrix(1,0,0,1,-52.1173,159.826)">
            <path d="M1210.61,1535.34L1153.79,1338.74L1103.67,1165.3L2368.99,1490.66L2490.36,1521.87C2489.98,1521.99 2489.61,1522.11 2489.23,1522.23L1166.47,1226.46L1210.46,1529.28C1210.4,1529.59 1210.34,1529.9 1210.28,1530.21L1207.65,1525.1L1210.61,1535.34Z" style="fill:url(#_Linear9);"></path>
        </g>
        <g transform="matrix(1,0,0,1,-52.1173,159.826)">
            <path d="M1210.61,1535.34L1153.79,1338.74L1210.61,1535.34Z" style="fill:rgb(148,97,61);fill-rule:nonzero;"></path>
        </g>
        <g transform="matrix(1,0,0,1,-52.1173,159.826)">
            <path d="M3614.3,1645.11L3608.33,1644.2C3609.88,1644.22 3611.33,1644.23 3612.69,1644.25L3614.3,1645.11Z" style="fill:rgb(167,117,72);fill-rule:nonzero;"></path>
        </g>
        <g transform="matrix(1,0,0,1,-52.1173,159.826)">
            <path d="M3622.43,1646.35L3614.3,1645.11L3612.69,1644.25C3615.75,1644.27 3618.34,1644.28 3620.44,1644.28L3622.12,1644.28L3624.09,1645.42C3623.64,1645.67 3623.09,1645.98 3622.43,1646.35Z" style="fill:url(#_Linear10);"></path>
        </g>
        <g transform="matrix(1,0,0,1,-52.1173,159.826)">
            <path d="M3267.32,1592.24L3240.99,1588.23C3135.54,1546.13 3054.77,1475.31 3074.52,1356.3L3079.74,1359.09C3060.47,1482.42 3153.07,1552.49 3267.32,1592.24Z" style="fill:rgb(167,117,72);fill-rule:nonzero;"></path>
        </g>
        <g transform="matrix(1,0,0,1,-52.1173,159.826)">
            <path d="M3079.74,1359.09L3074.52,1356.3C3075.83,1348.37 3077.59,1340.25 3079.82,1331.88C3079.89,1331.64 3079.94,1331.4 3080.01,1331.15L3085.02,1334.04C3082.76,1342.64 3081,1350.97 3079.74,1359.09Z" style="fill:url(#_Linear11);"></path>
        </g>
        <g transform="matrix(1,0,0,1,-52.1173,159.826)">
            <path d="M2498.02,1524.2L2501.62,1500.06C2526.45,1438.12 2547.59,1393.25 2587.33,1375.22C2599.69,1369.61 2613.79,1366.66 2630.31,1366.66C2672.72,1366.66 2731.04,1386.17 2816.53,1430.34C2855.51,1450.48 2885.08,1458.84 2907.31,1458.84C2986.59,1458.84 2972.58,1352.5 2959.04,1294.52L2965.6,1298.02C2979.35,1359.1 2991.64,1465.51 2910.14,1465.49C2886.63,1465.48 2855.3,1456.63 2813.98,1435.28C2729.22,1391.48 2671.83,1372.18 2630.49,1372.18C2614.75,1372.18 2601.33,1374.98 2589.62,1380.29C2547.36,1399.46 2526.53,1452.07 2498.02,1524.2Z" style="fill:rgb(167,117,72);fill-rule:nonzero;"></path>
        </g>
        <g transform="matrix(1,0,0,1,-52.1173,159.826)">
            <path d="M2498.02,1524.2L2495.43,1523.18L2496.25,1513.55C2498.06,1508.97 2499.85,1504.47 2501.62,1500.06L2498.02,1524.2ZM2965.6,1298.02L2959.04,1294.52C2954,1272.92 2949.03,1258.03 2948.97,1257.84L2948.23,1255.03L2955.2,1259.05C2957.04,1264.92 2961.39,1279.35 2965.6,1298.02Z" style="fill:url(#_Linear12);"></path>
        </g>
        <g transform="matrix(1,0,0,1,-52.1173,159.826)">
            <path d="M2246.68,1562.13C2068.18,1562.12 1881.5,1518.16 1716.4,1479.27C1627.56,1458.34 1544.97,1438.89 1473.41,1428.6C1439.86,1423.77 1408.73,1420.96 1380.52,1420.96C1288.21,1420.96 1227.1,1451.08 1214.4,1539.33L1213.17,1547.93L1211.81,1538.61L1212.87,1536.43C1212.83,1536.41 1212.31,1536.15 1211.39,1535.71L1210.46,1529.28C1226.51,1444.54 1288.34,1415.36 1380.06,1415.36C1408.68,1415.36 1440.23,1418.21 1474.19,1423.09C1546.03,1433.43 1628.71,1452.9 1717.67,1473.85C1882.45,1512.67 2068.73,1556.54 2246.64,1556.54C2330.39,1556.53 2412.34,1546.8 2489.23,1522.23L2495.59,1523.66L2496.3,1525.82C2417.23,1551.87 2332.92,1562.13 2246.68,1562.13Z" style="fill:rgb(167,117,72);fill-rule:nonzero;"></path>
        </g>
        <g transform="matrix(1,0,0,1,-52.1173,159.826)">
            <path d="M1213.17,1547.93L1209.61,1541.03C1210.12,1541.28 1210.4,1541.42 1210.43,1541.44L1211.65,1538.93L1211.81,1538.61L1213.17,1547.93ZM1211.39,1535.71C1211.16,1535.6 1210.9,1535.48 1210.61,1535.34L1207.65,1525.1L1210.28,1530.21C1210.34,1529.9 1210.4,1529.59 1210.46,1529.28L1211.39,1535.71ZM1205.57,1533C1205.53,1532.98 1205.48,1532.96 1205.44,1532.94C1205.41,1532.9 1205.39,1532.85 1205.37,1532.8L1205.57,1533ZM2495.59,1523.66L2489.23,1522.23C2489.61,1522.11 2489.98,1521.99 2490.36,1521.87L2495.43,1523.18L2495.59,1523.66Z" style="fill:url(#_Linear13);"></path>
        </g>
        <g transform="matrix(1,0,0,1,-52.1173,159.826)">
            <path d="M1090.54,1805.49C1150.28,1757.58 1208.24,1721.49 1260.83,1691.81C1388.13,1619.96 1504.41,1594.75 1612.87,1594.75C1746.86,1594.75 1868.91,1633.26 1984.9,1669.86C2089.5,1702.86 2189.15,1734.31 2288.13,1734.3C2338.56,1734.3 2388.83,1726.13 2439.46,1705.85C2490.25,1685.5 2529.24,1645.36 2567.3,1606.18C2618.77,1553.2 2668.55,1501.96 2743.37,1501.96C2772.12,1501.96 2804.57,1509.52 2842.24,1527.47L2820.65,1524.18C2792.09,1512.84 2766.74,1507.91 2743.79,1507.91C2670.51,1507.91 2621.72,1558.13 2571.28,1610.05C2532.82,1649.65 2493.4,1690.22 2441.53,1711C2390.09,1731.62 2339.15,1739.9 2288.09,1739.9C2188.41,1739.9 2088.28,1708.31 1983.22,1675.16C1867.74,1638.72 1746.24,1600.39 1612.91,1600.39C1505.2,1600.39 1389.77,1625.41 1263.55,1696.64C1212.97,1725.19 1157.42,1759.68 1100.08,1805L1090.54,1805.49Z" style="fill:rgb(167,117,72);fill-rule:nonzero;"></path>
        </g>
        <g transform="matrix(1,0,0,1,-52.1173,159.826)">
            <path d="M3626.87,1647.02L3624.09,1645.42L3626.87,1647.02Z" style="fill:url(#_Linear14);"></path>
        </g>
        <g transform="matrix(1,0,0,1,-52.1173,159.826)">
            <path d="M3626.87,1647.02L3622.43,1646.35C3623.09,1645.98 3623.64,1645.67 3624.09,1645.42L3626.87,1647.02Z" style="fill:url(#_Linear15);"></path>
        </g>
        <g transform="matrix(1,0,0,1,-52.1173,159.826)">
            <path d="M2730.52,1260.21C2677.19,1260.21 2602.65,1222.72 2545.71,1203.92L2546.56,1198.23C2603.51,1215.93 2676.36,1248.72 2728.04,1248.72C2758.72,1248.72 2781.93,1237.15 2789.91,1204.02L2795.39,1206.95C2787.16,1246.57 2762.7,1260.21 2730.52,1260.21Z" style="fill:rgb(167,117,72);fill-rule:nonzero;"></path>
        </g>
        <g transform="matrix(1,0,0,1,-52.1173,159.826)">
            <path d="M2795.39,1206.95L2789.91,1204.02C2792.37,1193.8 2793.38,1181.54 2792.72,1166.92L2795.49,1166.8L2798.33,1168.44C2798.67,1183.38 2797.64,1196.14 2795.39,1206.95ZM2545.71,1203.92C2537.76,1201.29 2530.16,1199.03 2523,1197.28L2523.17,1195.34L2523.47,1191.76C2530.77,1193.53 2538.51,1195.73 2546.56,1198.23L2545.71,1203.92Z" style="fill:url(#_Linear16);"></path>
        </g>
        <g transform="matrix(1,0,0,1,-52.1173,159.826)">
            <path d="M698.884,1648.25L699.261,1641.26L699.53,1636.28L698.884,1648.25Z" style="fill:rgb(148,97,61);fill-rule:nonzero;"></path>
        </g>
        <g transform="matrix(1,0,0,1,-52.1173,159.826)">
            <path d="M722.244,1612.76L723.051,1602.37C795.565,1509.48 892.166,1482.32 980.429,1482.32C1067.69,1482.32 1146.78,1508.89 1186.29,1524.78L1200.03,1536.61C1170.37,1523.47 1081.08,1487.98 980.899,1487.98C891.855,1487.98 794.192,1516.05 722.244,1612.76Z" style="fill:rgb(167,117,72);fill-rule:nonzero;"></path>
        </g>
        <g transform="matrix(1,0,0,1,-52.1173,159.826)">
            <path d="M698.884,1648.25L699.531,1636.28C707.032,1624.11 714.892,1612.82 723.051,1602.37L722.244,1612.76C714.109,1623.7 706.313,1635.5 698.884,1648.25ZM1209.61,1541.03C1208.18,1540.34 1204.91,1538.78 1200.03,1536.61L1186.29,1524.78C1194.45,1528.07 1200.93,1530.9 1205.44,1532.94C1207.8,1537.53 1209.13,1540.11 1209.18,1540.21L1209.61,1541.03ZM1211.65,1538.93L1205.57,1533L1211.65,1538.93Z" style="fill:url(#_Linear17);"></path>
        </g>
        <g transform="matrix(1,0,0,1,-52.1173,159.826)">
            <path d="M1210.43,1541.44C1210.4,1541.42 1210.12,1541.28 1209.61,1541.03L1209.18,1540.21C1209.13,1540.11 1207.8,1537.53 1205.44,1532.94C1205.48,1532.96 1205.53,1532.98 1205.57,1533L1211.65,1538.93L1210.43,1541.44Z" style="fill:url(#_Linear18);"></path>
        </g>
        <g transform="matrix(1,0,0,1,-52.1173,159.826)">
            <path d="M1211.65,1538.93L1210.61,1535.34L1211.65,1538.93Z" style="fill:rgb(148,97,61);fill-rule:nonzero;"></path>
        </g>
        <g transform="matrix(1,0,0,1,-52.1173,159.826)">
            <path d="M1211.81,1538.61L1211.39,1535.71C1212.31,1536.15 1212.83,1536.41 1212.87,1536.43L1211.81,1538.61Z" style="fill:rgb(154,105,66);fill-rule:nonzero;"></path>
        </g>
        <g transform="matrix(1,0,0,1,-52.1173,159.826)">
            <path d="M1211.65,1538.93L1210.61,1535.34C1210.9,1535.48 1211.16,1535.6 1211.39,1535.71L1211.81,1538.61L1211.65,1538.93Z" style="fill:url(#_Linear19);"></path>
        </g>
        <g transform="matrix(1,0,0,1,-52.1173,159.826)">
            <path d="M718.63,1282.95L730.181,1069.26L718.63,1282.95Z" style="fill:rgb(148,97,61);fill-rule:nonzero;"></path>
        </g>
        <g transform="matrix(1,0,0,1,-52.1173,159.826)">
            <path d="M748.767,1270.97L757.711,1155.71L890.26,1269.86C867.807,1264.69 843.09,1261.13 817.602,1261.13C794.912,1261.13 771.623,1263.95 748.767,1270.97Z" style="fill:rgb(204,153,91);fill-rule:nonzero;"></path>
        </g>
        <g transform="matrix(1,0,0,1,-52.1173,159.826)">
            <path d="M958.424,1291.91C940.624,1284.48 917.052,1276.02 890.26,1269.86L757.711,1155.71L748.767,1270.97C738.604,1274.09 728.524,1278.04 718.63,1282.95L730.181,1069.26L958.424,1291.91Z" style="fill:url(#_Linear20);"></path>
        </g>
        <g transform="matrix(1,0,0,1,-52.1173,159.826)">
            <path d="M718.338,1288.35L718.492,1285.49L718.63,1282.95L718.338,1288.35Z" style="fill:rgb(148,97,61);fill-rule:nonzero;"></path>
        </g>
        <g transform="matrix(1,0,0,1,-52.1173,159.826)">
            <path d="M899.54,1277.85C874.875,1271.45 846.928,1266.76 817.986,1266.76C795.007,1266.76 771.385,1269.72 748.29,1277.12L748.767,1270.97C771.623,1263.95 794.912,1261.13 817.602,1261.13C843.09,1261.13 867.807,1264.69 890.26,1269.86L899.54,1277.85Z" style="fill:rgb(167,117,72);fill-rule:nonzero;"></path>
        </g>
        <g transform="matrix(1,0,0,1,-52.1173,159.826)">
            <path d="M969.688,1302.9C953.463,1295.45 928.817,1285.44 899.54,1277.85L890.26,1269.86C917.052,1276.02 940.624,1284.48 958.424,1291.91L958.573,1292.05L969.688,1302.9ZM718.273,1289.55L718.338,1288.35L718.63,1282.95C728.524,1278.04 738.604,1274.09 748.767,1270.97L748.29,1277.12C738.152,1280.37 728.117,1284.47 718.273,1289.55Z" style="fill:url(#_Linear21);"></path>
        </g>
    </g>
    <defs>
        <linearGradient id="_Linear1" x1="0" y1="0" x2="1" y2="0" gradientUnits="userSpaceOnUse" gradientTransform="matrix(-49.0947,948.49,-948.49,-49.0947,1889.53,305.978)"><stop offset="0" style="stop-color:rgb(253,228,167);stop-opacity:1"></stop><stop offset="1" style="stop-color:white;stop-opacity:1"></stop></linearGradient>
        <linearGradient id="_Linear2" x1="0" y1="0" x2="1" y2="0" gradientUnits="userSpaceOnUse" gradientTransform="matrix(102.184,1084.8,-1084.8,102.184,2065.82,991.556)"><stop offset="0" style="stop-color:rgb(253,228,167);stop-opacity:1"></stop><stop offset="1" style="stop-color:rgb(191,135,74);stop-opacity:1"></stop></linearGradient>
        <linearGradient id="_Linear3" x1="0" y1="0" x2="1" y2="0" gradientUnits="userSpaceOnUse" gradientTransform="matrix(102.184,1084.8,-1084.8,102.184,2065.82,991.556)"><stop offset="0" style="stop-color:rgb(169,125,84);stop-opacity:1"></stop><stop offset="1" style="stop-color:rgb(147,92,50);stop-opacity:1"></stop></linearGradient>
        <linearGradient id="_Linear4" x1="0" y1="0" x2="1" y2="0" gradientUnits="userSpaceOnUse" gradientTransform="matrix(102.184,1084.8,-1084.8,102.184,2065.82,991.556)"><stop offset="0" style="stop-color:rgb(169,125,84);stop-opacity:1"></stop><stop offset="1" style="stop-color:rgb(147,92,50);stop-opacity:1"></stop></linearGradient>
        <linearGradient id="_Linear5" x1="0" y1="0" x2="1" y2="0" gradientUnits="userSpaceOnUse" gradientTransform="matrix(102.184,1084.8,-1084.8,102.184,2065.82,991.556)"><stop offset="0" style="stop-color:rgb(140,89,54);stop-opacity:1"></stop><stop offset="1" style="stop-color:rgb(131,77,42);stop-opacity:1"></stop></linearGradient>
        <linearGradient id="_Linear6" x1="0" y1="0" x2="1" y2="0" gradientUnits="userSpaceOnUse" gradientTransform="matrix(102.184,1084.8,-1084.8,102.184,2065.82,991.556)"><stop offset="0" style="stop-color:rgb(140,89,54);stop-opacity:1"></stop><stop offset="1" style="stop-color:rgb(128,73,41);stop-opacity:1"></stop></linearGradient>
        <linearGradient id="_Linear7" x1="0" y1="0" x2="1" y2="0" gradientUnits="userSpaceOnUse" gradientTransform="matrix(102.184,1084.8,-1084.8,102.184,2065.82,991.556)"><stop offset="0" style="stop-color:rgb(253,228,167);stop-opacity:1"></stop><stop offset="1" style="stop-color:rgb(204,153,91);stop-opacity:1"></stop></linearGradient>
        <linearGradient id="_Linear8" x1="0" y1="0" x2="1" y2="0" gradientUnits="userSpaceOnUse" gradientTransform="matrix(102.184,1084.8,-1084.8,102.184,2065.82,991.556)"><stop offset="0" style="stop-color:rgb(253,228,167);stop-opacity:1"></stop><stop offset="1" style="stop-color:rgb(204,153,91);stop-opacity:1"></stop></linearGradient>
        <linearGradient id="_Linear9" x1="0" y1="0" x2="1" y2="0" gradientUnits="userSpaceOnUse" gradientTransform="matrix(102.184,1084.8,-1084.8,102.184,2065.82,991.556)"><stop offset="0" style="stop-color:rgb(253,228,167);stop-opacity:1"></stop><stop offset="1" style="stop-color:rgb(204,153,91);stop-opacity:1"></stop></linearGradient>
        <linearGradient id="_Linear10" x1="0" y1="0" x2="1" y2="0" gradientUnits="userSpaceOnUse" gradientTransform="matrix(102.184,1084.8,-1084.8,102.184,2065.82,991.556)"><stop offset="0" style="stop-color:rgb(186,145,100);stop-opacity:1"></stop><stop offset="1" style="stop-color:rgb(167,117,72);stop-opacity:1"></stop></linearGradient>
        <linearGradient id="_Linear11" x1="0" y1="0" x2="1" y2="0" gradientUnits="userSpaceOnUse" gradientTransform="matrix(102.184,1084.8,-1084.8,102.184,2065.82,991.556)"><stop offset="0" style="stop-color:rgb(186,145,100);stop-opacity:1"></stop><stop offset="1" style="stop-color:rgb(167,117,72);stop-opacity:1"></stop></linearGradient>
        <linearGradient id="_Linear12" x1="0" y1="0" x2="1" y2="0" gradientUnits="userSpaceOnUse" gradientTransform="matrix(102.184,1084.8,-1084.8,102.184,2065.82,991.556)"><stop offset="0" style="stop-color:rgb(186,145,100);stop-opacity:1"></stop><stop offset="1" style="stop-color:rgb(167,117,72);stop-opacity:1"></stop></linearGradient>
        <linearGradient id="_Linear13" x1="0" y1="0" x2="1" y2="0" gradientUnits="userSpaceOnUse" gradientTransform="matrix(102.184,1084.8,-1084.8,102.184,2065.82,991.556)"><stop offset="0" style="stop-color:rgb(186,145,100);stop-opacity:1"></stop><stop offset="1" style="stop-color:rgb(167,117,72);stop-opacity:1"></stop></linearGradient>
        <linearGradient id="_Linear14" x1="0" y1="0" x2="1" y2="0" gradientUnits="userSpaceOnUse" gradientTransform="matrix(102.184,1084.8,-1084.8,102.184,2065.82,991.556)"><stop offset="0" style="stop-color:rgb(186,145,100);stop-opacity:1"></stop><stop offset="1" style="stop-color:rgb(167,117,72);stop-opacity:1"></stop></linearGradient>
        <linearGradient id="_Linear15" x1="0" y1="0" x2="1" y2="0" gradientUnits="userSpaceOnUse" gradientTransform="matrix(102.184,1084.8,-1084.8,102.184,2065.82,991.556)"><stop offset="0" style="stop-color:rgb(160,114,75);stop-opacity:1"></stop><stop offset="1" style="stop-color:rgb(154,105,66);stop-opacity:1"></stop></linearGradient>
        <linearGradient id="_Linear16" x1="0" y1="0" x2="1" y2="0" gradientUnits="userSpaceOnUse" gradientTransform="matrix(102.184,1084.8,-1084.8,102.184,2065.82,991.556)"><stop offset="0" style="stop-color:rgb(186,145,100);stop-opacity:1"></stop><stop offset="1" style="stop-color:rgb(167,117,72);stop-opacity:1"></stop></linearGradient>
        <linearGradient id="_Linear17" x1="0" y1="0" x2="1" y2="0" gradientUnits="userSpaceOnUse" gradientTransform="matrix(102.184,1084.8,-1084.8,102.184,2065.82,991.556)"><stop offset="0" style="stop-color:rgb(186,145,100);stop-opacity:1"></stop><stop offset="1" style="stop-color:rgb(167,117,72);stop-opacity:1"></stop></linearGradient>
        <linearGradient id="_Linear18" x1="0" y1="0" x2="1" y2="0" gradientUnits="userSpaceOnUse" gradientTransform="matrix(102.184,1084.8,-1084.8,102.184,2065.82,991.556)"><stop offset="0" style="stop-color:rgb(160,114,75);stop-opacity:1"></stop><stop offset="1" style="stop-color:rgb(154,105,66);stop-opacity:1"></stop></linearGradient>
        <linearGradient id="_Linear19" x1="0" y1="0" x2="1" y2="0" gradientUnits="userSpaceOnUse" gradientTransform="matrix(102.184,1084.8,-1084.8,102.184,2065.82,991.556)"><stop offset="0" style="stop-color:rgb(160,114,75);stop-opacity:1"></stop><stop offset="1" style="stop-color:rgb(154,105,66);stop-opacity:1"></stop></linearGradient>
        <linearGradient id="_Linear20" x1="0" y1="0" x2="1" y2="0" gradientUnits="userSpaceOnUse" gradientTransform="matrix(102.184,1084.8,-1084.8,102.184,2065.82,991.556)"><stop offset="0" style="stop-color:rgb(253,228,167);stop-opacity:1"></stop><stop offset="1" style="stop-color:rgb(204,153,91);stop-opacity:1"></stop></linearGradient>
        <linearGradient id="_Linear21" x1="0" y1="0" x2="1" y2="0" gradientUnits="userSpaceOnUse" gradientTransform="matrix(102.184,1084.8,-1084.8,102.184,2065.82,991.556)"><stop offset="0" style="stop-color:rgb(186,145,100);stop-opacity:1"></stop><stop offset="1" style="stop-color:rgb(167,117,72);stop-opacity:1"></stop></linearGradient>
    </defs>
</svg>