<?xml version="1.0"?>

<svg width="100%" height="100%" viewBox="0 0 2122 2122" version="1.1" xmlns="http://www.w3.org/2000/svg" xmlns:xlink="http://www.w3.org/1999/xlink" xml:space="preserve" xmlns:serif="http://www.serif.com/" style="fill-rule:evenodd;clip-rule:evenodd;stroke-linejoin:round;stroke-miterlimit:2;">
    <g>
        <path d="M1786.36,569.883C1705.91,522.214 1599.45,521.58 1518.22,567.791C1549.65,501.337 1557.2,456.755 1555.78,413.971C1553.68,350.385 1526.98,278.566 1501.57,239.617C1496.29,231.53 1482.41,235.454 1481.25,244.837C1470.38,332.607 1462.99,426.871 1399.41,518.052C1398.35,518.044 1397.29,518.041 1396.24,518.042C1380.69,518.054 1367.99,517.959 1353.46,512.247C1339.08,506.598 1323.22,503.345 1307.85,501.971C1283.39,499.785 1258.99,502.822 1235.03,507.737C1177.84,419.78 1170.6,329.3 1160.15,244.837C1158.99,235.454 1145.1,231.53 1139.83,239.617C1114.42,278.566 1087.72,350.385 1085.61,413.971C1084.19,456.793 1091.75,501.416 1123.25,567.968C1122.23,569.198 1121.22,570.445 1120.23,571.711C1038.23,521.583 928.115,520.903 845.451,569.883C839.821,573.219 839.784,581.376 845.3,584.894C860.741,594.739 874.148,610.365 882.36,625.786C892.807,645.405 900.488,666.639 913.535,684.636C938.177,718.625 979.698,737.267 1021.29,742.972C1031.88,744.424 1042.5,745.132 1053.15,745.277C1053.24,748.628 1053.39,751.985 1053.57,755.348C1055.46,791.667 1061.55,828.486 1054.27,864.008C1054.12,864.657 1054.02,865.306 1053.82,865.955C1051.59,876.246 1048.32,886.245 1044.69,896.149C914.17,880.341 776.355,888.937 658.461,937.281C635.176,946.827 612.663,957.917 591.143,970.719C515.469,1015.64 460.892,1075.13 430.347,1145.28C393,1205.19 356.2,1266.83 339.978,1335.44C326.268,1393.43 329.493,1458.04 357.329,1509.7C351.197,1512.68 345.733,1517.31 341.536,1522.62C328.46,1539.17 329.351,1562.43 333.231,1582.04C336.198,1597.02 341.054,1611.6 343.78,1626.63C346.352,1640.82 346.929,1655.81 342.276,1669.4C341.964,1670.31 342.864,1671.18 343.728,1670.76C354.233,1665.59 362.146,1655.33 364.327,1643.81C366.439,1651.89 365.718,1660.68 362.371,1668.32C361.992,1669.19 362.762,1670.13 363.665,1669.85C371.991,1667.27 379.894,1663.25 386.637,1657.73C397.194,1649.1 403.863,1636.87 407.33,1623.82C410.267,1612.76 411.231,1601.29 412.344,1589.95C414.94,1563.5 414.023,1522.11 385.812,1509.44C387.522,1484.07 382.465,1459.29 380.645,1431.31C377.587,1384.3 386.744,1335.36 401.878,1287.55C401.925,1301.89 402.796,1316.5 404.475,1331.31C408.839,1370.29 420.838,1439.9 463.476,1496.14C444.08,1596.52 479.629,1698.22 534.958,1789.24C536.762,1792.21 537.291,1793.33 539.054,1796.82C538.849,1818.25 538.644,1839.67 538.439,1861.1C538.397,1865.56 538.46,1870.35 541.159,1873.97C544.089,1877.89 549.334,1879.38 554.217,1880.46C575.475,1885.17 597.427,1886.94 619.198,1885.69C623.788,1884.72 624.252,1874.28 624.98,1867.15C626.108,1874.98 627.732,1886.08 632.141,1885.8C654.778,1886.29 678.474,1883.82 700.357,1878.21C704.069,1862.45 702.909,1847.83 698.015,1830.02C695.012,1819.09 687.954,1806.95 683.917,1795.91C663.106,1751.55 674.673,1700.61 686.038,1652.9C687.972,1654.63 689.963,1656.3 692.008,1657.9C693.538,1665.61 695.51,1673.24 697.86,1680.78C695.943,1688.03 695.443,1695.65 696.542,1703.07C697.355,1708.57 699.09,1714.11 702.763,1718.28C705.945,1721.89 710.817,1724.24 715.533,1723.81C716.815,1726.34 718.129,1728.86 719.471,1731.35C733.294,1757.05 750.993,1781.78 775.992,1796.77L776.009,1796.77C775.803,1818.22 775.599,1839.66 775.394,1861.1C775.351,1865.56 775.414,1870.35 778.114,1873.97C781.043,1877.89 786.289,1879.38 791.171,1880.46C812.429,1885.17 834.381,1886.94 856.152,1885.69C860.742,1884.72 861.206,1874.28 861.934,1867.15C863.062,1874.98 864.687,1886.08 869.095,1885.8C891.732,1886.29 915.428,1883.82 937.311,1878.21C941.023,1862.45 939.863,1847.83 934.969,1830.02C931.966,1819.09 924.908,1806.95 920.871,1795.91C895.812,1753.46 915.395,1691.84 925.292,1645.38C929.136,1627.34 934.796,1609.56 941.084,1591.86C954.915,1592.02 968.789,1591.94 982.676,1591.59C980.883,1600.6 979.907,1609.78 979.753,1618.91C979.086,1658.22 992.229,1696.73 1010.86,1731.35C1024.68,1757.05 1042.38,1781.78 1067.38,1796.77L1067.4,1796.77C1067.19,1818.22 1066.99,1839.66 1066.78,1861.1C1066.74,1865.56 1066.8,1870.35 1069.5,1873.97C1072.43,1877.89 1077.68,1879.38 1082.56,1880.46C1103.82,1885.17 1125.77,1886.94 1147.54,1885.69C1152.13,1884.72 1152.59,1874.28 1153.32,1867.15C1154.45,1874.98 1156.07,1886.08 1160.48,1885.8C1183.12,1886.29 1206.82,1883.82 1228.7,1878.21C1232.41,1862.45 1231.25,1847.83 1226.36,1830.02C1223.35,1819.09 1216.3,1806.95 1212.26,1795.91C1187.2,1753.46 1206.78,1691.84 1216.68,1645.38C1223.85,1611.71 1237.35,1578.96 1249.46,1545.93C1250.57,1545.53 1251.68,1545.13 1252.78,1544.73C1239.13,1566.62 1232.06,1592.95 1231.62,1618.91C1230.95,1658.22 1244.1,1696.73 1262.72,1731.35C1276.55,1757.05 1294.25,1781.78 1319.25,1796.77L1319.26,1796.77C1319.06,1818.22 1318.85,1839.66 1318.65,1861.1C1318.6,1865.56 1318.67,1870.35 1321.37,1873.97C1324.3,1877.89 1329.54,1879.38 1334.42,1880.46C1355.68,1885.17 1377.63,1886.94 1399.41,1885.69C1404,1884.72 1404.46,1874.28 1405.19,1867.15C1406.32,1874.98 1407.94,1886.08 1412.35,1885.8C1434.99,1886.29 1458.68,1883.82 1480.56,1878.21C1484.28,1862.45 1483.12,1847.83 1478.22,1830.02C1475.22,1819.09 1468.16,1806.95 1464.12,1795.91C1440.11,1755.22 1456.61,1706.71 1464.39,1663.97C1472.76,1618.1 1491.17,1574.45 1499.16,1527.84C1509.65,1466.64 1510.43,1403.51 1501.08,1342.05C1524.56,1295.04 1536.88,1243.9 1535.64,1194.06C1548.35,1173.08 1558.05,1149.42 1559.08,1126.56C1559.35,1120.54 1559.19,1114.49 1558.64,1108.48C1568.17,1056.64 1557.67,1002.19 1559.31,947.326C1561.31,879.399 1584.21,813.269 1579.33,745.267C1589.75,745.102 1600.16,744.394 1610.52,742.972C1652.11,737.267 1693.63,718.625 1718.28,684.636C1731.32,666.639 1739,645.405 1749.45,625.786C1757.66,610.365 1771.07,594.739 1786.51,584.894C1792.03,581.376 1791.99,573.219 1786.36,569.883Z" style="fill:rgb(246,232,203);fill-rule:nonzero;"></path>
        <path d="M1516.29,568.906C1516.93,568.531 1517.58,568.159 1518.22,567.791C1549.65,501.337 1557.2,456.755 1555.78,413.971C1553.68,350.384 1526.98,278.566 1501.57,239.617C1496.29,231.529 1482.41,235.454 1481.25,244.837C1470.38,332.607 1462.99,426.871 1399.41,518.052C1398.35,518.045 1397.29,518.041 1396.24,518.042C1380.69,518.054 1367.99,517.959 1353.46,512.247C1339.09,506.598 1323.22,503.345 1307.85,501.971C1283.39,499.785 1258.99,502.822 1235.03,507.737C1177.84,419.78 1170.6,329.3 1160.15,244.837C1158.99,235.454 1145.1,231.529 1139.83,239.617C1114.42,278.566 1087.72,350.384 1085.61,413.971C1084.19,456.793 1091.75,501.416 1123.25,567.968C1122.23,569.198 1121.22,570.444 1120.23,571.711C1117.73,574.899 1115.34,578.206 1113.07,581.63C1090.47,590.955 1085.82,613.05 1090.8,634.284C1094.71,650.968 1104.55,667.122 1116.29,676.132C1133.38,689.245 1156.73,693.777 1177.48,688.006C1183.6,686.304 1190.24,683.785 1196.04,686.378C1203.04,689.508 1205.04,698.229 1208.72,704.957C1213.31,713.354 1221.99,719.149 1231.28,721.048C1237.57,722.332 1237.39,720.908 1241.78,718.466C1245.79,716.238 1249.29,714.491 1254,716.404C1259.41,718.602 1262.95,723.837 1265.43,729.125C1267.91,734.413 1269.69,740.103 1273.15,744.806C1278.07,751.491 1286.17,755.565 1294.45,756.12C1302.73,756.673 1311.09,753.854 1317.72,748.873C1324.69,743.643 1329.79,736.221 1336.8,731.042C1351.71,720.027 1371.92,721.1 1390.46,721.001C1399.89,720.951 1410.21,720.11 1417.04,713.6C1423.43,707.498 1425.02,698.093 1427.19,689.522C1429.36,680.952 1433.38,671.609 1441.72,668.649C1453.23,664.559 1464.56,674.924 1476.58,677.117C1484.6,678.578 1493.23,676.102 1499.25,670.617C1504.41,665.914 1508.6,658.013 1507.61,650.882C1506.65,643.862 1504.42,639.771 1507.75,632.178C1509.96,627.144 1513.89,623.088 1516.8,618.425L1516.83,618.381C1525.82,603.94 1527.61,582.549 1517.12,569.875L1516.29,568.906Z" style="fill:rgb(117,51,21);fill-rule:nonzero;"></path>
        <path d="M1511.89,563.142C1512.94,565.365 1514.68,567.104 1516.28,568.907C1516.93,568.531 1517.58,568.16 1518.22,567.791C1549.65,501.338 1557.2,456.755 1555.78,413.971C1553.68,350.385 1526.98,278.566 1501.57,239.617C1496.29,231.53 1482.41,235.454 1481.25,244.837C1470.38,332.607 1462.99,426.871 1399.41,518.053C1428.71,518.269 1461.96,521.929 1486.89,536.726C1497.84,543.229 1505.73,550.086 1511.89,563.142Z" style="fill:rgb(142,93,58);fill-rule:nonzero;"></path>
        <path d="M1218.05,511.51C1223.68,510.176 1229.34,508.904 1235.03,507.737C1177.84,419.78 1170.6,329.301 1160.15,244.837C1158.99,235.454 1145.1,231.53 1139.83,239.617C1114.42,278.566 1087.72,350.385 1085.61,413.971C1084.19,456.793 1091.75,501.417 1123.25,567.968C1147.36,539.042 1180.67,520.36 1218.05,511.51Z" style="fill:rgb(142,93,58);fill-rule:nonzero;"></path>
        <path d="M1735.29,603.92C1685.87,574.638 1619.56,575.919 1571.56,607.63C1569.92,608.715 1568.28,610.906 1566.29,615.295C1566.29,615.295 1556.38,640.131 1557.75,668.949C1563.54,679.519 1568.27,690.705 1571.8,702.391C1592.21,705.282 1612.83,707.222 1633.18,704.43C1657.33,701.117 1681.45,690.292 1695.75,670.555C1703.33,660.105 1707.79,647.774 1713.86,636.381C1718.63,627.427 1726.41,618.353 1735.38,612.636C1738.58,610.594 1738.56,605.856 1735.29,603.92Z" style="fill:rgb(228,152,154);fill-rule:nonzero;"></path>
        <path d="M1060.25,607.63C1012.25,575.919 945.939,574.638 896.521,603.92C893.253,605.856 893.231,610.594 896.434,612.636C905.4,618.353 913.185,627.427 917.954,636.381C924.02,647.774 928.481,660.105 936.056,670.555C950.366,690.292 974.476,701.117 998.629,704.43C1017.56,707.025 1036.71,705.531 1055.71,702.985C1056.98,695.799 1058.78,688.67 1061.25,681.61C1064.44,672.468 1068.75,663.83 1073.95,655.724C1072.56,632.93 1065.52,615.295 1065.52,615.295C1063.53,610.906 1061.89,608.715 1060.25,607.63Z" style="fill:rgb(228,152,154);fill-rule:nonzero;"></path>
        <path d="M1511.89,563.141C1512.94,565.365 1514.68,567.104 1516.29,568.907C1516.93,568.532 1517.58,568.159 1518.22,567.791C1518.73,566.712 1519.24,565.638 1519.74,564.57C1520.31,563.338 1520.88,562.114 1521.44,560.897C1522.27,559.071 1523.09,557.262 1523.89,555.47C1525.23,552.482 1526.51,549.54 1527.74,546.641C1527.99,546.061 1528.24,545.483 1528.48,544.906C1528.97,543.754 1529.44,542.608 1529.92,541.468C1530.62,539.76 1531.31,538.066 1531.98,536.387C1532.88,534.148 1533.74,531.935 1534.58,529.747C1535,528.654 1535.41,527.566 1535.81,526.484C1536.01,525.943 1536.21,525.404 1536.41,524.866C1536.81,523.791 1537.2,522.721 1537.58,521.658C1538.15,520.063 1538.71,518.481 1539.25,516.911C1539.62,515.865 1539.97,514.825 1540.32,513.79C1540.67,512.756 1541.01,511.726 1541.34,510.703C1541.51,510.191 1541.67,509.68 1541.84,509.171C1542.65,506.625 1543.43,504.113 1544.17,501.633C1544.46,500.64 1544.75,499.653 1545.03,498.671C1545.31,497.689 1545.59,496.711 1545.86,495.739C1546.26,494.28 1546.65,492.832 1547.03,491.395C1547.15,490.915 1547.28,490.437 1547.4,489.96C1547.64,489.006 1547.88,488.056 1548.11,487.112C1548.23,486.639 1548.34,486.168 1548.46,485.698C1548.68,484.757 1548.9,483.821 1549.12,482.889C1549.44,481.491 1549.75,480.102 1550.05,478.722C1550.34,477.342 1550.63,475.972 1550.9,474.61C1550.99,474.156 1551.08,473.703 1551.17,473.25C1551.52,471.442 1551.85,469.648 1552.16,467.868L1552.38,466.536C1552.53,465.65 1552.68,464.767 1552.82,463.887C1553.02,462.567 1553.22,461.255 1553.4,459.95C1553.65,458.209 1553.88,456.481 1554.09,454.764C1554.16,454.12 1554.24,453.478 1554.31,452.837C1554.53,450.915 1554.73,449.006 1554.9,447.11C1554.97,446.267 1555.04,445.427 1555.11,444.589C1555.18,443.75 1555.24,442.915 1555.3,442.081C1555.45,439.997 1555.57,437.926 1555.66,435.867C1555.74,434.219 1555.8,432.579 1555.84,430.945C1555.91,428.494 1555.94,426.057 1555.94,423.63L1555.94,423.628C1555.94,422.42 1555.94,421.214 1555.92,420.011C1555.91,418.807 1555.88,417.606 1555.85,416.406L1555.85,416.346C1555.83,415.553 1555.81,414.762 1555.78,413.971C1555.76,413.418 1555.74,412.864 1555.72,412.309L1555.71,412.047C1555.69,411.584 1555.67,411.122 1555.65,410.659L1555.63,410.251L1555.57,409.06L1555.54,408.531L1555.47,407.323L1555.45,406.922C1555.42,406.458 1555.39,405.993 1555.36,405.528L1555.35,405.291C1555.28,404.242 1555.2,403.19 1555.12,402.136L1555.11,402.028C1555.03,400.998 1554.94,399.966 1554.85,398.932L1554.84,398.845C1551.95,366.763 1543.49,333.464 1532.65,303.941C1541.82,333.647 1547.34,364.349 1547.1,395.613C1546.88,423.256 1543.96,453.166 1529.25,477.278C1522.14,488.938 1512.01,498.736 1499.78,504.916C1483.22,513.289 1465.17,514.161 1447.2,510.639C1434.53,508.156 1422.23,504.684 1409.68,502.547L1409.65,502.542C1406.4,507.721 1402.98,512.891 1399.39,518.052C1428.69,518.267 1461.95,521.925 1486.89,536.726C1497.84,543.229 1505.73,550.086 1511.89,563.141Z" style="fill:rgb(126,81,47);fill-rule:nonzero;"></path>
        <path d="M1218.05,511.51C1223.69,510.174 1229.36,508.9 1235.06,507.731C1233.94,506.002 1232.83,504.272 1231.75,502.542L1231.72,502.547C1219.17,504.684 1206.86,508.156 1194.19,510.639C1176.22,514.161 1158.18,513.289 1141.61,504.916C1129.39,498.736 1119.26,488.938 1112.14,477.278C1097.43,453.166 1094.51,423.256 1094.3,395.613C1094.05,364.349 1099.57,333.647 1108.74,303.941C1097.91,333.445 1089.45,366.719 1086.56,398.783L1086.55,398.874C1086.46,399.906 1086.37,400.937 1086.29,401.967L1086.28,402.075C1086.2,403.128 1086.12,404.179 1086.05,405.228L1086.02,405.702L1085.95,406.842L1085.91,407.44L1085.86,408.435L1085.82,409.144L1085.77,410.1L1085.74,410.725L1085.69,411.831L1085.67,412.366C1085.65,412.893 1085.63,413.42 1085.61,413.945L1085.61,413.971C1085.51,417.178 1085.45,420.395 1085.45,423.63C1085.45,426.057 1085.48,428.494 1085.55,430.945C1085.57,431.762 1085.6,432.58 1085.63,433.401C1085.66,434.221 1085.69,435.043 1085.73,435.867C1085.77,436.69 1085.81,437.516 1085.86,438.344C1085.93,439.585 1086,440.83 1086.09,442.081C1086.21,443.748 1086.35,445.425 1086.5,447.11C1086.61,448.374 1086.74,449.644 1086.87,450.92C1086.96,451.77 1087.06,452.623 1087.16,453.478C1087.3,454.762 1087.46,456.051 1087.64,457.348C1087.75,458.213 1087.87,459.08 1087.99,459.95C1088.36,462.56 1088.78,465.199 1089.24,467.868C1089.39,468.758 1089.55,469.652 1089.72,470.549C1089.88,471.446 1090.05,472.346 1090.23,473.25C1090.32,473.703 1090.4,474.156 1090.49,474.61C1090.68,475.518 1090.86,476.429 1091.05,477.345C1091.44,479.177 1091.85,481.025 1092.28,482.889C1092.49,483.821 1092.71,484.757 1092.94,485.698C1093.39,487.579 1093.87,489.477 1094.37,491.395C1094.62,492.352 1094.88,493.316 1095.14,494.284C1095.27,494.767 1095.4,495.253 1095.54,495.739C1095.81,496.711 1096.08,497.689 1096.36,498.671C1096.79,500.144 1097.22,501.629 1097.68,503.125C1098.13,504.621 1098.59,506.128 1099.07,507.647C1101,513.725 1103.16,519.995 1105.58,526.484C1105.99,527.566 1106.4,528.654 1106.81,529.747C1111.38,541.686 1116.82,554.37 1123.25,567.968C1147.36,539.042 1180.67,520.359 1218.05,511.51Z" style="fill:rgb(126,81,47);fill-rule:nonzero;"></path>
        <path d="M1557.77,668.986C1562.44,677.51 1566.42,686.435 1569.63,695.699C1572.57,696.323 1575.62,696.536 1578.79,696.243C1595.12,694.73 1610.93,689.024 1625.92,682.637C1640.26,676.528 1654.44,668.548 1664.38,656.243C1674.66,643.515 1677.67,624.75 1691.67,615.261C1698.86,610.38 1707.16,607.97 1715.19,604.875C1718.79,603.487 1722.58,601.958 1725.65,599.574L1726.28,599.026C1693.89,582.844 1655.62,578.827 1620.31,586.949L1620.06,587.006C1619.53,587.129 1619,587.255 1618.47,587.383L1618,587.497C1617.51,587.617 1617.03,587.741 1616.54,587.865L1615.97,588.012C1615.51,588.131 1615.05,588.253 1614.59,588.377L1613.92,588.56L1612.65,588.915L1611.87,589.14L1610.67,589.49L1609.84,589.742L1608.69,590.096L1607.84,590.367L1606.71,590.729L1605.74,591.054L1604.77,591.381L1603.59,591.793L1602.79,592.073C1602.14,592.307 1601.48,592.545 1600.84,592.788L1600.82,592.795C1600.04,593.083 1599.27,593.379 1598.51,593.68L1598.42,593.716C1597.65,594.017 1596.89,594.324 1596.13,594.638L1596.11,594.646C1595.34,594.964 1594.57,595.288 1593.8,595.619L1593.77,595.634C1591.47,596.628 1589.2,597.678 1586.96,598.788L1586.89,598.823C1586.18,599.177 1585.47,599.537 1584.76,599.902L1584.6,599.986C1583.91,600.343 1583.22,600.705 1582.54,601.073L1582.33,601.187C1581.65,601.551 1580.98,601.921 1580.31,602.297L1580.1,602.417C1579.43,602.794 1578.76,603.177 1578.1,603.565L1577.89,603.686C1577.23,604.077 1576.56,604.474 1575.9,604.878L1575.73,604.979C1575.06,605.391 1574.39,605.809 1573.72,606.232L1573.61,606.301L1572.58,606.961L1571.56,607.63L1570.79,608.224L1570.48,608.513L1570.17,608.832L1569.86,609.185L1569.54,609.573C1569.22,609.979 1568.9,610.439 1568.57,610.961L1568.24,611.503L1567.9,612.089L1567.55,612.718L1567.38,613.051C1567.03,613.726 1566.67,614.471 1566.29,615.294L1566.25,615.403L1566.24,615.422L1566.2,615.543C1565.18,618.195 1556.47,641.826 1557.77,668.986Z" style="fill:rgb(229,140,142);fill-rule:nonzero;"></path>
        <path d="M1065.57,615.422L1065.56,615.403L1065.52,615.294C1065.14,614.471 1064.78,613.726 1064.43,613.051L1064.26,612.718L1063.91,612.089L1063.58,611.503L1063.24,610.961C1062.91,610.439 1062.59,609.979 1062.27,609.573L1061.96,609.185L1061.64,608.832L1061.33,608.513L1061.02,608.224L1060.25,607.63L1059.23,606.961L1058.2,606.301L1058.09,606.232C1057.42,605.809 1056.75,605.391 1056.08,604.979L1055.91,604.878C1055.25,604.474 1054.59,604.077 1053.92,603.686L1053.71,603.565C1053.05,603.177 1052.38,602.794 1051.71,602.417L1051.5,602.297C1050.83,601.921 1050.16,601.551 1049.48,601.187L1049.27,601.073C1048.59,600.705 1047.9,600.343 1047.22,599.986L1047.05,599.902C1046.34,599.537 1045.63,599.177 1044.92,598.823L1044.85,598.788C1042.61,597.678 1040.34,596.628 1038.04,595.634L1038.01,595.619C1037.24,595.288 1036.47,594.964 1035.7,594.646L1035.68,594.638C1034.92,594.324 1034.16,594.017 1033.39,593.716L1033.3,593.68C1032.54,593.379 1031.77,593.083 1031,592.795L1030.98,592.788C1030.33,592.545 1029.67,592.307 1029.02,592.073L1028.22,591.793L1027.04,591.381L1026.07,591.054L1025.1,590.729L1023.98,590.367L1023.12,590.096L1021.97,589.742L1021.14,589.49L1019.94,589.14L1019.16,588.915L1017.89,588.56L1017.22,588.377C1016.76,588.253 1016.3,588.131 1015.84,588.012L1015.27,587.865C1014.79,587.741 1014.3,587.617 1013.81,587.497L1013.34,587.383C1012.81,587.255 1012.28,587.129 1011.75,587.006L1011.5,586.949C976.189,578.827 937.916,582.844 905.535,599.026L906.165,599.574C909.234,601.958 913.02,603.487 916.619,604.875C924.646,607.97 932.947,610.38 940.143,615.261C954.137,624.75 957.154,643.515 967.434,656.243C977.374,668.548 991.55,676.528 1005.89,682.637C1020.88,689.024 1036.69,694.73 1053.02,696.243C1054.38,696.369 1055.72,696.401 1057.04,696.348C1058.15,691.405 1059.54,686.491 1061.25,681.61C1064.44,672.476 1068.74,663.846 1073.94,655.746C1072.65,634.513 1066.46,617.751 1065.61,615.543L1065.57,615.422Z" style="fill:rgb(229,140,142);fill-rule:nonzero;"></path>
        <path d="M1180,577.542C1186.38,581.723 1195.98,574.832 1202.19,579.246C1205.35,581.491 1206.18,585.76 1206.64,589.609C1208.19,602.581 1201.68,630.953 1215.45,638.458C1227.02,644.759 1237.97,631.888 1249.6,633.188C1258.32,634.163 1264.41,642.517 1267.11,650.871C1269.8,659.225 1270.27,668.245 1273.68,676.334C1278.48,687.714 1292.11,695.941 1302.36,685.471C1312.3,675.308 1314.45,643.883 1334.53,649.048C1341.01,650.714 1344.7,657.42 1350.16,661.299C1360.9,668.936 1375.21,662.79 1381.88,652.789C1388,643.609 1389.74,632.317 1392.66,621.677C1394.46,615.121 1399.26,607.231 1405.83,609.003C1412.81,610.888 1414.32,622.516 1421.54,622.889C1432.36,623.448 1430.16,605.04 1440.33,603.891C1443.97,603.48 1447.34,606.071 1449.34,609.139C1452.96,614.67 1454.11,624.381 1462.03,625.55C1467.9,626.411 1472.12,621.551 1474.28,616.665C1475.8,613.22 1476.74,609.51 1478.62,606.243C1484.07,596.737 1496.17,595.076 1501.29,583.738C1512.78,558.321 1494.44,543.515 1472.54,537.05C1455.5,532.017 1432.9,539.394 1415.81,541.432C1392.95,544.159 1367.42,541.474 1347.43,530.039C1311.83,509.67 1263.13,500.552 1225.36,515.434C1205.83,523.128 1189.23,537.236 1178.87,559.521C1177.48,562.508 1176.21,565.642 1176.1,568.934C1175.99,572.225 1177.25,575.736 1180,577.542Z" style="fill:rgb(144,65,30);fill-rule:nonzero;"></path>
        <path d="M941.084,1591.86C929.885,1591.72 918.716,1591.43 907.592,1590.98C899.319,1590.65 890.556,1590.44 881.393,1590.32C881.122,1591.53 880.831,1592.74 880.523,1593.93C880.831,1592.74 881.122,1591.53 881.393,1590.32C828.859,1589.64 763.147,1591.79 700.735,1589.12C696.089,1610.05 691.27,1630.94 686.3,1651.79L686.038,1652.9C687.972,1654.63 689.963,1656.29 692.008,1657.9C693.538,1665.61 695.51,1673.24 697.86,1680.78C695.943,1688.03 695.443,1695.65 696.543,1703.07C697.355,1708.57 699.09,1714.11 702.763,1718.28C705.945,1721.89 710.817,1724.24 715.533,1723.81C716.815,1726.34 718.129,1728.86 719.471,1731.36C733.294,1757.05 750.993,1781.78 775.993,1796.77L776.009,1796.77C775.804,1818.22 775.599,1839.66 775.394,1861.1C775.351,1865.56 775.414,1870.35 778.114,1873.97C781.043,1877.89 786.289,1879.38 791.171,1880.46C812.429,1885.17 834.381,1886.94 856.152,1885.69C860.742,1884.72 861.206,1874.28 861.934,1867.15C863.062,1874.98 864.687,1886.08 869.095,1885.8C891.732,1886.29 915.428,1883.82 937.311,1878.21C941.023,1862.45 939.863,1847.83 934.969,1830.02C931.966,1819.09 924.908,1806.95 920.871,1795.91C895.812,1753.46 915.395,1691.84 925.292,1645.38C929.136,1627.34 934.796,1609.56 941.084,1591.86Z" style="fill:rgb(218,200,168);fill-rule:nonzero;"></path>
        <path d="M1499.16,1527.84C1509.65,1466.64 1510.43,1403.51 1501.08,1342.05C1479.27,1385.72 1447.84,1425.82 1408.72,1458C1363.03,1495.55 1310.03,1523.96 1252.79,1544.73C1239.13,1566.62 1232.06,1592.95 1231.62,1618.91C1230.95,1658.22 1244.1,1696.73 1262.72,1731.36C1276.55,1757.05 1294.25,1781.78 1319.25,1796.77L1319.26,1796.77C1319.06,1818.22 1318.85,1839.66 1318.65,1861.1C1318.6,1865.56 1318.67,1870.35 1321.37,1873.97C1324.3,1877.89 1329.54,1879.38 1334.42,1880.46C1355.68,1885.17 1377.63,1886.94 1399.41,1885.69C1404,1884.72 1404.46,1874.28 1405.19,1867.15C1406.32,1874.98 1407.94,1886.08 1412.35,1885.8C1434.99,1886.29 1458.68,1883.82 1480.56,1878.21C1484.28,1862.45 1483.12,1847.83 1478.22,1830.02C1475.22,1819.09 1468.16,1806.95 1464.12,1795.91C1440.11,1755.22 1456.61,1706.71 1464.39,1663.97C1472.76,1618.1 1491.17,1574.45 1499.16,1527.84Z" style="fill:rgb(218,200,168);fill-rule:nonzero;"></path>
        <path d="M1135,860.475C1109.59,860.475 1088.99,873.221 1088.99,888.945C1088.99,904.668 1109.59,917.415 1135,917.415C1160.41,917.415 1181.01,904.668 1181.01,888.945C1181.01,873.221 1160.41,860.475 1135,860.475Z" style="fill:rgb(240,160,164);fill-rule:nonzero;"></path>
        <path d="M1480.39,860.475C1454.98,860.475 1434.38,873.221 1434.38,888.945C1434.38,904.668 1454.98,917.415 1480.39,917.415C1505.81,917.415 1526.41,904.668 1526.41,888.945C1526.41,873.221 1505.81,860.475 1480.39,860.475Z" style="fill:rgb(240,160,164);fill-rule:nonzero;"></path>
        <path d="M730.048,1704.74C731.638,1696.03 732.113,1687.12 731.471,1678.29C737.92,1680.2 744.597,1681.58 751.452,1682.37C748.38,1693.25 747.077,1704.61 747.618,1715.9C747.995,1723.76 750.186,1732.87 757.397,1736.03C762.482,1738.26 768.682,1736.57 772.874,1732.92C777.064,1729.28 779.518,1724.01 781.051,1718.68C784.457,1706.81 783.651,1693.84 779.087,1682.39C784.614,1681.75 790.027,1680.73 795.297,1679.37C795.482,1690.17 797.346,1700.95 800.812,1711.19C803.336,1718.65 807.945,1726.8 815.748,1727.86C821.251,1728.61 826.746,1725.28 829.775,1720.62C832.802,1715.97 833.714,1710.23 833.72,1704.68C833.735,1691.91 829.092,1679.24 821.071,1669.33C851.268,1653.28 873.724,1624.59 881.393,1590.32C828.859,1589.64 763.147,1591.79 700.735,1589.12C696.088,1610.05 691.27,1630.94 686.3,1651.79L686.038,1652.9C687.972,1654.63 689.963,1656.3 692.008,1657.9C695.82,1660.89 699.819,1663.65 703.984,1666.16C701.276,1670.71 699.214,1675.65 697.86,1680.78C695.943,1688.03 695.443,1695.65 696.542,1703.07C697.355,1708.57 699.09,1714.11 702.763,1718.28C705.945,1721.89 710.817,1724.24 715.533,1723.81C716.258,1723.74 716.981,1723.61 717.693,1723.4C725.258,1721.22 728.634,1712.49 730.048,1704.74Z" style="fill:rgb(240,160,164);fill-rule:nonzero;"></path>
        <path d="M367.884,1506.45C364.23,1506.93 360.68,1508.07 357.329,1509.7C351.197,1512.68 345.733,1517.31 341.536,1522.62C328.46,1539.17 329.35,1562.43 333.231,1582.04C336.198,1597.02 341.054,1611.6 343.78,1626.63C346.352,1640.82 346.929,1655.81 342.275,1669.4C341.964,1670.31 342.865,1671.18 343.728,1670.76C354.233,1665.59 362.146,1655.33 364.327,1643.81C366.439,1651.89 365.718,1660.68 362.371,1668.32C361.992,1669.19 362.762,1670.13 363.665,1669.85C371.992,1667.27 379.894,1663.25 386.637,1657.73C397.194,1649.1 403.863,1636.87 407.33,1623.82C410.267,1612.77 411.231,1601.29 412.345,1589.95C414.939,1563.5 414.023,1522.11 385.812,1509.44C383.522,1508.42 381.054,1507.58 378.391,1506.95C374.851,1506.12 371.322,1505.99 367.884,1506.45Z" style="fill:rgb(142,93,58);fill-rule:nonzero;"></path>
        <path d="M1318.65,1861.1C1318.6,1865.56 1318.67,1870.35 1321.37,1873.97C1324.3,1877.89 1329.54,1879.38 1334.42,1880.46C1355.68,1885.17 1377.63,1886.94 1399.41,1885.69C1404,1884.72 1404.46,1874.28 1405.19,1867.15C1406.32,1874.98 1407.94,1886.08 1412.35,1885.8C1434.99,1886.29 1458.68,1883.82 1480.56,1878.21C1484.28,1862.45 1483.12,1847.83 1478.22,1830.02C1475.22,1819.09 1468.16,1806.95 1464.12,1795.91L1319.26,1796.77C1319.06,1818.22 1318.85,1839.66 1318.65,1861.1Z" style="fill:rgb(117,51,21);fill-rule:nonzero;"></path>
        <path d="M1066.78,1861.1C1066.74,1865.56 1066.8,1870.35 1069.5,1873.97C1072.43,1877.89 1077.68,1879.38 1082.56,1880.46C1103.82,1885.17 1125.77,1886.94 1147.54,1885.69C1152.13,1884.72 1152.59,1874.28 1153.32,1867.15C1154.45,1874.98 1156.07,1886.08 1160.48,1885.8C1183.12,1886.29 1206.82,1883.82 1228.7,1878.21C1232.41,1862.45 1231.25,1847.83 1226.36,1830.02C1223.35,1819.09 1216.3,1806.95 1212.26,1795.91L1067.4,1796.77C1067.19,1818.22 1066.99,1839.66 1066.78,1861.1Z" style="fill:rgb(117,51,21);fill-rule:nonzero;"></path>
        <path d="M775.394,1861.1C775.351,1865.56 775.414,1870.35 778.114,1873.97C781.043,1877.89 786.289,1879.38 791.171,1880.46C812.429,1885.17 834.381,1886.94 856.152,1885.69C860.742,1884.72 861.206,1874.28 861.934,1867.15C863.062,1874.98 864.687,1886.08 869.095,1885.8C891.732,1886.29 915.428,1883.82 937.311,1878.21C941.023,1862.45 939.863,1847.83 934.969,1830.02C931.966,1819.09 924.908,1806.95 920.871,1795.91L776.009,1796.77C775.804,1818.22 775.599,1839.66 775.394,1861.1Z" style="fill:rgb(117,51,21);fill-rule:nonzero;"></path>
        <path d="M1558.64,1108.48C1556.05,1080.74 1544.77,1053.73 1526.01,1033.06C1496.05,1000.03 1448.13,984.395 1404.45,993.404C1376.12,999.248 1350.19,1014.51 1321.54,1018.58C1294.06,1022.48 1266.18,1015.75 1239.84,1007.01C1221.01,1000.76 1202.45,993.433 1183.42,988.01C1175.81,985.841 1168.12,983.978 1160.31,982.61C1109.45,973.7 1057.02,996.371 1037.32,1046.18C1032.85,1057.47 1030.26,1069.42 1029.3,1081.58C1026.83,1112.92 1035.17,1145.69 1050.17,1172.43C1050.66,1173.3 1050.95,1173.81 1051.44,1174.66L1051.46,1174.69C1073.06,1225.16 1112.08,1268.28 1160.58,1294.22C1206.66,1318.87 1259.88,1328.32 1312.12,1326.9C1362.42,1325.53 1412.43,1314.32 1458.5,1294.1C1480.56,1284.42 1501.93,1272.54 1519.64,1256.22C1523.6,1252.58 1527.41,1248.65 1529.97,1243.92C1532.36,1239.52 1533.55,1234.64 1534.27,1229.66C1534.58,1227.49 1534.8,1225.29 1534.99,1223.12C1535.82,1213.38 1536.08,1203.6 1535.77,1193.84C1548.45,1172.9 1558.05,1149.38 1559.08,1126.56C1559.35,1120.54 1559.19,1114.49 1558.64,1108.48Z" style="fill:rgb(240,160,164);fill-rule:nonzero;"></path>
        <path d="M1533.89,1196.9C1533.17,1198.05 1532.44,1199.2 1531.7,1200.33C1531.18,1201.13 1530.66,1201.92 1530.14,1202.7C1528.59,1205.02 1527.01,1207.3 1525.41,1209.53L1524.59,1210.67C1524.22,1211.19 1523.84,1211.71 1523.46,1212.22C1522.66,1213.3 1521.86,1214.37 1521.06,1215.43C1520.4,1216.3 1519.73,1217.16 1519.07,1218.02L1518.07,1219.29C1517.4,1220.13 1516.73,1220.97 1516.06,1221.79L1515.06,1223.02C1513.55,1224.86 1512.01,1226.68 1510.45,1228.46C1507.85,1231.44 1505.17,1234.34 1502.44,1237.16C1492.81,1247.1 1482.37,1256.1 1471.28,1264.15C1470.23,1264.92 1469.17,1265.67 1468.1,1266.42C1466.5,1267.54 1464.89,1268.64 1463.27,1269.73C1461.64,1270.81 1460,1271.87 1458.36,1272.92C1457.7,1273.33 1457.04,1273.75 1456.37,1274.16C1455.12,1274.94 1453.85,1275.71 1452.58,1276.46C1451.29,1277.24 1449.98,1278 1448.67,1278.75C1448.17,1279.03 1447.67,1279.32 1447.16,1279.6C1446.27,1280.1 1445.38,1280.6 1444.49,1281.09C1443.11,1281.84 1441.73,1282.58 1440.33,1283.31C1438.42,1284.31 1436.49,1285.29 1434.55,1286.25C1433.81,1286.61 1433.07,1286.97 1432.33,1287.32C1431.39,1287.77 1430.45,1288.22 1429.5,1288.66C1428.37,1289.19 1427.24,1289.7 1426.11,1290.21C1424.4,1290.98 1422.69,1291.72 1420.97,1292.45C1420.4,1292.69 1419.83,1292.93 1419.25,1293.17C1418.1,1293.65 1416.95,1294.11 1415.79,1294.57C1414.63,1295.03 1413.47,1295.49 1412.31,1295.93C1409.4,1297.04 1406.47,1298.1 1403.52,1299.11C1402.34,1299.52 1401.16,1299.91 1399.98,1300.3C1398.34,1300.84 1396.7,1301.36 1395.05,1301.86C1393.54,1302.32 1392.04,1302.77 1390.52,1303.21C1388.9,1303.67 1387.26,1304.13 1385.63,1304.57C1384.42,1304.89 1383.21,1305.2 1382,1305.51C1381.4,1305.66 1380.79,1305.82 1380.19,1305.96C1377.76,1306.56 1375.33,1307.13 1372.88,1307.66C1371.66,1307.92 1370.44,1308.18 1369.21,1308.43C1367.88,1308.7 1366.53,1308.96 1365.19,1309.22C1364.08,1309.43 1362.96,1309.63 1361.84,1309.83C1360.61,1310.05 1359.38,1310.25 1358.14,1310.45C1356.83,1310.67 1355.51,1310.87 1354.2,1311.06C1353.04,1311.23 1351.88,1311.4 1350.71,1311.56C1349.47,1311.72 1348.23,1311.88 1346.99,1312.03C1345.75,1312.18 1344.5,1312.33 1343.26,1312.46C1340.14,1312.8 1337.02,1313.08 1333.9,1313.31C1331.4,1313.5 1328.9,1313.65 1326.39,1313.77C1321.39,1314.01 1316.37,1314.12 1311.35,1314.09C1310.1,1314.08 1308.84,1314.07 1307.59,1314.04C1305.71,1314.01 1303.83,1313.95 1301.94,1313.88C1300.95,1313.84 1299.96,1313.8 1298.97,1313.75L1298.14,1313.71C1297.24,1313.66 1296.34,1313.62 1295.44,1313.56L1295.13,1313.55C1294.13,1313.49 1293.12,1313.42 1292.11,1313.35L1291.4,1313.3C1290.55,1313.24 1289.7,1313.17 1288.85,1313.11L1288.27,1313.06C1287.29,1312.98 1286.3,1312.9 1285.32,1312.81L1284.59,1312.74C1283.76,1312.67 1282.93,1312.59 1282.1,1312.5L1281.45,1312.44C1280.46,1312.34 1279.46,1312.23 1278.46,1312.12L1277.87,1312.05C1277.03,1311.96 1276.18,1311.86 1275.33,1311.76L1274.62,1311.67C1273.63,1311.55 1272.63,1311.42 1271.64,1311.29L1271.14,1311.23C1270.27,1311.11 1269.39,1310.99 1268.52,1310.87L1267.84,1310.77C1265.8,1310.48 1263.76,1310.16 1261.72,1309.83L1261.01,1309.72C1258.98,1309.38 1256.95,1309.03 1254.92,1308.66L1254.21,1308.53C1253.31,1308.36 1252.4,1308.19 1251.49,1308.01L1251.16,1307.95C1250.15,1307.75 1249.14,1307.55 1248.12,1307.34L1247.47,1307.21C1246.59,1307.03 1245.71,1306.84 1244.83,1306.65L1244.38,1306.56C1243.35,1306.34 1242.33,1306.11 1241.31,1305.88L1240.84,1305.77C1239.94,1305.57 1239.04,1305.36 1238.15,1305.15L1237.6,1305.02C1236.58,1304.78 1235.56,1304.53 1234.54,1304.28L1234.23,1304.2C1233.29,1303.97 1232.35,1303.73 1231.41,1303.49L1230.89,1303.35C1228.82,1302.82 1226.75,1302.26 1224.69,1301.68L1224.24,1301.56C1222.18,1300.98 1220.12,1300.38 1218.07,1299.76L1217.55,1299.6C1216.55,1299.3 1215.55,1299 1214.56,1298.68L1214.52,1298.67C1213.47,1298.34 1212.43,1298.01 1211.38,1297.67L1211.04,1297.56C1210.04,1297.23 1209.03,1296.9 1208.04,1296.57L1207.93,1296.53C1206.89,1296.18 1205.84,1295.82 1204.8,1295.46L1204.5,1295.36C1203.51,1295.01 1202.52,1294.66 1201.53,1294.31L1201.39,1294.26C1200.34,1293.88 1199.28,1293.49 1198.23,1293.1L1198.1,1293.06C1197.1,1292.68 1196.1,1292.31 1195.1,1291.92L1194.87,1291.84C1192.8,1291.04 1190.74,1290.23 1188.69,1289.4L1188.41,1289.28C1186.36,1288.45 1184.31,1287.59 1182.28,1286.71L1182.05,1286.61C1180.01,1285.73 1177.98,1284.83 1175.96,1283.91L1175.71,1283.8C1173.68,1282.86 1171.65,1281.91 1169.63,1280.94L1169.56,1280.9C1168.79,1280.53 1168.02,1280.15 1167.25,1279.77C1164.95,1278.64 1162.65,1277.47 1160.38,1276.28L1160.36,1276.27C1158.33,1275.21 1156.32,1274.12 1154.32,1273.02L1154.28,1272.99C1152.29,1271.89 1150.32,1270.77 1148.36,1269.63L1148.27,1269.58C1146.3,1268.44 1144.35,1267.27 1142.41,1266.08L1142.39,1266.07C1140.64,1265 1138.9,1263.9 1137.17,1262.79C1136.65,1262.46 1136.14,1262.12 1135.62,1261.79C1133.24,1260.24 1130.88,1258.66 1128.56,1257.05C1126.99,1255.97 1125.44,1254.87 1123.9,1253.76C1122.11,1252.46 1120.33,1251.15 1118.57,1249.81C1117.6,1249.08 1116.65,1248.35 1115.7,1247.61C1114.94,1247.02 1114.18,1246.43 1113.43,1245.83C1112.82,1245.34 1112.21,1244.85 1111.6,1244.36L1111.59,1244.35C1110.77,1243.68 1109.95,1243.02 1109.14,1242.35L1108.29,1241.63C1107.75,1241.18 1107.22,1240.74 1106.69,1240.29L1105.76,1239.5C1105.25,1239.06 1104.75,1238.63 1104.25,1238.19L1103.32,1237.38C1102.79,1236.92 1102.27,1236.46 1101.75,1236L1101.18,1235.49L1101.21,1235.51C1081.65,1218.01 1064.7,1197.7 1051.46,1174.69C1073.06,1225.16 1112.08,1268.28 1160.58,1294.22C1206.66,1318.87 1259.88,1328.32 1312.12,1326.9C1362.42,1325.53 1412.43,1314.32 1458.5,1294.1C1480.56,1284.42 1501.93,1272.54 1519.64,1256.22C1523.6,1252.58 1527.41,1248.65 1529.97,1243.92C1532.36,1239.52 1533.55,1234.64 1534.27,1229.66C1534.58,1227.49 1534.8,1225.29 1534.99,1223.12C1535.82,1213.38 1536.08,1203.6 1535.77,1193.84C1535.45,1194.37 1535.13,1194.9 1534.8,1195.43C1534.5,1195.92 1534.19,1196.41 1533.89,1196.9Z" style="fill:rgb(218,200,168);fill-rule:nonzero;"></path>
        <path d="M539.054,1796.82C538.849,1818.25 538.644,1839.67 538.439,1861.1C538.397,1865.56 538.46,1870.35 541.159,1873.97C544.089,1877.89 549.334,1879.38 554.217,1880.46C575.475,1885.17 597.427,1886.94 619.198,1885.69C623.788,1884.72 624.252,1874.28 624.98,1867.15C626.108,1874.98 627.733,1886.08 632.141,1885.8C654.778,1886.29 678.474,1883.82 700.357,1878.21C704.069,1862.45 702.909,1847.83 698.015,1830.02C695.012,1819.09 687.954,1806.95 683.917,1795.91L679.112,1795.91C636.317,1795.95 580.854,1796.86 539.054,1796.82Z" style="fill:rgb(117,51,21);fill-rule:nonzero;"></path>
        <path d="M850.218,1433.02C851.084,1440.23 849.161,1447.51 849.43,1454.77C849.849,1466.04 855.576,1476.59 863.18,1484.91C876.928,1499.97 900.62,1519.85 922.363,1512.8C938.307,1507.63 951.659,1496.53 967.922,1492C1007.58,1480.95 1040.16,1515.13 1079.06,1513.45C1118.88,1511.73 1152,1490.7 1176.11,1459.89C1181.57,1452.91 1187.54,1445.36 1190.57,1436.9C1192.1,1432.65 1192.18,1428.58 1190.57,1425.56C1185.67,1416.39 1174.71,1409.43 1167.82,1401.19C1156.56,1387.72 1150.89,1372.86 1148.72,1355.52C1146.82,1340.37 1147.95,1324.12 1141.78,1309.83C1133.9,1291.56 1113.17,1280.51 1094.53,1276.77C1073.47,1272.55 1052.42,1278.94 1033.99,1289.05C1024.76,1294.12 1016,1300.03 1007.52,1306.27C999.051,1312.51 991.224,1319.78 982.224,1325.27C967.989,1333.95 952.285,1337.08 935.782,1336.97C906.084,1336.79 867.893,1333.9 850.203,1363.3C842.654,1375.84 836.044,1394.68 841.392,1408.92C844.412,1416.95 849.194,1424.49 850.218,1433.02Z" style="fill:rgb(117,51,21);fill-rule:nonzero;"></path>
        <path d="M767.984,904.392C765.9,932.091 782.623,962.199 810.258,969.851C841.757,978.573 869.659,955.016 899.182,948.822C914.939,945.516 930.772,947.198 944.862,955.331C956.392,961.987 964.751,971.744 972.836,982.114C988.551,1002.27 1002.12,1024.72 1021.64,1041.55C1017.56,1010.23 1018.13,979.165 1025.08,951.816C1029.92,932.747 1037.93,914.61 1044.7,896.135C1032.12,894.617 1019.47,893.324 1006.78,892.272L1006.56,892.253C1005.59,892.173 1004.62,892.093 1003.64,892.016C1002.45,891.92 1001.25,891.826 1000.05,891.734L999.417,891.687C998.026,891.582 996.633,891.479 995.241,891.38L995.188,891.376C918.989,885.953 841.507,889.31 767.984,904.392Z" style="fill:rgb(117,51,21);fill-rule:nonzero;"></path>
        <path d="M1416.4,991.562L1416.4,991.561C1416.97,991.502 1417.55,991.446 1418.13,991.394L1418.35,991.374C1418.9,991.326 1419.45,991.281 1420.01,991.24L1420.28,991.22C1420.82,991.181 1421.37,991.145 1421.91,991.112L1422.22,991.095C1422.75,991.064 1423.29,991.037 1423.83,991.013L1424.14,991C1424.69,990.978 1425.23,990.958 1425.78,990.943L1426.04,990.936C1426.6,990.921 1427.16,990.909 1427.73,990.901L1427.86,990.9L1429.03,990.891C1429.8,990.889 1430.58,990.894 1431.36,990.906C1433.3,990.936 1435.25,991.01 1437.19,991.128L1437.24,991.131C1437.79,991.164 1438.34,991.203 1438.89,991.244L1439.22,991.268C1439.73,991.307 1440.25,991.35 1440.77,991.396L1441.16,991.431C1441.67,991.478 1442.18,991.527 1442.69,991.58L1443.1,991.623C1443.6,991.677 1444.1,991.732 1444.61,991.792L1445.05,991.845C1445.55,991.906 1446.05,991.969 1446.55,992.036L1446.95,992.09C1447.46,992.16 1447.97,992.231 1448.48,992.307L1448.84,992.362C1449.36,992.441 1449.89,992.523 1450.42,992.609L1450.5,992.623C1451.1,992.722 1451.7,992.824 1452.3,992.93C1454.09,993.25 1455.88,993.607 1457.66,994L1457.94,994.06C1458.43,994.171 1458.93,994.286 1459.42,994.403L1459.86,994.504C1460.32,994.615 1460.79,994.729 1461.25,994.845L1461.78,994.979L1463.11,995.324L1463.71,995.485L1464.97,995.831L1465.63,996.019L1466.87,996.378L1467.51,996.569L1468.76,996.951L1469.37,997.146L1470.65,997.558L1471.11,997.711C1472.28,998.1 1473.44,998.505 1474.6,998.925L1475.76,999.351L1476.11,999.481L1477.28,999.93L1477.97,1000.2L1479.07,1000.64L1479.81,1000.94L1480.88,1001.39L1481.65,1001.72L1482.69,1002.16L1483.48,1002.52L1484.49,1002.97L1485.29,1003.34L1486.3,1003.81L1487.1,1004.2L1488.07,1004.67L1488.92,1005.09L1489.17,1005.22C1490.94,998.03 1493.85,990.815 1493.36,983.326C1492.69,973.072 1484.53,964.104 1476.1,959.054C1466.59,953.35 1455.24,952.808 1444.53,954.533C1439.16,955.398 1433.87,956.755 1428.67,958.323C1423.47,959.891 1418.4,962.071 1413.07,963.179C1404.64,964.932 1396.46,963.734 1388.45,960.823C1374.04,955.583 1355.96,947.562 1342.26,958.795C1336.41,963.588 1329.93,971.607 1330.07,979.456C1330.14,983.89 1331.16,988.385 1330.18,992.71C1329.35,996.37 1327.16,999.576 1326.03,1003.16C1324.54,1007.88 1325.01,1013.02 1326.58,1017.75C1353.25,1012.75 1377.79,998.905 1404.45,993.404C1408.41,992.589 1412.39,991.978 1416.4,991.562Z" style="fill:rgb(117,51,21);fill-rule:nonzero;"></path>
        <path d="M1077.66,873.139C1085.15,873.538 1092.38,868.449 1096.77,862.811C1101.76,856.475 1103.16,848.293 1102.91,840.411C1102.76,836.419 1102.26,832.478 1101.56,828.587C1100.91,824.695 1099.77,820.854 1099.47,816.862C1098.97,810.626 1100.56,804.839 1103.36,799.301C1108.45,789.323 1115.88,777 1109,766.074C1106.05,761.434 1100.81,755.996 1095.13,755.398C1091.93,755.048 1088.59,755.398 1085.55,754.3C1082.95,753.402 1080.86,751.506 1078.36,750.359C1074.52,748.613 1069.98,748.762 1065.89,749.91C1062.1,750.957 1057.41,752.704 1053.57,755.348C1055.46,791.668 1061.55,828.487 1054.27,864.009C1054.12,864.657 1054.02,865.306 1053.82,865.955C1056.26,866.254 1058.66,866.853 1061.15,867.751C1066.59,869.646 1071.83,872.789 1077.66,873.139Z" style="fill:rgb(117,51,21);fill-rule:nonzero;"></path>
        <path d="M1234.13,1272.54C1297.49,1283.73 1365.42,1267.82 1413.19,1223.58C1433.05,1205.18 1453.68,1178.83 1458.62,1151.78C1463.51,1125.09 1457.92,1096.4 1442.54,1073.95C1422.34,1044.47 1386,1026.86 1350.35,1029.26C1327.22,1030.82 1304.97,1040.12 1281.79,1040.23C1259.55,1040.34 1238.15,1031.97 1218.18,1022.16C1203.92,1015.16 1189.98,1007.32 1175.46,1000.95C1169.65,998.4 1163.75,996.084 1157.7,994.149C1118.29,981.546 1074.21,993.845 1053.15,1031.25C1036.08,1061.56 1037.13,1101.14 1049.63,1132.87C1079.34,1208.33 1156.23,1258.78 1234.13,1272.54Z" style="fill:rgb(249,185,188);fill-rule:nonzero;"></path>
        <path d="M1558.38,1105.94C1558.2,1104.37 1557.99,1102.79 1557.76,1101.22C1557.6,1100.17 1557.44,1099.12 1557.26,1098.08C1556.53,1093.9 1555.61,1089.76 1554.5,1085.66C1554.22,1084.64 1553.93,1083.62 1553.63,1082.61C1553.03,1080.57 1552.37,1078.56 1551.67,1076.56C1551.32,1075.56 1550.96,1074.56 1550.59,1073.57C1550.03,1072.08 1549.44,1070.6 1548.82,1069.14C1548.62,1068.65 1548.41,1068.16 1548.2,1067.68C1547.15,1065.25 1546.02,1062.85 1544.83,1060.49C1544.35,1059.54 1543.86,1058.61 1543.36,1057.67C1538.59,1048.82 1532.79,1040.52 1526.01,1033.06C1525.56,1032.55 1525.1,1032.06 1524.64,1031.56L1524.31,1031.23L1523.26,1030.13L1522.74,1029.6L1521.87,1028.71L1521.29,1028.14L1520.43,1027.3L1519.82,1026.72L1518.98,1025.93L1518.36,1025.35L1517.49,1024.56L1516.88,1024.01L1515.98,1023.21L1515.36,1022.68L1514.44,1021.89L1513.84,1021.38L1512.86,1020.57L1512.28,1020.11C1511.26,1019.27 1510.21,1018.46 1509.16,1017.66L1508.58,1017.23L1507.56,1016.47L1506.89,1015.98L1505.93,1015.3L1505.23,1014.81L1504.3,1014.16L1503.55,1013.65L1502.65,1013.04L1501.88,1012.54L1500.98,1011.95L1500.19,1011.45L1499.29,1010.89L1498.48,1010.39L1497.57,1009.84L1496.78,1009.37L1495.79,1008.79L1495.05,1008.37L1493.99,1007.78C1493.51,1007.5 1493.01,1007.23 1492.52,1006.97L1491.62,1006.48L1490.7,1006L1489.85,1005.56L1488.92,1005.09L1488.07,1004.67L1487.1,1004.2L1486.3,1003.81L1485.29,1003.34L1484.49,1002.97L1483.48,1002.52L1482.69,1002.16L1481.65,1001.72L1480.88,1001.39L1479.81,1000.94L1479.07,1000.64L1477.97,1000.2L1477.28,999.93L1476.11,999.481L1475.76,999.351L1474.6,998.925C1473.44,998.505 1472.28,998.1 1471.11,997.711L1470.65,997.558L1469.37,997.146L1468.76,996.951L1467.51,996.569L1466.87,996.378L1465.63,996.019L1464.97,995.831L1463.71,995.485L1463.11,995.324L1461.78,994.979L1461.25,994.845C1460.79,994.729 1460.32,994.615 1459.86,994.504L1459.42,994.403C1458.93,994.286 1458.43,994.171 1457.94,994.06L1457.66,994C1455.88,993.607 1454.09,993.25 1452.3,992.93C1451.7,992.824 1451.1,992.722 1450.5,992.623L1450.42,992.609C1449.89,992.523 1449.36,992.441 1448.84,992.362L1448.48,992.307C1447.97,992.231 1447.46,992.16 1446.95,992.09L1446.55,992.036C1446.05,991.969 1445.55,991.906 1445.05,991.845L1444.61,991.792C1444.1,991.732 1443.6,991.677 1443.1,991.623L1442.69,991.58C1442.18,991.527 1441.67,991.478 1441.16,991.431L1440.77,991.396C1440.25,991.35 1439.73,991.307 1439.22,991.268L1438.89,991.244C1438.34,991.203 1437.79,991.164 1437.24,991.131L1437.19,991.128C1435.25,991.01 1433.3,990.936 1431.36,990.906C1430.58,990.894 1429.8,990.889 1429.03,990.891L1427.86,990.9L1427.73,990.901C1427.16,990.909 1426.6,990.921 1426.04,990.936L1425.78,990.943C1425.23,990.958 1424.69,990.978 1424.14,991L1423.83,991.013C1423.29,991.037 1422.75,991.064 1422.22,991.095L1421.91,991.112C1421.37,991.145 1420.82,991.181 1420.28,991.22L1420.01,991.24C1419.45,991.281 1418.9,991.326 1418.35,991.374L1418.13,991.394C1417.55,991.446 1416.97,991.502 1416.4,991.561L1416.4,991.562C1444.98,995.468 1472.3,1009.2 1491.71,1030.6C1513.47,1054.57 1524.67,1087.47 1523.23,1119.72C1521.76,1152.39 1501.71,1186.77 1481.27,1211.65C1432.12,1271.5 1354.64,1301.21 1278.16,1298.25C1215.78,1295.83 1151.31,1274.3 1101.21,1235.51L1101.18,1235.49L1101.75,1236C1102.27,1236.46 1102.79,1236.92 1103.32,1237.38L1104.25,1238.19C1104.75,1238.63 1105.25,1239.06 1105.76,1239.5L1106.69,1240.29C1107.22,1240.74 1107.75,1241.18 1108.29,1241.63L1109.14,1242.35C1109.95,1243.02 1110.77,1243.68 1111.59,1244.35L1111.6,1244.36C1112.21,1244.85 1112.82,1245.34 1113.43,1245.83C1114.18,1246.43 1114.94,1247.02 1115.7,1247.61C1116.65,1248.35 1117.6,1249.08 1118.57,1249.81C1120.33,1251.15 1122.11,1252.46 1123.9,1253.76C1125.44,1254.87 1126.99,1255.97 1128.56,1257.05C1130.88,1258.66 1133.24,1260.24 1135.62,1261.79C1136.14,1262.12 1136.65,1262.46 1137.17,1262.79C1138.9,1263.9 1140.64,1265 1142.39,1266.07L1142.41,1266.08C1144.35,1267.27 1146.3,1268.44 1148.27,1269.58L1148.36,1269.63C1150.32,1270.77 1152.29,1271.89 1154.28,1272.99L1154.32,1273.02C1156.32,1274.12 1158.33,1275.21 1160.36,1276.27L1160.38,1276.28C1162.65,1277.47 1164.95,1278.64 1167.25,1279.77C1168.02,1280.15 1168.79,1280.53 1169.56,1280.9L1169.63,1280.94C1171.65,1281.91 1173.68,1282.86 1175.71,1283.8L1175.96,1283.91C1177.98,1284.83 1180.01,1285.73 1182.05,1286.61L1182.28,1286.71C1184.31,1287.59 1186.36,1288.45 1188.41,1289.28L1188.69,1289.4C1190.74,1290.23 1192.8,1291.04 1194.87,1291.84L1195.1,1291.92C1196.1,1292.31 1197.1,1292.68 1198.1,1293.06L1198.23,1293.1C1199.28,1293.49 1200.34,1293.88 1201.39,1294.26L1201.53,1294.31C1202.52,1294.66 1203.51,1295.01 1204.5,1295.36L1204.8,1295.46C1205.84,1295.82 1206.89,1296.18 1207.93,1296.53L1208.04,1296.57C1209.03,1296.9 1210.04,1297.23 1211.04,1297.56L1211.38,1297.67C1212.43,1298.01 1213.47,1298.34 1214.52,1298.67L1214.56,1298.68C1215.55,1299 1216.55,1299.3 1217.55,1299.6L1218.07,1299.76C1220.12,1300.38 1222.18,1300.98 1224.24,1301.56L1224.69,1301.68C1226.75,1302.26 1228.82,1302.82 1230.89,1303.35L1231.41,1303.49C1232.35,1303.73 1233.29,1303.97 1234.23,1304.2L1234.54,1304.28C1235.56,1304.53 1236.58,1304.78 1237.6,1305.02L1238.15,1305.15C1239.04,1305.36 1239.94,1305.57 1240.84,1305.77L1241.31,1305.88C1242.33,1306.11 1243.35,1306.34 1244.38,1306.56L1244.83,1306.65C1245.71,1306.84 1246.59,1307.03 1247.47,1307.21L1248.12,1307.34C1249.14,1307.55 1250.15,1307.75 1251.16,1307.95L1251.49,1308.01C1252.4,1308.19 1253.31,1308.36 1254.21,1308.53L1254.92,1308.66C1256.95,1309.03 1258.98,1309.38 1261.01,1309.72L1261.72,1309.83C1263.76,1310.16 1265.8,1310.48 1267.84,1310.77L1268.52,1310.87C1269.39,1310.99 1270.27,1311.11 1271.14,1311.23L1271.64,1311.29C1272.63,1311.42 1273.63,1311.55 1274.62,1311.67L1275.33,1311.76C1276.18,1311.86 1277.03,1311.96 1277.87,1312.05L1278.46,1312.12C1279.46,1312.23 1280.46,1312.34 1281.45,1312.44L1282.1,1312.5C1282.93,1312.59 1283.76,1312.67 1284.59,1312.74L1285.32,1312.81C1286.3,1312.9 1287.29,1312.98 1288.27,1313.06L1288.85,1313.11C1289.7,1313.17 1290.55,1313.24 1291.4,1313.3L1292.11,1313.35C1293.12,1313.42 1294.13,1313.49 1295.13,1313.55L1295.44,1313.56C1296.34,1313.62 1297.24,1313.66 1298.14,1313.71L1298.97,1313.75C1299.96,1313.8 1300.95,1313.84 1301.94,1313.88C1303.83,1313.95 1305.71,1314.01 1307.59,1314.04C1308.84,1314.07 1310.1,1314.08 1311.35,1314.09C1316.37,1314.12 1321.39,1314.01 1326.39,1313.77C1328.9,1313.65 1331.4,1313.5 1333.9,1313.31C1337.02,1313.08 1340.14,1312.8 1343.26,1312.46C1344.5,1312.33 1345.75,1312.18 1346.99,1312.03C1348.23,1311.88 1349.47,1311.72 1350.71,1311.56C1351.88,1311.4 1353.04,1311.23 1354.2,1311.06C1355.51,1310.87 1356.83,1310.67 1358.14,1310.45C1359.38,1310.25 1360.61,1310.05 1361.84,1309.83C1362.96,1309.63 1364.08,1309.43 1365.19,1309.22C1366.53,1308.96 1367.88,1308.7 1369.21,1308.43C1370.44,1308.18 1371.66,1307.92 1372.88,1307.66C1375.33,1307.13 1377.76,1306.56 1380.19,1305.96C1380.79,1305.82 1381.4,1305.66 1382,1305.51C1383.21,1305.2 1384.42,1304.89 1385.63,1304.57C1387.26,1304.13 1388.9,1303.67 1390.52,1303.21C1392.04,1302.77 1393.54,1302.32 1395.05,1301.86C1396.7,1301.36 1398.34,1300.84 1399.98,1300.3C1401.16,1299.91 1402.34,1299.52 1403.52,1299.11C1406.47,1298.1 1409.4,1297.04 1412.31,1295.93C1413.47,1295.49 1414.63,1295.03 1415.79,1294.57C1416.95,1294.11 1418.1,1293.65 1419.25,1293.17C1419.83,1292.93 1420.4,1292.69 1420.97,1292.45C1422.69,1291.72 1424.4,1290.98 1426.11,1290.21C1427.24,1289.7 1428.37,1289.19 1429.5,1288.66C1430.45,1288.22 1431.39,1287.77 1432.33,1287.32C1433.07,1286.97 1433.81,1286.61 1434.55,1286.25C1436.49,1285.29 1438.42,1284.31 1440.33,1283.31C1441.73,1282.58 1443.11,1281.84 1444.49,1281.09C1445.38,1280.6 1446.27,1280.1 1447.16,1279.6C1447.67,1279.32 1448.17,1279.03 1448.67,1278.75C1449.98,1278 1451.29,1277.24 1452.58,1276.46C1453.85,1275.71 1455.12,1274.94 1456.37,1274.16C1457.04,1273.75 1457.7,1273.33 1458.36,1272.92C1460,1271.87 1461.64,1270.81 1463.27,1269.73C1464.89,1268.64 1466.5,1267.54 1468.1,1266.42C1469.17,1265.67 1470.23,1264.92 1471.28,1264.15C1482.37,1256.1 1492.81,1247.1 1502.44,1237.16C1505.17,1234.34 1507.85,1231.44 1510.45,1228.46C1512.01,1226.68 1513.55,1224.86 1515.06,1223.02L1516.06,1221.79C1516.73,1220.97 1517.4,1220.13 1518.07,1219.29L1519.07,1218.02C1519.73,1217.16 1520.4,1216.3 1521.06,1215.43C1521.86,1214.37 1522.66,1213.3 1523.46,1212.22C1523.84,1211.71 1524.22,1211.19 1524.59,1210.67L1525.41,1209.53C1527.01,1207.3 1528.59,1205.02 1530.14,1202.7C1530.66,1201.92 1531.18,1201.13 1531.7,1200.33C1532.44,1199.2 1533.17,1198.05 1533.89,1196.9C1534.19,1196.41 1534.5,1195.92 1534.8,1195.43C1535.13,1194.9 1535.45,1194.37 1535.77,1193.84C1537.42,1191.12 1539.01,1188.35 1540.55,1185.54C1540.82,1185.04 1541.1,1184.53 1541.37,1184.02C1542.32,1182.24 1543.25,1180.44 1544.15,1178.63L1544.78,1177.35C1545.71,1175.45 1546.6,1173.53 1547.46,1171.6C1547.69,1171.07 1547.92,1170.55 1548.15,1170.02C1548.54,1169.12 1548.92,1168.22 1549.29,1167.32C1549.58,1166.63 1549.85,1165.95 1550.13,1165.26C1555.18,1152.52 1558.5,1139.42 1559.08,1126.56C1559.12,1125.5 1559.16,1124.44 1559.18,1123.39C1559.2,1122.33 1559.21,1121.27 1559.21,1120.21C1559.2,1119.15 1559.19,1118.09 1559.16,1117.04C1559.1,1114.92 1558.99,1112.8 1558.82,1110.69C1558.77,1109.95 1558.7,1109.22 1558.64,1108.48L1558.55,1107.52C1558.49,1107 1558.44,1106.47 1558.38,1105.94Z" style="fill:rgb(244,136,144);fill-rule:nonzero;"></path>
        <path d="M408.117,1307.25C416.158,1342.85 432.276,1377.52 458.782,1401.56C467.197,1409.19 476.658,1415.75 487.242,1420.92C509.921,1432.01 540.158,1432.95 559.858,1415.02C575.087,1401.11 584.522,1382.02 599.255,1367.62C613.38,1353.88 634.68,1344.33 653.274,1355.64C670.601,1366.13 677.443,1386.76 693.499,1398.52C704.952,1406.89 720.639,1412.3 735.445,1411.51C744.538,1411.02 753.299,1408.19 760.541,1402.27C776.433,1389.25 777.923,1369.11 774.226,1350.24C770.087,1329.43 761.755,1309.9 756.293,1289.48C750.113,1266.64 751.713,1244.18 761.259,1222.39C766.335,1210.75 773.729,1199.05 783.881,1191.27C793.262,1183.98 805.622,1180.89 814.285,1172.78C833.874,1154.52 824.438,1130.07 807.994,1113.41C791.993,1097.24 771.191,1090.07 750.444,1082.01C730.248,1074.12 710.55,1064.3 697.859,1046.04C690.244,1035 685.885,1021.98 685.333,1008.63C684.726,994.501 688.423,980.486 687.154,966.305C685.609,949.089 673.691,940.812 658.461,937.281C635.176,946.827 612.663,957.917 591.144,970.719C515.471,1015.64 460.892,1075.13 430.347,1145.28C413.919,1183.02 404.443,1223.83 402.378,1267.14C403.206,1280.27 405.082,1293.84 408.117,1307.25Z" style="fill:rgb(117,51,21);fill-rule:nonzero;"></path>
        <path d="M1189.06,851.91C1206.85,853.391 1222.47,840.174 1223.95,822.387C1225.43,804.601 1212.21,788.982 1194.43,787.501C1176.64,786.019 1161.02,799.237 1159.54,817.023C1158.06,834.81 1171.28,850.429 1189.06,851.91Z" style="fill:rgb(16,71,103);fill-rule:nonzero;"></path>
        <path d="M1190.63,839.533C1198.47,840.186 1205.35,834.36 1206.01,826.52C1206.27,823.366 1205.48,820.367 1203.94,817.865L1204.01,817.873C1207.88,818.196 1211.29,815.315 1211.61,811.439C1211.93,807.563 1209.05,804.159 1205.18,803.836C1201.3,803.514 1197.9,806.394 1197.57,810.27C1197.51,810.992 1197.56,811.698 1197.71,812.371C1196.26,811.71 1194.67,811.282 1192.99,811.142C1185.15,810.489 1178.27,816.316 1177.62,824.155C1176.96,831.996 1182.79,838.881 1190.63,839.533Z" style="fill:white;fill-rule:nonzero;"></path>
        <path d="M1445.39,851.91C1463.18,853.391 1478.8,840.174 1480.28,822.387C1481.76,804.601 1468.54,788.982 1450.76,787.501C1432.97,786.019 1417.35,799.237 1415.87,817.023C1414.39,834.81 1427.61,850.429 1445.39,851.91Z" style="fill:rgb(16,71,103);fill-rule:nonzero;"></path>
        <path d="M1446.96,839.533C1454.8,840.186 1461.68,834.36 1462.34,826.52C1462.6,823.366 1461.81,820.367 1460.27,817.865L1460.34,817.873C1464.21,818.196 1467.62,815.315 1467.94,811.439C1468.26,807.563 1465.38,804.159 1461.51,803.836C1457.63,803.514 1454.23,806.394 1453.9,810.27C1453.84,810.992 1453.89,811.698 1454.04,812.371C1452.59,811.71 1451,811.282 1449.32,811.142C1441.48,810.489 1434.6,816.316 1433.95,824.155C1433.29,831.996 1439.12,838.881 1446.96,839.533Z" style="fill:white;fill-rule:nonzero;"></path>
        <path d="M1409.54,1167.76C1417.22,1156.34 1422.27,1142.74 1419.89,1129.55C1417.5,1116.29 1409.09,1103.06 1398.26,1094.2C1394.47,1091.1 1388.64,1093.19 1387.39,1097.93C1381.25,1121.24 1385.17,1147.1 1397.94,1167.54C1400.57,1171.75 1406.77,1171.88 1409.54,1167.76Z" style="fill:rgb(117,51,21);fill-rule:nonzero;"></path>
        <path d="M1236.92,1167.54C1249.68,1147.1 1253.61,1121.24 1247.47,1097.93C1246.22,1093.19 1240.39,1091.1 1236.59,1094.2C1225.76,1103.06 1217.36,1116.29 1214.96,1129.55C1212.58,1142.74 1217.63,1156.34 1225.31,1167.76C1228.08,1171.88 1234.29,1171.75 1236.92,1167.54Z" style="fill:rgb(117,51,21);fill-rule:nonzero;"></path>
        <path d="M1207.97,1249.38C1234.7,1261.13 1263.75,1267.11 1292.84,1267.11C1309.22,1267.11 1325.62,1265.21 1341.62,1261.38C1344.3,1260.74 1345.95,1258.05 1345.31,1255.37C1344.67,1252.69 1341.98,1251.05 1339.3,1251.68C1297.01,1261.81 1251.79,1257.75 1211.98,1240.24C1172.18,1222.74 1138.63,1192.16 1117.51,1154.14C1116.17,1151.74 1113.14,1150.87 1110.73,1152.21C1108.32,1153.54 1107.45,1156.58 1108.79,1158.99C1130.95,1198.9 1166.18,1231 1207.97,1249.38Z" style="fill:rgb(117,51,21);fill-rule:nonzero;"></path>
        <path d="M810.361,1659.64C817.381,1656.43 863.836,1628.98 844.531,1619.88C837.567,1616.59 826.727,1622.79 820.882,1625.87C811.052,1631.05 798.875,1635.89 793.137,1646.05C790.641,1650.46 789.909,1656.66 793.579,1660.16C797.891,1664.28 804.94,1662.13 810.361,1659.64Z" style="fill:rgb(233,143,150);fill-rule:nonzero;"></path>
        <path d="M710.866,1707.75C708.552,1705.59 708.067,1701.02 705.389,1699.52C703.191,1698.29 701.524,1700 701.232,1702.26C701.049,1703.68 701.34,1705.12 701.768,1706.49C702.594,1709.13 703.942,1711.6 705.706,1713.73L706.582,1714.73C707.654,1715.87 708.906,1716.92 710.416,1717.33C711.926,1717.74 713.736,1717.36 714.647,1716.08C716.951,1712.87 712.903,1709.66 710.866,1707.75Z" style="fill:white;fill-rule:nonzero;"></path>
        <path d="M773.51,1714.24C769.741,1713.04 767.934,1717.88 766.751,1720.41C765.407,1723.27 761.208,1725.15 760.607,1728.16C760.113,1730.63 762.26,1731.68 764.497,1731.26C765.905,1731 767.186,1730.28 768.355,1729.45C770.611,1727.85 772.549,1725.81 774.031,1723.47L774.705,1722.33C775.458,1720.96 776.073,1719.44 775.996,1717.88C775.92,1716.32 775.001,1714.71 773.51,1714.24Z" style="fill:white;fill-rule:nonzero;"></path>
        <path d="M815.55,1719.51C815.056,1721.98 817.203,1723.03 819.44,1722.61C820.848,1722.35 822.13,1721.63 823.298,1720.8C825.554,1719.2 827.493,1717.15 828.974,1714.82L829.648,1713.68C830.402,1712.31 831.016,1710.79 830.94,1709.23C830.864,1707.67 829.945,1706.06 828.454,1705.59C824.684,1704.39 822.877,1709.23 821.694,1711.76C820.35,1714.62 816.153,1716.49 815.55,1719.51Z" style="fill:white;fill-rule:nonzero;"></path>
        <path d="M352.006,1586.47C354.279,1599.75 356.149,1612.72 354.086,1625.38C353.974,1626.06 354.437,1626.7 355.117,1626.81L355.319,1626.82C355.918,1626.82 356.447,1626.39 356.547,1625.78C358.673,1612.74 356.776,1599.55 354.466,1586.05L354.062,1583.7C351.991,1571.69 349.85,1559.27 350.888,1547.09C352.118,1532.67 358.098,1520.42 367.297,1513.5C367.847,1513.08 367.957,1512.3 367.543,1511.75C367.124,1511.2 366.342,1511.09 365.796,1511.5C356.032,1518.86 349.692,1531.75 348.403,1546.87C347.338,1559.38 349.506,1571.96 351.604,1584.12L352.006,1586.47Z" style="fill:rgb(117,51,21);fill-rule:nonzero;"></path>
        <path d="M370.534,1637.3L370.868,1637.34C371.416,1637.34 371.918,1636.98 372.069,1636.43C377.404,1617.18 382.922,1597.28 384.486,1576.94C386.242,1554.16 382.471,1533.58 373.579,1517.45C373.245,1516.85 372.486,1516.62 371.886,1516.96C371.282,1517.29 371.063,1518.05 371.396,1518.65C380.049,1534.36 383.716,1554.45 382.001,1576.75C380.452,1596.85 374.968,1616.63 369.667,1635.76C369.482,1636.43 369.872,1637.12 370.534,1637.3Z" style="fill:rgb(117,51,21);fill-rule:nonzero;"></path>
        <path d="M374.661,1658.23L375.385,1658.47L376.4,1657.94C404.159,1618.93 409.857,1565.31 390.919,1521.33C390.649,1520.7 389.906,1520.41 389.28,1520.68C388.648,1520.95 388.357,1521.69 388.629,1522.32C407.229,1565.51 401.633,1618.18 374.368,1656.49C373.969,1657.06 374.1,1657.83 374.661,1658.23Z" style="fill:rgb(117,51,21);fill-rule:nonzero;"></path>
        <path d="M1217.22,1866.1C1218.18,1847.45 1213.7,1828.55 1204.47,1812.32C1203.9,1828.28 1203.3,1840.51 1207.27,1855.98C1194.09,1858.07 1182.4,1865.7 1172.92,1875.09C1188.17,1875.47 1203.27,1872.27 1217.22,1866.1Z" style="fill:rgb(78,19,7);fill-rule:nonzero;"></path>
        <path d="M1469.01,1866.1C1469.96,1847.45 1465.48,1828.55 1456.26,1812.32C1455.69,1828.28 1455.09,1840.51 1459.06,1855.98C1445.88,1858.07 1434.19,1865.7 1424.71,1875.09C1439.96,1875.47 1455.06,1872.27 1469.01,1866.1Z" style="fill:rgb(78,19,7);fill-rule:nonzero;"></path>
        <path d="M677.632,1855.98C664.451,1858.07 652.765,1865.7 643.286,1875.09C658.537,1875.47 673.635,1872.27 687.587,1866.1C688.54,1847.45 684.06,1828.55 674.835,1812.32C674.265,1828.28 673.663,1840.51 677.632,1855.98Z" style="fill:rgb(78,19,7);fill-rule:nonzero;"></path>
        <path d="M928.228,1866.1C929.181,1847.45 924.701,1828.55 915.476,1812.32C914.906,1828.28 914.304,1840.51 918.273,1855.98C905.092,1858.07 893.407,1865.7 883.927,1875.09C899.178,1875.47 914.276,1872.27 928.228,1866.1Z" style="fill:rgb(78,19,7);fill-rule:nonzero;"></path>
    </g>
</svg>