<?xml version="1.0"?>

<svg width="100%" height="100%" viewBox="0 0 69 69" version="1.1" xmlns="http://www.w3.org/2000/svg" xmlns:xlink="http://www.w3.org/1999/xlink" xml:space="preserve" xmlns:serif="http://www.serif.com/" style="fill-rule:evenodd;clip-rule:evenodd;stroke-linejoin:round;stroke-miterlimit:2;">
    <g transform="matrix(1,0,0,1,-5696,-1152)">
        <g transform="matrix(1,0,0,1.59013,-0.279951,1736.77)">
            <g transform="matrix(0.126944,0,0,0.0798327,5663.01,-371.213)">
                <g transform="matrix(1.40989,0,0,1.40989,-111.847,-213.584)">
                    <path d="M345.782,402.611L332.368,402.611C332.368,402.611 357.604,335.801 367.737,308.976C368.38,307.275 370.012,306.154 371.83,306.164C373.648,306.174 375.267,307.313 375.891,309.021C385.695,335.876 410.06,402.611 410.06,402.611L396.438,402.611L389.009,382.964L353.199,382.964L345.782,402.611ZM359.244,367.564C359.244,369.434 360.469,370.376 362.916,370.376L377.016,370.376L378.337,370.234C380.198,370.234 381.372,370.14 381.862,369.952C382.939,369.576 383.478,368.681 383.478,367.27C383.183,366.14 382.192,362.952 380.528,357.693C379.928,355.811 378.949,352.611 377.566,348.105C375.51,341.705 373.882,337.999 372.695,336.964L371.52,336.54C370.43,336.54 369.598,337.375 369.012,339.058L361.9,358.564C360.125,363.34 359.244,366.34 359.244,367.564Z"></path>
                </g>
                <g transform="matrix(1.16427,0,0,1.17296,86.2304,-151.201)">
                    <path d="M470.85,462.949C471.068,462.94 471.277,462.915 471.477,462.871C473.054,461.636 473.159,459.939 472.252,458.087C468.557,450.541 463.748,442.912 466.83,434.503C470.803,423.664 478.732,414.497 486.168,405.876C503.966,385.242 524.729,364.707 529.451,337.145C531.056,327.778 531.289,318.96 528.33,309.935C523.096,293.972 508.718,284.352 493.165,280.056C477.636,275.767 462.067,274.953 444.699,278.435C435.022,280.375 418.476,286.565 415.473,292.295C413.452,296.151 414.294,304.721 414.294,304.721L425.648,304.721C425.648,304.721 434.154,289.636 456.81,290.486C482.598,291.454 496.091,309.492 496.033,327.613C495.938,357.347 476.521,381.683 459.276,403.99C453.748,411.14 446.506,418.273 443.538,426.772C440.53,435.386 443.964,442.848 450.376,448.821C454.397,452.567 465.467,463.139 470.85,462.949Z" style="fill:rgb(114,182,0);"></path>
                </g>
                <g transform="matrix(1.40989,0,0,1.40989,-111.847,-213.584)">
                    <rect x="414.319" y="302.245" width="11.627" height="100.366"></rect>
                </g>
                <g transform="matrix(1.40989,0,0,1.40989,-111.847,-213.584)">
                    <path d="M430.279,349.787L430.279,339.67L437.06,339.67C439.519,339.67 441.147,338.54 441.931,336.281C442.323,335.152 442.518,332.987 442.518,329.787C442.518,321.611 446.524,313.18 454.443,307.168C460.134,302.847 468.611,300.399 471.842,300.022L471.695,310.317C466.261,311.634 461.917,314.528 458.66,318.999C455.405,323.47 453.777,328.481 453.777,334.023C453.777,337.787 456.397,339.67 461.635,339.67L472.258,339.67L472.258,349.787L462.577,349.787C459.543,349.787 457.401,350.023 456.127,350.493C454.072,351.246 453.043,352.846 453.043,355.293L453.043,402.587L441.417,402.729L441.417,355.564C441.417,352.834 440.254,351.058 437.941,350.211C436.693,349.928 435.395,349.787 434.037,349.787L430.573,349.787C429.888,349.787 429.789,349.787 430.279,349.787Z"></path>
                </g>
                <g transform="matrix(0.501996,-0.912646,0.912646,0.501996,-34.1151,680.968)">
                    <g transform="matrix(1.44087,-1.24987e-16,1.24987e-16,1.44087,74.809,-295.991)">
                        <path d="M413.715,422.731C424.435,422.731 433.126,431.421 433.126,442.141C433.126,452.861 424.436,461.551 413.716,461.551C402.996,461.55 394.304,452.86 394.304,442.14C394.304,431.42 402.995,422.73 413.715,422.731Z" style="fill:rgb(255,174,13);"></path>
                    </g>
                    <g transform="matrix(1.44087,-1.24987e-16,1.24987e-16,1.44087,75.0295,-295.99)">
                        <path d="M372.494,428.378C380.096,428.378 386.259,434.54 386.259,442.141C386.26,449.742 380.097,455.902 372.495,455.902C364.893,455.902 358.73,449.741 358.729,442.14C358.729,434.539 364.892,428.378 372.494,428.378Z" style="fill:rgb(114,182,0);"></path>
                    </g>
                    <g transform="matrix(1.44087,-1.24987e-16,1.24987e-16,1.44087,72.7039,-295.991)">
                        <path d="M341.427,432.883C346.541,432.883 350.686,437.028 350.686,442.141C350.686,447.254 346.541,451.399 341.427,451.399C336.313,451.399 332.168,447.254 332.168,442.141C332.168,437.028 336.313,432.883 341.427,432.883Z" style="fill:rgb(0,170,237);"></path>
                    </g>
                </g>
                <g transform="matrix(1.0203,0,0,1.0203,126.668,239.008)">
                    <g transform="matrix(3.21665,0,0,3.21665,72.7462,-871.646)">
                        <path d="M51.514,330.335C52.547,330.925 53.776,331.228 55.204,331.228C57.41,331.228 59.239,330.439 60.694,328.87C62.132,327.32 62.854,325.457 62.854,323.278C62.854,321.129 62.116,319.31 60.646,317.817C59.172,316.32 57.359,315.568 55.204,315.568C52.994,315.568 51.134,316.318 49.623,317.807C48.108,319.3 47.344,321.152 47.344,323.368L47.344,339.088L51.514,339.088L51.514,330.335ZM69.961,325.404C70.1,325.378 70.3,325.348 70.474,325.348C70.474,325.348 80.966,325.348 80.966,325.348L81.034,323.796C81.124,321.602 80.388,319.691 78.817,318.063C77.247,316.437 75.365,315.628 73.174,315.628C70.947,315.628 69.109,316.418 67.655,317.986C66.218,319.535 65.494,321.408 65.494,323.608C65.494,325.799 66.249,327.649 67.751,329.162C69.254,330.677 71.101,331.438 73.294,331.438C75.383,331.438 77.165,330.7 78.641,329.224L79.228,328.637L76.754,325.732L76.075,326.255C75.049,327.046 74.123,327.478 73.264,327.478C72.371,327.478 71.615,327.195 71.004,326.615L71.002,326.613C70.599,326.236 70.295,325.905 70.095,325.609C70.044,325.533 69.996,325.466 69.961,325.404ZM122.109,331.108L126.332,331.108L124.824,321.221C124.568,319.566 123.686,318.182 122.149,317.087C120.772,316.094 119.237,315.598 117.544,315.598C115.347,315.598 113.508,316.367 112.024,317.896C110.547,319.418 109.804,321.271 109.804,323.458C109.804,325.639 110.538,327.504 111.999,329.055C113.476,330.623 115.304,331.408 117.484,331.408C118.652,331.408 119.716,331.164 120.677,330.683C121.052,330.496 121.469,330.234 121.928,329.896C121.928,329.896 122.109,331.108 122.109,331.108ZM94.804,316.553C94.437,316.363 93.999,316.195 93.49,316.052C92.64,315.807 91.868,315.688 91.174,315.688C88.952,315.688 87.112,316.46 85.649,317.991C84.197,319.51 83.464,321.38 83.464,323.608C83.464,325.754 84.196,327.577 85.653,329.08C87.118,330.59 88.927,331.348 91.084,331.348C93.296,331.348 95.162,330.583 96.686,329.059C98.209,327.536 98.974,325.67 98.974,323.458C98.974,323.458 98.974,307.708 98.974,307.708L94.804,307.708L94.804,316.553ZM102.514,331.108L106.684,331.108L106.684,315.928L102.514,315.928L102.514,331.108ZM113.824,323.488C113.824,322.412 114.184,321.494 114.91,320.735C115.625,319.988 116.514,319.618 117.574,319.618C118.644,319.618 119.524,319.986 120.21,320.736C120.917,321.508 121.264,322.447 121.264,323.548C121.264,324.605 120.909,325.508 120.194,326.256C119.491,326.991 118.627,327.358 117.604,327.358C116.523,327.358 115.621,326.998 114.903,326.264C114.178,325.523 113.824,324.595 113.824,323.488ZM87.364,323.548C87.364,322.469 87.716,321.548 88.427,320.788C89.122,320.045 89.999,319.678 91.054,319.678C92.116,319.678 93.003,320.034 93.711,320.757C94.425,321.488 94.774,322.4 94.774,323.488C94.774,324.577 94.419,325.494 93.696,326.234C92.979,326.967 92.087,327.328 91.024,327.328C90.002,327.328 89.138,326.961 88.435,326.226C87.721,325.479 87.364,324.587 87.364,323.548ZM51.514,323.398C51.514,322.306 51.861,321.387 52.57,320.645C53.268,319.915 54.159,319.558 55.234,319.558C56.259,319.558 57.127,319.931 57.839,320.675C58.562,321.431 58.924,322.328 58.924,323.368C58.924,324.464 58.59,325.388 57.903,326.133C57.236,326.856 56.373,327.208 55.324,327.208C54.256,327.208 53.352,326.843 52.616,326.107C51.879,325.37 51.514,324.466 51.514,323.398ZM76.421,321.418L70.343,321.418L70.25,321.414C70.342,321.232 70.487,321.022 70.665,320.774C70.945,320.386 71.342,320.074 71.847,319.826C72.362,319.572 72.863,319.438 73.354,319.438C74.412,319.438 75.282,319.89 75.977,320.774L75.977,320.775C76.165,321.013 76.315,321.227 76.421,321.418ZM104.584,312.628C105.273,312.628 105.85,312.394 106.32,311.94C106.798,311.478 107.044,310.899 107.044,310.198C107.044,309.505 106.803,308.924 106.331,308.452C105.858,307.979 105.278,307.738 104.584,307.738C103.891,307.738 103.311,307.979 102.838,308.452C102.366,308.924 102.124,309.505 102.124,310.198C102.124,311.001 102.375,311.587 102.784,311.988C103.188,312.384 103.777,312.628 104.584,312.628Z" style="fill-rule:nonzero;"></path>
                    </g>
                    <g transform="matrix(3.21665,0,0,3.21665,67.9925,-1266.81)">
                        <path d="M75.175,432.312L80.808,432.312L76.074,437.046L72.576,437.046L75.175,432.312Z"></path>
                    </g>
                </g>
            </g>
            <g transform="matrix(0.665425,0,0,0.418475,2087.83,-442.091)">
                <rect x="5422.83" y="178.882" width="102.19" height="102.19" style="fill:none;"></rect>
            </g>
        </g>
    </g>
</svg>