<?xml version="1.0"?>

<svg width="100%" height="100%" viewBox="0 0 69 69" version="1.1" xmlns="http://www.w3.org/2000/svg" xmlns:xlink="http://www.w3.org/1999/xlink" xml:space="preserve" xmlns:serif="http://www.serif.com/" style="fill-rule:evenodd;clip-rule:evenodd;stroke-linejoin:round;stroke-miterlimit:2;">
    <g transform="matrix(1,0,0,1,-5596,-1265)">
        <g transform="matrix(1,0,0,1.59013,-0.279951,1736.77)">
            <g transform="matrix(0.638384,0,0,0.400942,5301.89,-604.911)">
                <g transform="matrix(0.258045,0,0,0.258383,363.291,632.228)">
                    <clipPath id="_clip1">
                        <path d="M669.149,777.742C672.155,777.742 674.924,779.368 676.388,781.992C677.852,784.617 677.78,787.828 676.201,790.384C658.726,818.201 627.753,836.743 592.478,836.743C557.203,836.743 526.23,818.201 508.807,790.352C507.24,787.814 507.169,784.627 508.621,782.022C510.074,779.417 512.824,777.802 515.806,777.802C530.542,777.742 552.902,777.742 560.432,777.742C562.104,777.743 563.736,778.249 565.115,779.194C572.932,784.457 582.35,787.514 592.478,787.514C602.605,787.514 612.024,784.457 619.857,779.218C621.231,778.277 622.858,777.773 624.524,777.773C632.054,777.742 654.414,777.742 669.149,777.742ZM515.846,698.765C512.84,698.766 510.069,697.138 508.606,694.512C507.143,691.886 507.217,688.673 508.8,686.117C526.282,658.338 557.232,639.827 592.478,639.827C627.724,639.827 658.674,658.338 676.105,686.149C677.676,688.686 677.749,691.876 676.297,694.483C674.845,697.09 672.094,698.706 669.11,698.706C654.353,698.765 631.957,698.765 624.43,698.765C622.764,698.765 621.137,698.262 619.761,697.323C611.96,692.092 602.571,689.056 592.478,689.056C582.385,689.056 572.996,692.092 565.179,697.299C563.807,698.234 562.186,698.735 560.526,698.735C552.999,698.765 530.603,698.765 515.846,698.765Z"></path>
                    </clipPath>
                    <g clip-path="url(#_clip1)">
                        <g transform="matrix(6.07048,-0,-0,6.07048,379.24,528.351)">
                            <use xlink:href="#_Image2" x="21.138" y="18.364" width="28px" height="33px"></use>
                        </g>
                    </g>
                </g>
                <g transform="matrix(0.452961,0,0,0.453555,440.63,768.301)">
                    <path d="M189.983,180.35C190.02,180.59 190.065,180.828 190.119,181.064C190.375,182.178 190.814,183.249 191.416,184.221C191.742,184.748 192.117,185.245 192.532,185.705C191.695,186.025 190.852,186.329 190.003,186.616C187.492,187.467 184.931,188.172 182.339,188.729C181.135,188.987 179.925,189.215 178.709,189.407C178.086,189.505 177.462,189.596 176.836,189.678C176.999,188.848 177.06,187.999 177.017,187.154C176.963,186.101 176.747,185.058 176.38,184.07C177.436,183.905 178.487,183.713 179.532,183.494C183.098,182.749 186.598,181.696 189.983,180.35ZM143.289,180.577C146.54,181.83 149.894,182.817 153.306,183.523C154.493,183.769 155.687,183.98 156.887,184.158C156.796,184.407 156.715,184.66 156.644,184.916C156.247,186.354 156.164,187.876 156.403,189.349L156.404,189.354C155.639,189.229 154.877,189.091 154.117,188.94C149.713,188.065 145.397,186.758 141.247,185.044C141.571,184.634 141.863,184.201 142.121,183.747C142.58,182.939 142.93,182.071 143.158,181.171C143.208,180.974 143.252,180.776 143.289,180.577ZM216.58,160.468C216.673,160.592 216.769,160.713 216.867,160.832C217.941,162.127 219.333,163.154 220.888,163.798C221.269,163.956 221.66,164.091 222.057,164.202L221.8,164.518C219.009,167.938 215.897,171.094 212.517,173.933C211.755,174.573 210.98,175.196 210.192,175.802C210.102,175.498 209.998,175.197 209.88,174.902C209.487,173.916 208.941,172.993 208.269,172.172C207.785,171.582 207.236,171.046 206.634,170.576C208.312,169.212 209.921,167.763 211.453,166.236C213.276,164.419 214.989,162.492 216.58,160.468ZM116.302,160.904C116.731,161.435 117.168,161.96 117.614,162.477C118.036,162.967 118.465,163.452 118.903,163.929C121.176,166.404 123.638,168.705 126.264,170.802C125.539,171.435 124.904,172.168 124.381,172.976C124.082,173.438 123.82,173.924 123.598,174.427C121.945,173.061 120.356,171.619 118.836,170.105C117.741,169.015 116.683,167.887 115.662,166.726C114.713,165.646 113.796,164.538 112.915,163.402C113.025,163.352 113.133,163.3 113.241,163.245C114.395,162.664 115.439,161.866 116.302,160.904ZM232.496,94.167C232.573,94.355 232.65,94.543 232.725,94.732C232.977,95.371 233.217,96.016 233.448,96.664C233.936,98.025 234.381,99.401 234.783,100.789C235.174,102.14 235.524,103.502 235.833,104.874L235.662,136.474C235.616,136.666 235.57,136.858 235.523,137.05C234.885,139.645 234.099,142.204 233.168,144.709C232.888,145.463 232.595,146.213 232.288,146.956C231.801,146.457 231.264,146.008 230.688,145.616C229.782,145.002 228.78,144.532 227.728,144.23C227.423,144.142 227.114,144.066 226.801,144.008C226.714,143.993 226.714,143.993 226.627,143.979C226.414,143.946 226.2,143.917 225.986,143.887C226.65,142.156 227.239,140.397 227.748,138.614C227.95,137.904 228.14,137.191 228.318,136.474L228.06,104.874C227.689,103.474 227.27,102.088 226.803,100.718C226.554,99.988 226.292,99.262 226.016,98.542C225.889,98.209 225.757,97.878 225.626,97.547L225.576,97.423C226.143,97.388 226.706,97.306 227.259,97.179C228.423,96.911 229.537,96.441 230.541,95.795C231.256,95.336 231.914,94.788 232.496,94.167ZM102.824,145.331C102.58,144.68 102.347,144.026 102.124,143.369C101.774,142.339 101.451,141.301 101.15,140.256C100.806,139.063 100.492,137.862 100.213,136.653L100.172,136.474C100.172,136.474 109.558,116.585 113.83,107.533C114.209,106.73 115.017,106.218 115.904,106.218C116.791,106.218 117.599,106.73 117.978,107.532C121.179,114.313 127.249,127.174 130.095,133.201C130.43,133.912 130.378,134.744 129.958,135.408C129.537,136.072 128.806,136.474 128.021,136.474C121.188,136.474 107.066,136.474 107.066,136.474L108.661,132.982L121.422,132.982L113.878,116.513L103.993,136.474C104.226,137.384 104.48,138.289 104.754,139.188C104.975,139.917 105.212,140.641 105.461,141.361C105.747,142.19 106.05,143.013 106.371,143.829C106.069,143.894 105.77,143.972 105.476,144.065C104.537,144.358 103.642,144.785 102.824,145.331ZM167.44,136.474L167.433,136.474C166.648,136.474 165.917,136.072 165.496,135.409C165.076,134.746 165.023,133.914 165.358,133.204C168.194,127.179 174.245,114.324 177.439,107.54C177.817,106.737 178.625,106.224 179.512,106.224C180.4,106.223 181.208,106.735 181.587,107.538C184.789,114.32 190.857,127.175 193.702,133.201C194.037,133.912 193.985,134.744 193.565,135.408C193.144,136.072 192.413,136.474 191.628,136.474C184.795,136.474 170.673,136.474 170.673,136.474L172.268,132.982L185.029,132.982L177.485,116.513L167.44,136.474ZM253.331,131.031C254.097,132.067 254.215,133.446 253.634,134.597C253.054,135.748 251.875,136.474 250.587,136.474C249.144,136.474 248.045,136.474 248.045,136.474L237.396,122.032L237.353,121.988L237.396,121.988L251.881,104.874L251.883,104.874C252.677,104.874 253.398,105.334 253.732,106.054C254.066,106.774 253.951,107.623 253.438,108.228C249.919,112.386 244.38,118.928 244.38,118.928C244.38,118.928 249.521,125.879 253.331,131.031ZM91.323,136.474L85.553,136.474C84.167,136.474 82.918,135.636 82.393,134.353C80.333,129.318 75.105,116.546 72.254,109.58C71.824,108.527 71.945,107.329 72.579,106.385C73.213,105.44 74.276,104.874 75.413,104.874L78.39,104.874L91.323,136.474ZM149.404,136.474L137.945,136.474C137.337,136.474 136.753,136.232 136.323,135.802C135.893,135.372 135.652,134.789 135.652,134.18C135.652,129.353 135.652,118.583 135.652,118.583L142.205,118.54C144.13,118.54 145.603,118.274 146.623,117.742C147.644,117.21 148.384,116.614 148.844,115.953C149.361,115.206 149.634,114.344 149.663,113.366C149.663,112.677 149.576,112.066 149.404,111.534C149.232,111.003 149.002,110.543 148.714,110.155C148.427,109.767 148.111,109.443 147.766,109.185C147.421,108.926 147.062,108.71 146.688,108.538C145.826,108.164 144.849,107.978 143.757,107.978L135.652,107.978L135.652,107.167C135.652,105.9 136.678,104.874 137.945,104.874C140.981,104.874 145.955,104.874 145.955,104.874C147.593,104.874 149.095,105.025 150.46,105.326C151.825,105.628 153.004,106.095 153.995,106.727C154.987,107.36 155.756,108.164 156.302,109.142C156.848,110.119 157.121,111.297 157.121,112.677C157.121,114.056 156.876,115.191 156.388,116.082C155.899,116.973 155.368,117.692 154.793,118.238C154.103,118.87 153.327,119.359 152.465,119.704C153.241,119.732 154.139,119.912 155.159,120.243C156.18,120.573 157.135,121.112 158.026,121.859C158.917,122.606 159.671,123.591 160.289,124.812C160.907,126.034 161.216,127.55 161.216,129.36C161.216,130.309 161.044,131.128 160.699,131.818C160.354,132.507 159.909,133.104 159.363,133.607C158.816,134.11 158.184,134.534 157.466,134.879C156.747,135.223 156.029,135.496 155.31,135.698C153.557,136.215 151.589,136.474 149.404,136.474ZM223.801,136.474L216.613,136.474C215.781,136.474 215.014,136.023 214.609,135.296C212.007,130.62 202.547,113.625 202.547,113.625L202.547,136.474L201.478,136.474C200.87,136.474 200.286,136.232 199.856,135.802C199.426,135.372 199.185,134.789 199.185,134.18C199.185,128.348 199.185,112.999 199.185,107.167C199.185,106.559 199.426,105.975 199.856,105.545C200.286,105.115 200.87,104.874 201.478,104.874C203.528,104.874 206.212,104.874 206.212,104.874L223.801,136.474ZM148.714,121.902L143.153,121.902L143.11,133.111L148.671,133.111C149.648,133.025 150.511,132.78 151.258,132.378C151.919,132.033 152.515,131.523 153.047,130.848C153.579,130.172 153.844,129.202 153.844,127.938C153.816,126.415 153.535,125.258 153.004,124.467C152.472,123.677 151.89,123.081 151.258,122.678C150.511,122.247 149.663,121.989 148.714,121.902ZM103.225,95.598C104.154,96.185 105.174,96.626 106.24,96.895C106.311,96.913 106.382,96.93 106.453,96.946C105.457,99.448 104.617,102.014 103.942,104.621C103.921,104.705 103.899,104.789 103.878,104.874L92.832,132.723L91.021,128.283L100.343,104.874C100.431,104.506 100.521,104.139 100.614,103.772C100.852,102.832 101.107,101.897 101.383,100.967C101.921,99.155 102.536,97.365 103.223,95.604L103.225,95.598ZM221.085,126.386L221.085,104.874L222.154,104.874C223.421,104.874 224.447,105.9 224.448,107.167C224.448,113.781 224.448,132.421 224.448,132.421L221.085,126.386ZM210.308,65.423C213.087,67.52 215.711,69.823 218.152,72.307C218.522,72.683 218.889,73.063 219.249,73.449C219.802,74.042 220.341,74.648 220.871,75.261C221.368,75.837 221.856,76.42 222.335,77.011C221.17,77.312 220.058,77.816 219.064,78.497C218.175,79.105 217.382,79.852 216.722,80.704C216.578,80.891 216.44,81.082 216.309,81.277C215.854,80.695 215.388,80.121 214.913,79.555C214.567,79.143 214.214,78.738 213.86,78.333C213.63,78.072 213.401,77.811 213.169,77.552C212.703,77.035 212.229,76.525 211.747,76.023C210.255,74.47 208.683,72.992 207.041,71.597C206.796,71.389 206.549,71.182 206.301,70.978C207.099,70.421 207.818,69.751 208.43,68.994C209.076,68.195 209.602,67.3 209.986,66.347C210.108,66.044 210.215,65.736 210.308,65.423ZM124.159,66.967C124.337,67.324 124.536,67.671 124.753,68.004C125.253,68.772 125.856,69.471 126.539,70.081C124.4,71.77 122.367,73.593 120.455,75.536C119.078,76.935 117.765,78.396 116.521,79.914C116.448,79.831 116.373,79.75 116.296,79.67C115.559,78.896 114.702,78.237 113.764,77.723C113.702,77.69 113.64,77.656 113.578,77.624C116.705,73.702 120.26,70.122 124.159,66.967ZM177.067,52.039C177.964,52.146 178.86,52.27 179.752,52.412C184.088,53.102 188.356,54.207 192.483,55.705C192.113,56.135 191.778,56.595 191.483,57.081C190.989,57.896 190.607,58.778 190.353,59.697C190.217,60.188 190.118,60.689 190.055,61.195C189.878,61.121 189.7,61.047 189.522,60.974C185.322,59.256 180.938,57.993 176.469,57.207C176.661,56.711 176.814,56.2 176.928,55.68C177.128,54.765 177.202,53.823 177.15,52.888C177.134,52.604 177.107,52.321 177.067,52.039ZM156.453,52.474C156.399,53.038 156.39,53.606 156.429,54.171C156.488,55.056 156.662,55.933 156.945,56.774L157.002,56.939C156.602,56.998 156.203,57.06 155.804,57.127C151.657,57.817 147.58,58.917 143.648,60.403C143.382,59 142.823,57.657 142.019,56.478C146.665,54.621 151.514,53.277 156.453,52.474Z" style="fill:url(#_Linear3);"></path>
                </g>
                <g transform="matrix(0.168291,0,0,0.168512,152.636,603.923)">
                    <clipPath id="_clip4">
                        <path d="M2004.06,1190.02C2014.67,1190.02 2023.29,1198.63 2023.29,1209.25C2023.29,1219.86 2014.67,1228.48 2004.06,1228.48C1993.44,1228.48 1984.82,1219.86 1984.82,1209.25C1984.82,1198.63 1993.44,1190.02 2004.06,1190.02ZM2070.46,1123.98C2081.08,1123.98 2089.7,1132.6 2089.7,1143.21C2089.7,1153.83 2081.08,1162.44 2070.46,1162.44C2059.85,1162.44 2051.23,1153.83 2051.23,1143.21C2051.23,1132.6 2059.85,1123.98 2070.46,1123.98ZM2160.25,1100.1C2170.86,1100.1 2179.48,1108.72 2179.48,1119.34C2179.48,1129.95 2170.86,1138.57 2160.25,1138.57C2149.63,1138.57 2141.01,1129.95 2141.01,1119.34C2141.01,1108.72 2149.63,1100.1 2160.25,1100.1ZM2250.49,1124.41C2261.11,1124.41 2269.73,1133.03 2269.73,1143.65C2269.73,1154.26 2261.11,1162.88 2250.49,1162.88C2239.88,1162.88 2231.26,1154.26 2231.26,1143.65C2231.26,1133.03 2239.88,1124.41 2250.49,1124.41ZM2316.57,1190.53C2327.18,1190.53 2335.8,1199.14 2335.8,1209.76C2335.8,1220.38 2327.18,1228.99 2316.57,1228.99C2305.95,1228.99 2297.33,1220.38 2297.33,1209.76C2297.33,1199.14 2305.95,1190.53 2316.57,1190.53ZM2316.41,1371.3C2327.03,1371.3 2335.65,1379.92 2335.65,1390.53C2335.65,1401.15 2327.03,1409.76 2316.41,1409.76C2305.8,1409.76 2297.18,1401.15 2297.18,1390.53C2297.18,1379.92 2305.8,1371.3 2316.41,1371.3ZM2250.25,1437.33C2260.87,1437.33 2269.49,1445.95 2269.49,1456.56C2269.49,1467.18 2260.87,1475.79 2250.25,1475.79C2239.64,1475.79 2231.02,1467.18 2231.02,1456.56C2231.02,1445.95 2239.64,1437.33 2250.25,1437.33ZM2159.83,1461.4C2170.44,1461.4 2179.06,1470.02 2179.06,1480.64C2179.06,1491.25 2170.44,1499.87 2159.83,1499.87C2149.21,1499.87 2140.6,1491.25 2140.6,1480.64C2140.6,1470.02 2149.21,1461.4 2159.83,1461.4ZM2069.52,1437.06C2080.14,1437.06 2088.76,1445.67 2088.76,1456.29C2088.76,1466.9 2080.14,1475.52 2069.52,1475.52C2058.91,1475.52 2050.29,1466.9 2050.29,1456.29C2050.29,1445.67 2058.91,1437.06 2069.52,1437.06ZM2003.5,1370.65C2014.12,1370.65 2022.74,1379.27 2022.74,1389.88C2022.74,1400.5 2014.12,1409.12 2003.5,1409.12C1992.89,1409.12 1984.27,1400.5 1984.27,1389.88C1984.27,1379.27 1992.89,1370.65 2003.5,1370.65Z"></path>
                    </clipPath>
                    <g clip-path="url(#_clip4)">
                        <g transform="matrix(9.30799,-0,-0,9.30799,1833.22,978.104)">
                            <use xlink:href="#_Image5" x="16.228" y="13.107" width="38px" height="43px"></use>
                        </g>
                    </g>
                </g>
            </g>
            <g transform="matrix(0.665425,0,0,0.418475,1987.83,-371.13)">
                <rect x="5422.83" y="178.882" width="102.19" height="102.19" style="fill:none;"></rect>
            </g>
        </g>
    </g>
    <defs>
        <image id="_Image2" width="28px" height="33px"></image>
        <linearGradient id="_Linear3" x1="0" y1="0" x2="1" y2="0" gradientUnits="userSpaceOnUse" gradientTransform="matrix(7.996e-15,130.585,-130.585,7.996e-15,168.88,54.6753)"><stop offset="0" style="stop-color:rgb(6,160,238);stop-opacity:1"></stop><stop offset="0.5" style="stop-color:rgb(4,113,172);stop-opacity:1"></stop><stop offset="1" style="stop-color:rgb(44,178,250);stop-opacity:1"></stop></linearGradient>
        <image id="_Image5" width="38px" height="43px"></image>
    </defs>
</svg>