<?xml version="1.0"?>

<svg width="100%" height="100%" viewBox="0 0 33 32" version="1.1" xmlns="http://www.w3.org/2000/svg" xmlns:xlink="http://www.w3.org/1999/xlink" xml:space="preserve" xmlns:serif="http://www.serif.com/" style="fill-rule:evenodd;clip-rule:evenodd;stroke-linecap:round;stroke-miterlimit:10;">
    <g transform="matrix(1,0,0,1,-5028,-13143)">
        <g transform="matrix(0.498997,0,0,0.0592082,4329.3,12787.5)">
            <g id="orientacia" transform="matrix(0.605684,0,0,2.10559,68.0522,-7667.55)">
                <g transform="matrix(1,0,0,1,0,310.007)">
                    <g transform="matrix(-1.54576,4.58926e-16,-1.89301e-16,-3.74741,27704,39042.3)">
                        <g transform="matrix(-2.14049,-2.62134e-16,2.62134e-16,-2.14049,16499.7,8768.57)">
                            <path d="M19.323,23.28L16.358,26.246L13.392,23.28" style="fill:none;stroke:rgb(0,136,204);stroke-width:1.34px;"></path>
                            <path d="M16.358,18.705L16.358,26.246" style="fill:none;stroke:rgb(0,136,204);stroke-width:1.34px;stroke-linejoin:round;stroke-miterlimit:1.58537;"></path>
                        </g>
                    </g>
                    <g transform="matrix(1.54576,-9.17851e-16,3.78603e-16,3.74741,-23196.9,-26415.9)">
                        <g transform="matrix(2.14049,5.24268e-16,-5.24268e-16,2.14049,16429.6,8699.03)">
                            <path d="M13.392,9.207L16.358,6.242L19.323,9.207" style="fill:none;stroke:rgb(0,136,204);stroke-width:1.34px;"></path>
                            <path d="M16.358,13.783L16.358,6.242" style="fill:none;stroke:rgb(0,136,204);stroke-width:1.34px;stroke-linejoin:round;stroke-miterlimit:1.58537;"></path>
                        </g>
                    </g>
                    <g transform="matrix(-2.83952e-16,-3.74741,1.54576,-6.88388e-16,-11246.8,68013)">
                        <g transform="matrix(-3.93201e-16,2.14049,-2.14049,-3.93201e-16,16499.4,8698.78)">
                            <path d="M9.321,19.209L6.356,16.244L9.321,13.278" style="fill:none;stroke:rgb(0,136,204);stroke-width:1.34px;"></path>
                            <path d="M13.897,16.244L6.356,16.244" style="fill:none;stroke:rgb(0,136,204);stroke-width:1.34px;stroke-linejoin:round;stroke-miterlimit:1.58537;"></path>
                        </g>
                    </g>
                    <g transform="matrix(4.73254e-16,3.74741,-1.54576,1.14731e-15,15753.9,-55386.6)">
                        <g transform="matrix(6.55335e-16,-2.14049,2.14049,6.55335e-16,16429.9,8768.81)">
                            <path d="M23.394,13.278L26.36,16.244L23.394,19.209" style="fill:none;stroke:rgb(0,136,204);stroke-width:1.34px;"></path>
                            <path d="M18.818,16.244L26.36,16.244" style="fill:none;stroke:rgb(0,136,204);stroke-width:1.34px;stroke-linejoin:round;stroke-miterlimit:1.58537;"></path>
                        </g>
                    </g>
                </g>
                <g transform="matrix(1,0,0,2.42431,-7797.7,4269.72)">
                    <circle cx="10050.8" cy="969.978" r="49.743" style="fill:none;stroke:rgb(0,136,204);stroke-width:4.43px;stroke-linejoin:round;stroke-miterlimit:1.58537;"></circle>
                </g>
            </g>
        </g>
    </g>
</svg>