<?xml version="1.0"?>

<svg width="100%" height="100%" viewBox="0 0 69 69" version="1.1" xmlns="http://www.w3.org/2000/svg" xmlns:xlink="http://www.w3.org/1999/xlink" xml:space="preserve" xmlns:serif="http://www.serif.com/" style="fill-rule:evenodd;clip-rule:evenodd;stroke-linecap:round;stroke-linejoin:round;stroke-miterlimit:1.5;">
    <g transform="matrix(1,0,0,1,-5496,-1265)">
        <g transform="matrix(1,0,0,1.59013,-0.279951,1736.77)">
            <g transform="matrix(0.665425,0,0,0.418475,1887.83,-371.13)">
                <rect x="5422.83" y="178.882" width="102.19" height="102.19" style="fill:none;"></rect>
            </g>
            <g id="B" transform="matrix(0.456878,0,0,0.287321,5463.52,-361.515)">
                <g>
                    <g transform="matrix(1.25364,0,0,1.25364,-42.7361,150.724)">
                        <g transform="matrix(0.920905,0,0,0.920905,17.3778,-158.865)">
                            <path d="M175.756,294.472L175.756,323.771L113.818,323.771L113.818,280.136L161.705,280.136" style="fill:none;stroke:black;stroke-width:5px;"></path>
                        </g>
                        <g transform="matrix(1,0,0,1,2.98035,2.39358)">
                            <path d="M111.577,146.09L183.888,146.09" style="fill:none;stroke:black;stroke-width:7.22px;"></path>
                        </g>
                        <g transform="matrix(0.726532,0,0,0.726532,8.70534,-46.513)">
                            <g transform="matrix(0.217101,0,0,0.217101,88.5611,201.304)">
                                <path d="M430.827,58.481C447.119,58.481 460.326,71.688 460.327,87.978C460.327,104.268 447.12,117.473 430.828,117.473C414.536,117.473 401.329,104.266 401.329,87.976C401.328,71.686 414.535,58.481 430.827,58.481Z" style="fill:rgb(254,178,14);"></path>
                            </g>
                            <g transform="matrix(0.217101,0,0,0.217101,88.5611,201.304)">
                                <path d="M396.17,124.332C407.723,124.332 417.088,133.696 417.089,145.246C417.089,156.796 407.724,166.16 396.171,166.16C384.618,166.159 375.253,156.795 375.253,145.245C375.252,133.695 384.617,124.331 396.17,124.332Z" style="fill:rgb(114,182,0);"></path>
                            </g>
                            <g transform="matrix(0.217101,0,0,0.217101,88.5611,201.304)">
                                <path d="M367.982,178.783C375.753,178.784 382.053,185.083 382.053,192.854C382.054,200.625 375.754,206.924 367.983,206.923C360.212,206.923 353.912,200.624 353.911,192.853C353.911,185.082 360.211,178.783 367.982,178.783Z" style="fill:rgb(0,170,237);"></path>
                            </g>
                            <g transform="matrix(0.217101,0,0,0.217101,88.5611,201.304)">
                                <path d="M444.045,30.366C429.566,30.553 417.457,31.927 407.712,34.487C397.996,37.072 390.644,39.847 385.694,42.793C384.098,43.694 383.078,44.523 382.634,45.279C382.195,46.024 382.005,46.851 382.055,47.763C382.055,51.927 382.091,56.532 382.171,61.581C382.25,66.6 382.388,71.212 382.578,75.403C382.776,79.564 383.051,82.437 383.379,84.042C383.658,85.284 383.993,86.27 384.399,86.992C384.81,87.697 385.558,88.055 386.687,88.055C387.648,88.028 388.337,87.405 388.78,86.241C389.218,85.079 389.5,83.608 389.659,81.871C389.963,78.088 391.059,74.001 392.961,69.58C394.831,65.151 397.586,60.67 401.224,56.122C403.885,52.914 407.875,50.12 413.16,47.763C418.472,45.382 424.942,44.165 432.531,44.034C442.45,44.187 450.293,46.213 456.04,50.097C461.795,53.972 465.867,58.867 468.289,64.766C470.681,70.634 471.863,76.665 471.813,82.799C471.979,92.636 469.884,102.315 465.571,111.84C461.217,121.335 453.622,132.955 442.719,146.672C439.468,150.681 435.972,154.688 432.202,158.731C428.435,162.767 424.665,167.01 420.838,171.488C418.389,174.563 416.683,177.434 415.695,180.084C414.705,182.718 414.204,185.125 414.261,187.298C414.127,189.99 415.115,192.809 417.207,195.788C419.297,198.744 423.261,202.409 429.073,206.811C432.916,209.657 436.332,211.961 439.333,213.721C442.313,215.482 444.51,216.392 445.892,216.444C446.908,216.392 447.646,216.107 448.148,215.531C448.64,214.988 448.885,214.472 448.885,213.953C448.885,213.358 448.697,212.61 448.305,211.754C447.9,210.876 447.212,209.761 446.217,208.364C444.401,205.984 443.08,203.398 442.201,200.577C441.347,197.777 440.902,195.092 440.902,192.552C440.902,189.888 442.338,186.242 445.147,181.58C447.981,176.948 452.215,171.518 457.86,165.276C466.692,156.012 475.363,147.105 483.928,138.485C492.489,129.904 499.591,120.712 505.25,110.904C510.92,101.101 513.894,89.765 514.089,76.902C514.251,70.382 512.213,63.543 508.062,56.431C503.879,49.313 496.666,43.263 486.434,38.241C476.218,33.217 462.071,30.606 444.045,30.366Z" style="fill:rgb(115,182,0);"></path>
                            </g>
                        </g>
                        <g transform="matrix(0.920905,0,0,0.920905,15.536,-150.284)">
                            <path d="M153.943,302.221L169.053,302.357" style="fill:none;stroke:black;stroke-width:2.5px;"></path>
                        </g>
                        <g transform="matrix(0.920905,0,0,0.920905,15.536,-154.721)">
                            <path d="M153.943,302.221L169.053,302.357" style="fill:none;stroke:black;stroke-width:2.5px;"></path>
                        </g>
                        <g transform="matrix(0.920905,0,0,0.920905,15.536,-145.973)">
                            <path d="M147.624,302.357L169.053,302.357" style="fill:none;stroke:black;stroke-width:2.5px;"></path>
                        </g>
                    </g>
                    <g transform="matrix(1.07679,0,0,1.07679,-1349.12,-1248.39)">
                        <path d="M1421.9,1412L1402.5,1431.5L1404.6,1433.6L1424,1414.1L1425.5,1415.5L1405.7,1435.3L1399.1,1436.9L1400.7,1430.4L1420.5,1410.6L1421.9,1412ZM1429.3,1410.3L1425.8,1406.8C1425.4,1406.4 1424.8,1406.4 1424.4,1406.8L1422.1,1409.1L1427,1414L1429.3,1411.7C1429.6,1411.3 1429.6,1410.7 1429.3,1410.3Z" style="fill:rgb(0,170,237);stroke:rgb(0,170,237);stroke-width:2.03px;stroke-linecap:butt;stroke-miterlimit:1.41421;"></path>
                    </g>
                </g>
            </g>
        </g>
    </g>
</svg>