<?xml version="1.0"?>

<svg width="100%" height="100%" viewBox="0 0 2122 2122" version="1.1" xmlns="http://www.w3.org/2000/svg" xmlns:xlink="http://www.w3.org/1999/xlink" xml:space="preserve" xmlns:serif="http://www.serif.com/" style="fill-rule:evenodd;clip-rule:evenodd;stroke-linejoin:round;stroke-miterlimit:2;">
    <g>
        <path d="M1812.13,1082.83C1801.28,1062.01 1787.55,1041.98 1768.21,1028.66C1748.87,1015.34 1723.06,1009.71 1701.4,1018.77C1671.83,1031.13 1658.85,1064.82 1639.93,1090.69C1619.64,1118.42 1590.65,1138.62 1568.8,1165.15C1557.78,1178.53 1548.91,1193.55 1542.16,1209.49C1507.1,1180.62 1465.67,1159.72 1421.2,1150.93C1379.82,1142.74 1337.09,1144.91 1295.22,1149.92C1238.55,1156.7 1182.5,1168.61 1127.98,1185.48C1083.31,1199.29 1039.18,1216.54 992.68,1221.64C984.899,1222.5 977.406,1222.89 970.171,1222.82C968.689,1222.82 967.238,1222.79 965.771,1222.73C953.764,1222.36 942.371,1220.75 931.264,1218.13C929.654,1155.56 906.736,1092.59 856.924,1038.11C849.645,1030.15 841.913,1022.67 833.853,1015.59C844.572,1006.7 853.626,998.27 859.783,992.216C935.847,917.435 1001.74,820.62 1055.27,728.817C1124.62,609.857 1172.75,475.495 1172.76,337.792C1172.76,285.05 1157.28,221.501 1106.88,205.944C1056.66,190.441 1008.4,233.607 976.754,275.578C866.612,421.645 806.056,596.746 761.444,772.431C760.043,591.866 742.995,408.157 671.282,240.643C650.596,192.317 614.064,138.857 561.592,141.895C508.934,144.942 478.698,202.94 466.079,254.153C433.139,387.858 447.727,529.834 486.605,661.934C512.831,751.03 547.319,846.103 592.955,929.274C551.377,928.972 509.514,935.208 471.638,952.11C367.619,998.532 312.739,1116.33 299.127,1229.42C294.387,1268.8 293.602,1309.19 303.142,1347.69C322.06,1424.02 381.802,1486.96 453.899,1518.35C504.417,1540.34 560.234,1547.73 615.355,1543.6C622.021,1567.63 632.9,1590.69 647.209,1610.78L647.55,1611.27C651.132,1616.28 654.888,1621.12 658.795,1625.83C666.041,1634.57 673.854,1642.77 682.073,1650.56C685.45,1677.23 687.357,1704.03 686.201,1730.89C684.043,1781.01 670.552,1831.95 640.237,1870.66C626.805,1887.81 609.393,1904.42 607.979,1926.6C606.464,1950.36 625.46,1971.46 647.103,1978.37C668.743,1985.28 692.12,1981.01 713.947,1974.78C730.731,1969.99 747.662,1963.82 760.997,1952.07C777.874,1937.19 787.17,1915.07 795.414,1893.57C812.393,1849.28 827.321,1804.11 840.12,1758.29C841.199,1754.42 842.259,1750.55 843.299,1746.66C865.152,1755.76 887.343,1764.12 909.8,1771.71C909.36,1774.31 908.87,1776.84 908.285,1779.21C899.438,1815.09 880.841,1848.33 855.185,1874.11C843.346,1886.01 829.977,1896.42 819.871,1909.94C809.767,1923.45 803.165,1941.24 807.623,1957.7C812.198,1974.58 827.579,1986.43 843.861,1991.19C860.14,1995.95 877.406,1994.83 894.283,1993.68C935.087,1990.89 978.468,1987.15 1011.09,1961.61C1043.63,1936.13 1058.98,1894.01 1072.04,1853.97C1076.54,1840.17 1080.93,1826.33 1085.22,1812.45C1129.93,1817.97 1175.03,1819.78 1220.08,1817.01C1236.37,1816.01 1252.64,1814.36 1268.84,1812.13C1274.78,1823.14 1281.54,1833.74 1289.39,1843.66C1292.03,1847 1294.84,1850.23 1297.74,1853.39C1293.35,1856.56 1288.81,1859.48 1284.13,1862.06C1259.05,1875.88 1244.09,1870.34 1217.4,1867.6C1202.75,1866.09 1187.43,1864.73 1172.74,1866.51C1124.64,1872.36 1077.45,1903.34 1063.45,1949.73C1061.47,1956.29 1060.2,1963.54 1062.89,1969.83C1067.55,1980.76 1081.4,1983.83 1093.25,1984.75C1180.23,1991.5 1267.79,1989.84 1354.57,1981.11C1398.46,1976.7 1442.29,1970.69 1485.65,1962.59C1537.2,1952.95 1594.63,1940.67 1603.86,1879.96C1608.15,1851.73 1598.32,1819.85 1578.24,1801.14C1589.43,1787.19 1599.27,1772.03 1608.46,1756.66C1657.33,1674.92 1692.65,1580.86 1683.8,1486.04C1682.19,1468.75 1679.03,1451.42 1673.43,1435.02C1678.4,1434.38 1683.36,1433.42 1688.29,1432.02C1753.46,1413.58 1806.68,1360.43 1829.82,1297.37C1855.27,1228.02 1846.29,1148.33 1812.13,1082.83Z" style="fill:rgb(231,187,157);fill-rule:nonzero;"></path>
        <path d="M824.446,1738.66C773.178,1716.17 722.332,1688.73 682.073,1650.56C685.45,1677.23 687.357,1704.03 686.201,1730.89C684.043,1781.01 670.552,1831.95 640.237,1870.66C626.805,1887.81 609.393,1904.42 607.979,1926.6C606.464,1950.36 625.46,1971.46 647.103,1978.37C668.743,1985.28 692.12,1981.01 713.947,1974.78C730.731,1969.99 747.662,1963.82 760.997,1952.07C777.874,1937.19 787.17,1915.07 795.414,1893.57C812.393,1849.28 827.321,1804.11 840.12,1758.29C841.199,1754.42 842.259,1750.55 843.299,1746.66C836.995,1744.04 830.695,1741.4 824.446,1738.66Z" style="fill:rgb(210,161,131);fill-rule:nonzero;"></path>
        <path d="M685.153,1532.26C662.327,1538.01 638.903,1541.84 615.355,1543.6C622.021,1567.63 632.9,1590.69 647.209,1610.78L647.55,1611.27C651.132,1616.28 654.888,1621.12 658.795,1625.83C732.476,1608.1 800.559,1571.74 852.179,1513.81C922.956,1434.34 959.199,1328.85 970.171,1222.82C968.689,1222.82 967.238,1222.79 965.771,1222.73C953.764,1222.36 942.371,1220.75 931.264,1218.13C934.851,1357.64 832.379,1495.17 685.153,1532.26Z" style="fill:rgb(210,161,131);fill-rule:nonzero;"></path>
        <path d="M671.282,240.643C650.596,192.317 614.064,138.857 561.592,141.895C508.934,144.942 478.698,202.94 466.079,254.153C433.139,387.858 447.727,529.834 486.605,661.934C512.831,751.03 547.319,846.103 592.955,929.274C598.207,929.313 603.455,929.44 608.69,929.68C643.521,931.273 678.432,937.346 711.765,947.935C724.816,888.227 749.45,820.667 756.149,793.538C757.886,786.503 759.657,779.466 761.444,772.431C760.043,591.866 742.995,408.157 671.282,240.643Z" style="fill:rgb(224,174,142);fill-rule:nonzero;"></path>
        <path d="M626.113,874.815C685.806,924.191 698.873,832.162 698.542,793.01C697.139,627.205 669.139,461.651 615.936,304.608C606.03,275.368 588.803,241.371 557.967,239.88C538.196,238.923 520.159,253.205 510.98,270.74C501.797,288.274 499.784,308.584 498.537,328.338C490.552,454.752 507.721,582.603 547.96,702.672C563.696,749.641 586.771,842.274 626.113,874.815Z" style="fill:rgb(166,105,78);fill-rule:nonzero;"></path>
        <path d="M862.917,900.891C900.228,882.283 934.142,826.428 958.254,793.745C1020.65,709.183 1068.22,613.661 1097.63,512.745C1110.95,467.013 1120.66,419.48 1117.25,371.965C1115.29,344.63 1106.12,313.907 1081.17,302.579C1064.09,294.828 1043.48,298.618 1027.36,308.217C1011.25,317.812 998.882,332.509 987.569,347.469C912.363,446.939 871.628,567.541 832.096,685.811C816.267,733.171 800.339,780.949 794.604,830.555C789.942,870.845 813.528,925.523 862.917,900.891Z" style="fill:rgb(166,105,78);fill-rule:nonzero;"></path>
        <path d="M614.902,1270.51C638.089,1274.37 660.953,1253.06 665.972,1222.91C670.995,1192.76 656.267,1165.19 633.085,1161.33C609.898,1157.47 587.034,1178.78 582.011,1208.93C576.992,1239.08 591.716,1266.65 614.902,1270.51Z" style="fill:rgb(14,3,40);fill-rule:nonzero;"></path>
        <path d="M394.834,1249.71C418.021,1253.57 440.886,1232.26 445.903,1202.11C450.927,1171.96 436.203,1144.39 413.017,1140.53C389.831,1136.67 366.966,1157.98 361.942,1188.13C356.925,1218.28 371.647,1245.84 394.834,1249.71Z" style="fill:rgb(14,3,40);fill-rule:nonzero;"></path>
        <path d="M597.095,1143.03C616.159,1143.11 631.901,1135.02 651.721,1140.37C668.666,1144.94 679.502,1156.32 693.445,1165.9C697.504,1168.69 704.003,1163.99 702.138,1159.21C688.149,1123.43 620.71,1100.52 591.892,1130.46C587.492,1135.04 590.645,1143 597.095,1143.03Z" style="fill:rgb(14,3,40);fill-rule:nonzero;"></path>
        <path d="M386.42,1120.7C398.824,1114.08 412.754,1112.13 426.532,1115.11C438.05,1117.6 446.941,1125.55 458.123,1128.41C461.602,1129.31 464.681,1126.16 463.828,1122.71C455.375,1088.36 400.188,1091.48 376.467,1103.67C365.207,1109.46 375.195,1126.68 386.42,1120.7Z" style="fill:rgb(14,3,40);fill-rule:nonzero;"></path>
        <path d="M471.701,1356.91C471.65,1357.05 471.567,1357.17 471.541,1357.34C471.266,1359.07 471.064,1360.84 470.92,1362.64C467.241,1376.86 467.772,1392.25 471.656,1406.96C471.287,1420.61 468.663,1433.49 459,1443.37C446.946,1455.7 427.073,1458.43 412.656,1448.67C400.271,1440.28 400.345,1427.65 393.616,1416.18C392.111,1413.61 387.526,1413.13 386.157,1416.18C371.999,1447.77 418.113,1472.47 444.087,1465.01C465.97,1458.73 474.897,1443.15 478.056,1424.62C485.732,1440.96 497.514,1455.19 512.013,1464.01C539.657,1480.83 599.604,1477.9 606.045,1437.6C606.893,1432.29 601.509,1429.17 597.31,1432.52C585.236,1442.14 576.49,1453.35 560.515,1457.02C543.429,1460.96 526.216,1455.37 512.695,1444.88C482.824,1421.69 484.78,1390.8 484.921,1358.15C480.681,1358.54 476.226,1358.08 471.701,1356.91Z" style="fill:rgb(14,3,40);fill-rule:nonzero;"></path>
        <path d="M558.503,1288.67C554.679,1277.82 543.015,1272.02 532.086,1268.42C509.372,1260.93 485.104,1258.18 461.295,1260.4C445.689,1261.86 428.213,1266.99 421.509,1281.15C408.266,1309.13 441.339,1349.01 471.701,1356.91C476.226,1358.08 480.681,1358.54 484.921,1358.15C485.61,1358.08 486.304,1358.03 486.98,1357.92C510.713,1354.09 568.423,1316.79 558.503,1288.67Z" style="fill:rgb(213,88,117);fill-rule:nonzero;"></path>
        <path d="M651.443,1320.37C649.183,1323.3 653.611,1327.59 656.549,1325.47C674.814,1312.28 691.716,1300.07 713.879,1294.04C735.765,1288.09 756.924,1289.67 779.185,1290.08C781.309,1290.12 782.366,1286.88 780.314,1285.91C738.702,1266.14 678.917,1284.65 651.443,1320.37Z" style="fill:rgb(166,105,78);fill-rule:nonzero;"></path>
        <path d="M665.479,1343.56C660.72,1346.26 664.896,1352.87 669.679,1350.74C708.198,1333.63 742.254,1337.31 781.776,1348.09C784.179,1348.75 785.207,1345.62 783.38,1344.29C749.723,1319.73 700.379,1323.71 665.479,1343.56Z" style="fill:rgb(166,105,78);fill-rule:nonzero;"></path>
        <path d="M662.566,1368.42C658.118,1369.64 659.39,1375.68 663.599,1376.07C680.359,1377.61 696.441,1377.45 712.661,1382.96C728.388,1388.31 742.2,1397.66 756.676,1405.56C758.557,1406.58 761.202,1404.4 759.813,1402.42C740.451,1374.71 695.199,1359.5 662.566,1368.42Z" style="fill:rgb(166,105,78);fill-rule:nonzero;"></path>
        <path d="M326.313,1277.54C335.117,1281.18 344.749,1282.1 353.763,1285.2C363.556,1288.56 372.623,1293.33 381.44,1298.71C384.847,1300.79 388.584,1295.98 385.709,1293.19C371.438,1279.33 346.801,1265.77 326.313,1271.26C322.927,1272.17 323.546,1276.39 326.313,1277.54Z" style="fill:rgb(166,105,78);fill-rule:nonzero;"></path>
        <path d="M315.277,1327.69C334.762,1330.38 354.074,1328.4 373.646,1332.2C378.767,1333.2 380.749,1326.11 375.799,1324.39C356.783,1317.76 333.324,1313.9 314.718,1323.4C313.047,1324.25 313.256,1327.41 315.277,1327.69Z" style="fill:rgb(166,105,78);fill-rule:nonzero;"></path>
        <path d="M377.977,1355.64C361.378,1354.56 340.808,1359.54 333.026,1375.78C332.389,1377.11 333.484,1379.28 335.195,1378.6C349.626,1372.88 362.002,1364.88 377.977,1363.96C383.336,1363.65 383.321,1355.99 377.977,1355.64Z" style="fill:rgb(166,105,78);fill-rule:nonzero;"></path>
        <path d="M1123.35,1498.24C1106.17,1445.72 1060.18,1399.88 1006.68,1400.12C839.684,1400.85 926.739,1671.05 909.8,1771.71C909.36,1774.31 908.87,1776.84 908.285,1779.21C899.438,1815.09 880.841,1848.33 855.185,1874.11C843.346,1886.01 829.977,1896.42 819.871,1909.94C809.767,1923.45 803.165,1941.24 807.623,1957.7C812.198,1974.58 827.579,1986.43 843.861,1991.19C860.14,1995.95 877.406,1994.83 894.283,1993.68C935.087,1990.89 978.468,1987.15 1011.09,1961.61C1043.63,1936.13 1058.98,1894.01 1072.04,1853.97C1076.54,1840.17 1080.93,1826.33 1085.22,1812.45C1100.44,1763.17 1114.05,1713.36 1123.91,1662.66C1134.48,1608.29 1140.53,1550.77 1123.35,1498.24Z" style="fill:rgb(224,174,142);fill-rule:nonzero;"></path>
        <path d="M1683.8,1486.04C1682.19,1468.75 1679.03,1451.42 1673.43,1435.02C1670.16,1425.41 1666.05,1416.12 1660.91,1407.34C1633.65,1360.85 1579.3,1334.05 1525.45,1332.18C1372.4,1326.86 1280.05,1475.79 1247.99,1608.23C1231.56,1676.11 1236.06,1751.36 1268.84,1812.13C1274.78,1823.14 1281.54,1833.74 1289.39,1843.66C1292.03,1847 1294.84,1850.23 1297.74,1853.39C1293.35,1856.56 1288.81,1859.48 1284.13,1862.06C1259.05,1875.88 1244.09,1870.34 1217.4,1867.6C1202.75,1866.09 1187.43,1864.73 1172.74,1866.51C1124.64,1872.36 1077.45,1903.34 1063.45,1949.73C1061.47,1956.29 1060.2,1963.54 1062.89,1969.83C1067.55,1980.76 1081.4,1983.83 1093.25,1984.75C1180.23,1991.5 1267.79,1989.84 1354.57,1981.11C1398.46,1976.7 1442.29,1970.69 1485.65,1962.59C1537.2,1952.95 1594.63,1940.67 1603.86,1879.96C1608.15,1851.73 1598.32,1819.85 1578.24,1801.14C1589.43,1787.19 1599.27,1772.03 1608.46,1756.66C1657.33,1674.92 1692.65,1580.86 1683.8,1486.04Z" style="fill:rgb(224,174,142);fill-rule:nonzero;"></path>
        <path d="M875.229,1881.22C873.021,1883.33 873.859,1887.98 877.158,1888.53C894.673,1891.44 910.688,1886.45 928.782,1891.38C945.879,1896.04 960.792,1906.78 978.021,1910.4C982,1911.24 985.245,1906.46 982.117,1903.36C961.479,1882.9 900.305,1857.21 875.229,1881.22Z" style="fill:rgb(210,161,131);fill-rule:nonzero;"></path>
        <path d="M946.843,1916.72C933.616,1921.4 923.354,1929.2 914.678,1940.23C908.145,1948.54 898.429,1962.74 901.396,1973.77C902.122,1976.47 905.664,1977.41 907.633,1975.42C914.634,1968.32 916.529,1956.53 922.352,1948.16C929.392,1938.02 939.165,1929.47 949.265,1922.47C952.003,1920.57 950.43,1915.45 946.843,1916.72Z" style="fill:rgb(210,161,131);fill-rule:nonzero;"></path>
        <path d="M882.435,1911.32C864.402,1916 840.237,1934.82 844.008,1956.03C844.407,1958.28 847.711,1959.05 849.178,1957.39C854.94,1950.86 858.107,1942.55 863.794,1935.9C869.786,1928.88 877.528,1923.34 885.806,1919.31C890.352,1917.1 887.116,1910.1 882.435,1911.32Z" style="fill:rgb(210,161,131);fill-rule:nonzero;"></path>
        <path d="M1365.78,1867.21C1349.49,1861.12 1329.86,1853.68 1312.35,1857.26C1310.58,1857.63 1310.35,1860.23 1311.86,1861.07C1326.29,1869.1 1344.28,1870.68 1359.9,1876.05C1377.57,1882.11 1393.61,1892.55 1411.47,1897.75C1413.67,1898.39 1415.14,1895.59 1413.64,1894C1401.13,1880.7 1382.64,1873.53 1365.78,1867.21Z" style="fill:rgb(210,161,131);fill-rule:nonzero;"></path>
        <path d="M1255.58,1904.57C1214.85,1899.71 1152.32,1929.5 1144.24,1973.61C1143.81,1975.96 1146.63,1978.11 1148.51,1976.1C1163.23,1960.43 1172.45,1943.33 1191.22,1931.24C1211.15,1918.41 1232.33,1913.95 1255.58,1911.71C1260.21,1911.27 1260.12,1905.11 1255.58,1904.57Z" style="fill:rgb(210,161,131);fill-rule:nonzero;"></path>
        <path d="M1176.85,1895.32C1161.4,1898.36 1148.05,1904.34 1135.35,1913.73C1125.67,1920.9 1113.21,1931.59 1110.12,1943.73C1109.54,1946.01 1112.14,1948.32 1114.27,1946.92C1124.28,1940.38 1131.52,1929.7 1141.17,1922.35C1152.45,1913.78 1165.45,1907.03 1178.69,1902C1182.84,1900.43 1181.27,1894.45 1176.85,1895.32Z" style="fill:rgb(210,161,131);fill-rule:nonzero;"></path>
        <path d="M1321.89,1668.08C1344.64,1699.83 1382.43,1668.37 1394.83,1645.12C1396.67,1641.67 1392.42,1638.55 1389.55,1641.04C1380.18,1649.18 1368.77,1662.84 1355.98,1664.7C1325.8,1669.08 1330.12,1633.97 1331.87,1619.67C1334.76,1595.97 1343.78,1574.73 1357.3,1555.16C1363.03,1546.88 1349.58,1539.18 1343.86,1547.3C1330.6,1544.17 1326.09,1537.9 1330.32,1528.49C1331.38,1521.63 1333.61,1515.14 1337,1509.01C1339.76,1503.26 1342.98,1497.69 1346.6,1492.44C1356.94,1477.46 1370.32,1464.81 1384.72,1453.75C1388.87,1450.56 1385.42,1444.06 1380.52,1446.57C1349.72,1462.34 1315.58,1498.58 1314.16,1535.46C1313.61,1549.42 1322.58,1561.32 1333.36,1564.67C1316.82,1595.58 1302.52,1641.03 1321.89,1668.08Z" style="fill:rgb(210,161,131);fill-rule:nonzero;"></path>
        <path d="M965.93,1619.81C962.263,1647.38 962.22,1682.83 982.19,1698.09C1011.42,1720.41 1037.18,1680.78 1052.69,1662.39C1055.22,1659.4 1051.97,1654.19 1048.24,1656.62C1033.42,1666.23 1003.84,1705.17 985.918,1674.81C976.344,1658.58 980.171,1628.32 983.829,1608.93C984.762,1606.54 985.325,1603.82 985.309,1600.73C985.26,1591.95 971.521,1589.56 969.591,1598.6C969.456,1599.24 969.317,1599.96 969.18,1600.63C961.346,1594.8 958.205,1587.48 959.789,1578.67C959.891,1572.98 960.231,1567.31 960.812,1561.66C962.254,1548.1 965.64,1534.95 968.027,1521.56C969.026,1515.93 960.753,1511.22 957.985,1517.33C947.983,1539.37 933.523,1590.86 952.237,1612.26C956.27,1616.87 961.159,1619.27 965.93,1619.81Z" style="fill:rgb(210,161,131);fill-rule:nonzero;"></path>
        <path d="M1566.83,1251.45C1565.18,1250.83 1563.45,1253.06 1564.48,1254.5C1574.26,1268.18 1588.17,1278.28 1598.14,1292.02C1608.15,1305.83 1615.65,1321.13 1622.54,1336.67C1624,1339.95 1629.03,1337.57 1628.2,1334.28C1620.61,1304.25 1597.53,1262.86 1566.83,1251.45Z" style="fill:rgb(210,161,131);fill-rule:nonzero;"></path>
        <path d="M1691.61,1371.54C1741.68,1367.31 1790.29,1327.69 1807.42,1280.57C1813.35,1264.25 1814.05,1244.19 1794.4,1237.76C1790.44,1236.47 1786.67,1236.07 1783.07,1236.35C1796.78,1213.9 1805.1,1188.75 1801.06,1161.46C1796.4,1129.92 1766.98,1092.05 1731.32,1101.02C1727.5,1101.98 1727.74,1107.44 1731.32,1108.52C1766.33,1119.11 1790.11,1138.89 1788.87,1178.81C1788.04,1205.41 1774.47,1229.21 1758.16,1249.79C1753.37,1254.57 1749.12,1259.97 1745.43,1264.96C1741.22,1270.66 1750.48,1277.66 1755.22,1272.51C1760.08,1267.23 1764.82,1261.71 1769.33,1255.99C1776.89,1250.95 1786.6,1255.52 1798.48,1269.79C1798.68,1275.02 1793.37,1283.31 1790.92,1288.12C1784.23,1301.31 1775.17,1313.4 1764.72,1323.83C1743.87,1344.64 1718.33,1356.13 1690.76,1365.25C1687.52,1366.32 1687.83,1371.86 1691.61,1371.54Z" style="fill:rgb(210,161,131);fill-rule:nonzero;"></path>
        <path d="M747.93,1871.37C725.324,1858.78 682.143,1848.07 658.673,1863.37C657.626,1864.05 657.606,1866.04 659.054,1866.29C671.784,1868.51 684.929,1864.89 697.913,1865.5C714.508,1866.27 730.449,1870.61 746.327,1875.17C748.578,1875.82 750.006,1872.53 747.93,1871.37Z" style="fill:rgb(184,139,110);fill-rule:nonzero;"></path>
        <path d="M719.346,1891.85C707.063,1898.31 698.133,1908.03 692.485,1920.76C688.169,1930.48 683.687,1945.45 689.986,1955.12C691.16,1956.93 693.66,1956.49 694.371,1954.55C697.732,1945.38 696.32,1935.13 699.925,1925.7C704.296,1914.27 712.661,1904.42 722.576,1897.37C725.894,1895.01 723.048,1889.9 719.346,1891.85Z" style="fill:rgb(184,139,110);fill-rule:nonzero;"></path>
        <path d="M663.774,1888.36C651.097,1893.81 642.683,1904.86 638.854,1918.03C635.604,1929.19 634.713,1945.53 644.997,1953.13C646.094,1953.93 647.959,1953.11 648.208,1951.82C650.234,1941.43 646.108,1931.49 648.919,1920.8C651.833,1909.73 659.535,1901.15 667.848,1893.63C670.912,1890.86 667.01,1886.97 663.774,1888.36Z" style="fill:rgb(184,139,110);fill-rule:nonzero;"></path>
        <path d="M1038.6,1257.53C1097.27,1269.55 1159.23,1244.99 1214.09,1226.98C1278.27,1205.91 1346.03,1188.15 1412.04,1212.08C1413.84,1212.74 1415.09,1209.81 1413.35,1208.96C1360.15,1183.12 1300.51,1190.83 1245.42,1206.65C1213.37,1215.86 1182.13,1227.67 1150.01,1236.68C1113.24,1246.99 1077.6,1250.31 1039.58,1250.3C1035.54,1250.3 1034.44,1256.68 1038.6,1257.53Z" style="fill:rgb(184,139,110);fill-rule:nonzero;"></path>
        <path d="M792.393,990.066C779.76,978.515 765.012,971.173 747.735,971.015C744.88,970.99 744.831,974.661 747.112,975.623C761.124,981.531 775.302,987.397 788.388,995.258C791.555,997.163 795.204,992.637 792.393,990.066Z" style="fill:rgb(184,139,110);fill-rule:nonzero;"></path>
        <path d="M434.757,1298.94C434.513,1301.87 434.805,1304.93 436.159,1307.54C437.051,1309.25 438.366,1310.72 439.853,1311.96C446.736,1317.71 457.401,1318.04 462.035,1309.89C464.071,1306.3 464.184,1301.76 466.298,1298.12C469.407,1292.76 474.439,1290.67 478.703,1286.52C480.997,1284.29 482.64,1280.93 481.587,1277.9C480.335,1274.29 476.009,1272.86 472.208,1272.44C463.73,1271.49 454.844,1273.18 447.73,1277.89C440.612,1282.59 435.463,1290.44 434.757,1298.94Z" style="fill:rgb(235,133,159);fill-rule:nonzero;"></path>
    </g>
</svg>