<?xml version="1.0"?>

<svg width="100%" height="100%" viewBox="0 0 183 90" version="1.1" xmlns="http://www.w3.org/2000/svg" xmlns:xlink="http://www.w3.org/1999/xlink" xml:space="preserve" xmlns:serif="http://www.serif.com/" style="fill-rule:evenodd;clip-rule:evenodd;stroke-linejoin:round;stroke-miterlimit:2;">
    <g transform="matrix(1,0,0,1,0,-46.5)">
        <path d="M84.912,113.761C84.759,110.405 84.585,107.05 84.527,103.691C84.452,99.313 84.442,94.939 84.189,90.566C83.952,86.469 83.564,82.386 83.247,78.294C83.564,82.386 83.952,86.469 84.189,90.566C84.442,94.939 84.452,99.313 84.527,103.691C84.585,107.05 84.76,110.405 84.912,113.761Z" style="fill:rgb(92,58,20);fill-rule:nonzero;"></path>
        <g transform="matrix(1,0,0,1,0.469117,50.5614)">
            <path d="M178.503,41.458C177.644,40.842 176.473,40.69 175.451,40.565C172.492,40.203 169.504,39.997 166.531,39.766C163.584,39.538 160.641,39.234 157.69,39.05C156.533,38.978 155.373,38.902 154.226,38.729C153.166,38.569 152.051,38.361 151.084,37.879C150.92,37.797 150.759,37.705 150.605,37.604C152.057,37.118 153.591,36.879 155.109,36.729C156.769,36.566 158.45,36.439 160.116,36.383C160.808,36.36 161.505,36.371 162.202,36.382C163.787,36.407 165.375,36.432 166.923,36.056C167.972,35.802 169.21,35.255 169.495,34.099C169.55,33.88 169.489,33.657 169.25,33.587C168.573,33.39 167.865,33.273 167.145,33.182C168.472,33.107 169.787,32.92 171.064,32.596C172.3,32.283 173.417,31.68 174.096,30.562C174.691,29.582 174.857,28.399 174.86,27.27C174.864,26.01 174.686,24.755 174.52,23.508C174.344,22.193 174.31,20.882 174.188,19.563C174.066,18.252 173.617,17.019 172.272,16.549C171.636,16.326 170.915,16.456 170.27,16.568C169.508,16.7 168.811,16.813 168.036,16.788C164.877,16.684 161.726,16.226 158.634,15.536C160.97,15.461 163.311,15.461 165.644,15.326C166.512,15.277 167.482,15.25 168.238,14.766C168.947,14.313 169.21,13.54 169.291,12.739C169.349,12.172 169.325,11.601 169.316,11.033C169.31,10.539 169.322,10.042 169.265,9.551C169.176,8.796 168.713,8.434 168.052,8.14C165.077,6.816 161.896,6.329 158.711,5.788C155.089,5.173 151.477,4.547 147.82,4.157C144.144,3.765 140.442,3.574 136.744,3.683C133.022,3.793 129.306,4.107 125.586,4.273C122.304,4.42 119.016,4.513 115.73,4.436C115.103,4.448 114.476,4.458 113.849,4.468C111.555,4.501 109.257,4.482 106.965,4.564C103.715,4.68 100.445,5.04 97.19,4.949C96.979,4.974 96.768,5 96.557,5.025C95.014,5.031 93.47,5.071 91.923,5.148C86.501,5.421 81.102,5.981 75.69,6.378C70.215,6.78 64.764,7.253 59.305,7.837C53.908,8.415 48.499,8.968 43.068,9.085C40.059,9.15 37.051,9.053 34.042,8.956C31.553,8.876 29.065,8.796 26.576,8.808C25.275,8.814 24.048,8.731 22.765,8.509C21.595,8.306 20.403,8.073 19.21,8.149C18.164,8.217 17.152,8.477 16.133,8.702C15.105,8.928 14.105,8.971 13.058,9.014C11.558,9.075 9.672,9.319 8.723,10.64C7.801,11.922 8.46,13.799 8.722,15.197C9.048,16.938 8.874,18.602 8.921,20.36C8.959,21.782 9.062,23.586 10.335,24.487C11.457,25.282 13.032,25.362 14.355,25.413C15.144,25.443 15.933,25.436 16.723,25.43C17.227,25.425 17.731,25.421 18.236,25.426C16.947,25.653 15.665,25.928 14.382,26.198C13.093,26.469 11.8,26.74 10.495,26.921C9.467,27.064 8.403,27.055 7.413,27.392C4.317,28.445 4.165,31.985 4.084,34.739C4.021,36.892 3.787,39.025 3.619,41.172C3.449,43.348 3.314,45.518 3.033,47.683C2.833,49.22 2.468,51.121 3.03,52.622C3.445,53.731 4.591,54.088 5.67,54.228C7.447,54.457 9.27,54.237 11.046,54.105C12.13,54.025 13.318,53.881 14.452,53.967C12.938,54.479 11.387,54.895 9.893,55.458C8.168,56.109 6.121,56.936 5.367,58.761C4.531,60.783 4.814,63.206 4.832,65.339C4.847,67.352 4.201,69.461 4.581,71.454C5.036,73.838 7.579,74.417 9.632,74.794C12.541,75.326 15.511,75.387 18.445,75.715C25.337,76.487 32.2,77.811 39.134,78.159C45.691,78.489 52.202,77.52 58.653,76.467C61.926,75.932 65.199,75.383 68.492,74.982C71.871,74.57 75.264,74.624 78.654,74.867C82.031,75.11 85.398,75.529 88.786,75.608C92.247,75.688 95.709,75.481 99.15,75.121C106.052,74.399 112.833,72.896 119.79,72.768C123.235,72.705 126.681,72.826 130.123,72.904C130.382,72.91 130.641,72.913 130.897,72.917C132.762,72.591 134.653,72.467 136.544,72.44C138.478,72.412 140.412,72.48 142.345,72.526C143.569,72.555 144.793,72.555 146.016,72.554C146.727,72.553 147.438,72.553 148.148,72.558C149.645,72.569 151.141,72.605 152.636,72.665C152.477,72.642 152.318,72.613 152.16,72.58C152.711,72.594 153.262,72.615 153.813,72.641L153.6,72.709C154.087,72.732 154.574,72.758 155.063,72.786L155.097,72.714C158.131,72.907 161.159,73.243 164.196,73.463C165.334,73.545 166.473,73.597 167.611,73.661C168.157,73.691 168.738,73.723 169.247,73.484C169.813,73.218 170.127,72.677 170.304,72.099C170.545,71.31 170.747,70.399 170.724,69.572C170.677,67.957 169.299,67.021 167.838,66.748C166.192,66.441 164.488,66.543 162.825,66.613C162.04,66.645 161.248,66.696 160.463,66.654C159.335,66.594 158.209,66.481 157.081,66.417C154.98,66.3 152.84,66.185 150.804,65.631C151.43,65.468 152.085,65.382 152.697,65.315C154.014,65.171 155.341,65.151 156.663,65.114C159.758,65.029 162.848,64.626 165.925,64.298C167.676,64.112 169.426,63.911 171.172,63.686C172.75,63.482 174.383,63.345 175.932,62.97C176.78,62.765 177.636,62.381 177.989,61.524C178.329,60.699 178.196,59.684 178.19,58.815C178.177,56.992 178.143,55.17 178.156,53.347C178.165,52.089 178.133,50.81 178.353,49.567C178.709,47.568 179.316,45.552 179.331,43.509C179.336,42.69 179.206,41.962 178.503,41.458Z" style="fill:rgb(108,77,32);fill-rule:nonzero;"></path>
        </g>
        <g transform="matrix(1,0,0,1,0.469117,50.5614)">
            <path d="M178.048,45.109C177.912,46.164 177.697,47.208 177.484,48.25C177.318,49.062 177.11,49.888 177.05,50.716C176.922,52.435 176.965,54.18 176.978,55.902C176.989,57.398 177.034,58.897 177.015,60.393C177.011,60.748 177.012,61.12 176.892,61.434L176.787,61.601C176.806,61.582 176.785,61.619 176.687,61.678L176.535,61.752C176.082,61.951 175.564,62.017 175.079,62.091C174.247,62.218 173.412,62.332 172.577,62.442C170.859,62.668 169.139,62.867 167.416,63.056C165.686,63.246 163.952,63.421 162.22,63.592C160.811,63.732 159.4,63.905 157.984,63.96C155.491,64.056 152.855,63.922 150.446,64.674C149.898,64.845 149.392,65.064 148.898,65.357C148.545,65.567 148.408,66.131 148.855,66.303C150.868,67.075 153.042,67.307 155.178,67.454C156.262,67.529 157.349,67.576 158.433,67.65C159.203,67.703 159.97,67.801 160.743,67.797C162.302,67.789 163.857,67.646 165.417,67.687C166.699,67.721 168.286,67.779 169.134,68.899C169.606,69.524 169.48,70.298 169.351,71.021C169.289,71.366 169.22,71.713 169.12,72.05C169.084,72.171 169.048,72.296 168.994,72.41L168.93,72.516L168.813,72.538C168.619,72.563 168.242,72.539 167.987,72.525C166.966,72.468 165.943,72.421 164.922,72.35C162.081,72.154 159.243,71.833 156.4,71.623C155.937,71.651 155.469,71.641 155.013,71.608C154.628,71.58 154.243,71.536 153.861,71.47C152.563,71.412 151.264,71.391 149.962,71.431C148.655,71.471 147.351,71.558 146.048,71.666C144.717,71.609 143.383,71.616 142.07,71.638C138.857,71.688 135.652,71.827 132.437,71.778C129.186,71.728 125.934,71.602 122.681,71.593C119.419,71.583 116.156,71.698 112.916,72.092C109.619,72.493 106.35,73.117 103.058,73.56C99.772,74.003 96.47,74.345 93.157,74.469C89.896,74.591 86.665,74.426 83.417,74.15C80.256,73.881 77.091,73.588 73.917,73.607C70.731,73.626 67.584,74.059 64.441,74.542C58.219,75.499 52.028,76.762 45.734,77.136C39.183,77.526 32.706,76.581 26.232,75.697C23.155,75.277 20.074,74.829 16.98,74.561C14.116,74.313 11.184,74.234 8.404,73.44C7.385,73.15 6.321,72.727 5.848,71.702C5.451,70.841 5.537,69.814 5.624,68.898C5.717,67.897 5.88,66.904 5.902,65.897C5.923,64.841 5.873,63.784 5.875,62.728C5.878,60.843 5.832,58.619 7.586,57.491C9.419,56.312 11.675,55.759 13.731,55.106C14.602,54.83 15.478,54.555 16.321,54.202C16.651,54.064 16.981,53.471 16.494,53.309C15.294,52.91 13.951,52.98 12.708,53.046C11.18,53.127 9.659,53.298 8.129,53.342C7.024,53.373 5.547,53.469 4.588,52.8C3.494,52.037 3.815,50.061 3.917,48.939C4.069,47.259 4.327,45.6 4.446,43.916C4.617,41.483 4.869,39.055 5.036,36.622C5.137,35.137 5.09,33.643 5.244,32.16C5.375,30.891 5.661,29.399 6.776,28.612C7.57,28.053 8.541,28.009 9.471,27.895C10.778,27.735 12.076,27.498 13.366,27.237C16.135,26.675 18.89,25.999 21.718,25.819C22.076,25.796 22.7,25.151 22.119,24.964C20.441,24.425 18.662,24.474 16.884,24.523C15.558,24.56 14.233,24.597 12.951,24.389C11.492,24.154 10.453,23.598 10.102,22.079C9.701,20.344 10,18.573 9.955,16.818C9.914,15.185 9.28,13.615 9.261,11.982C9.239,10.1 11.608,9.992 13.014,9.975C14.019,9.963 14.989,9.899 15.975,9.697C17.014,9.484 18.052,9.198 19.119,9.179C20.318,9.158 21.5,9.428 22.674,9.628C23.864,9.83 25.014,9.886 26.218,9.885C28.633,9.882 31.046,9.965 33.459,10.049C36.293,10.147 39.127,10.245 41.962,10.203C47.197,10.128 52.413,9.629 57.614,9.077C62.825,8.523 68.028,7.969 73.256,7.606C78.492,7.243 83.709,6.669 88.941,6.276C91.809,6.06 94.675,5.916 97.544,5.879C98.242,5.937 98.948,5.914 99.657,5.854C101.083,5.734 102.501,5.547 103.924,5.407C106.903,5.114 109.876,5.319 112.857,5.463C113.709,5.505 114.559,5.539 115.41,5.537C115.939,5.536 116.471,5.54 116.997,5.499C122.013,5.567 127.033,5.277 132.04,4.987C135.617,4.78 139.173,4.659 142.755,4.856C146.313,5.053 149.855,5.477 153.374,6.034C155.104,6.307 156.824,6.63 158.551,6.919C160.202,7.195 161.86,7.455 163.487,7.855C164.824,8.185 166.182,8.601 167.425,9.201C167.686,9.327 167.861,9.419 167.979,9.62L168.026,9.743L168.066,9.93C168.095,10.103 168.098,10.292 168.103,10.476C168.13,11.436 168.272,12.517 168.038,13.46C168.005,13.591 167.945,13.74 167.927,13.776C167.914,13.801 167.793,13.98 167.871,13.869L167.83,13.929L167.808,13.935L167.754,13.981L167.724,13.991L167.535,14.072L167.378,14.113C167.284,14.134 167.19,14.154 167.096,14.17C165.901,14.378 164.638,14.367 163.43,14.414C161.653,14.484 159.875,14.511 158.099,14.594C157.223,14.636 156.346,14.69 155.472,14.766C155.203,14.79 154.947,14.929 154.832,15.184C154.74,15.389 154.778,15.647 155.028,15.716C158.395,16.635 161.845,17.298 165.321,17.614C166.167,17.691 167.015,17.746 167.863,17.771C168.56,17.791 169.215,17.701 169.899,17.576C170.489,17.468 171.173,17.285 171.754,17.518C172.309,17.741 172.697,18.187 172.887,18.748C173.288,19.937 173.145,21.283 173.271,22.517C173.388,23.661 173.576,24.798 173.68,25.944C173.846,27.78 173.966,30.417 171.97,31.326C171.21,31.671 170.325,31.8 169.507,31.925C168.762,32.039 168.011,32.105 167.258,32.137L167.039,32.178C164.998,32.536 162.915,32.675 160.873,33.025C163.125,34.106 165.784,33.9 168.191,34.486C168.109,34.576 168.047,34.619 167.876,34.717C167.607,34.871 167.072,35.022 166.681,35.101C165.557,35.327 164.395,35.346 163.251,35.346C162.286,35.345 161.315,35.288 160.351,35.332C158.671,35.409 156.98,35.517 155.308,35.688C153.288,35.895 151.27,36.235 149.395,37.042C149.155,37.145 148.74,37.589 148.999,37.875C150.402,39.421 152.874,39.697 154.828,39.909C155.915,40.028 157.007,40.089 158.098,40.158C159.432,40.242 160.761,40.39 162.093,40.503C165.626,40.804 169.165,41.028 172.691,41.4C173.697,41.506 174.714,41.548 175.711,41.723C176.439,41.851 177.674,42.09 178.007,42.765C178.334,43.429 178.138,44.415 178.048,45.109Z" style="fill:rgb(249,225,188);fill-rule:nonzero;"></path>
        </g>
        <g transform="matrix(1,0,0,1,0.469117,50.5614)">
            <path d="M61.082,18.424C60.319,18.424 59.557,18.415 58.794,18.395C60.922,18.059 63.054,17.743 65.193,17.478C67.571,17.183 69.958,16.952 72.35,16.824C73.84,16.744 75.33,16.715 76.821,16.715C77.73,16.715 78.64,16.726 79.549,16.743C83.998,16.828 88.443,17.054 92.892,17.054C93.207,17.054 93.521,17.052 93.835,17.05C96.176,17.033 98.521,17.008 100.858,16.872C103.13,16.74 105.401,16.556 107.677,16.556L107.835,16.556C108.065,16.557 108.296,16.562 108.526,16.568C103.87,18.008 99.019,18.368 94.146,18.368C90.343,18.368 86.526,18.149 82.779,18.052C81.737,18.025 80.695,18.014 79.653,18.014C76.006,18.014 72.36,18.154 68.714,18.257C66.179,18.329 63.629,18.424 61.082,18.424Z" style="fill:rgb(243,199,139);fill-rule:nonzero;"></path>
        </g>
        <g transform="matrix(1,0,0,1,0.469117,50.5614)">
            <path d="M40.997,44.689C40.522,44.689 40.047,44.684 39.572,44.674C38.044,44.642 36.534,44.455 35.027,44.208C32.045,43.72 29.113,42.983 26.176,42.285C25.928,42.226 25.681,42.168 25.433,42.11C25.748,42.108 26.062,42.107 26.377,42.107C28.907,42.107 31.438,42.169 33.964,42.336C35.453,42.435 36.933,42.596 38.419,42.723C39.861,42.846 41.306,42.927 42.752,42.968C43.521,42.989 44.289,43 45.057,43C47.184,43 49.311,42.919 51.432,42.772C52.962,42.665 54.493,42.531 56.024,42.454C56.42,42.434 56.818,42.422 57.216,42.422C58.229,42.422 59.243,42.503 60.226,42.744C59.378,43.24 58.346,43.417 57.39,43.54C56.149,43.7 54.898,43.735 53.653,43.84C52.163,43.964 50.678,44.16 49.188,44.293C47.595,44.433 46,44.545 44.402,44.613C43.268,44.662 42.132,44.689 40.997,44.689Z" style="fill:rgb(243,199,139);fill-rule:nonzero;"></path>
        </g>
        <g transform="matrix(1,0,0,1,0.469117,50.5614)">
            <path d="M122.042,57.712C121.881,57.712 121.72,57.711 121.559,57.708C120.219,57.685 118.893,57.513 117.566,57.334C116.446,57.183 115.329,57.014 114.212,56.84C119.145,56.589 124.078,56.383 129.015,56.225C130.951,56.163 132.888,56.111 134.825,56.063C130.578,56.763 126.354,57.712 122.042,57.712Z" style="fill:rgb(243,199,139);fill-rule:nonzero;"></path>
        </g>
        <g transform="matrix(1,0,0,1,0.469117,50.5614)">
            <path d="M140.055,28.25C138.775,28.25 137.494,28.217 136.215,28.146C132.219,27.924 128.233,27.42 124.283,26.795C123.485,26.669 122.687,26.537 121.892,26.403C123.354,26.396 124.818,26.39 126.282,26.386C128.667,26.378 131.05,26.373 133.435,26.373C138.23,26.373 143.025,26.393 147.819,26.451C151.113,26.491 154.407,26.55 157.7,26.632C154.491,27.114 151.276,27.559 148.045,27.859C145.388,28.106 142.722,28.25 140.055,28.25Z" style="fill:rgb(243,199,139);fill-rule:nonzero;"></path>
        </g>
        <g transform="matrix(1,0,0,1,0.469117,50.5614)">
            <path d="M42.608,77.226L42.605,77.226L42.608,77.226ZM42.608,77.226C43.632,77.226 44.658,77.199 45.686,77.139C44.658,77.199 43.633,77.226 42.608,77.226ZM26.458,75.728C26.456,75.728 26.455,75.728 26.454,75.727C26.455,75.728 26.456,75.728 26.458,75.728ZM26.288,75.705C26.269,75.702 26.251,75.7 26.232,75.697C23.155,75.277 20.074,74.829 16.98,74.561C14.116,74.313 11.184,74.234 8.404,73.44C8.392,73.437 8.38,73.433 8.368,73.43C8.38,73.433 8.392,73.437 8.404,73.44C11.184,74.234 14.116,74.313 16.98,74.561C20.074,74.829 23.155,75.277 26.232,75.697C26.251,75.7 26.269,75.702 26.288,75.705ZM90.922,74.509L90.92,74.509L90.922,74.509ZM90.922,74.509C91.632,74.509 92.343,74.498 93.055,74.472C92.343,74.498 91.633,74.509 90.922,74.509ZM93.114,74.47C93.128,74.47 93.143,74.469 93.157,74.469C96.47,74.345 99.772,74.003 103.058,73.56C106.35,73.117 109.619,72.493 112.916,72.092C112.937,72.09 112.957,72.087 112.978,72.085C112.957,72.087 112.937,72.09 112.916,72.092C109.619,72.493 106.35,73.117 103.058,73.56C99.772,74.003 96.47,74.345 93.157,74.469C93.143,74.469 93.128,74.47 93.114,74.47ZM83.594,74.165C83.535,74.16 83.476,74.155 83.417,74.15C83.476,74.155 83.535,74.16 83.594,74.165ZM83.051,74.118C83.034,74.117 83.017,74.116 83,74.114C83.017,74.116 83.034,74.117 83.051,74.118ZM73.96,73.607C74.044,73.606 74.128,73.606 74.212,73.606C74.128,73.606 74.044,73.606 73.96,73.607ZM74.215,73.606L74.212,73.606L74.215,73.606ZM168.583,72.549L168.579,72.549L168.583,72.549ZM168.584,72.549C168.665,72.549 168.738,72.546 168.797,72.54C168.738,72.546 168.665,72.549 168.584,72.549ZM168.803,72.539L168.804,72.539L168.803,72.539ZM168.052,72.528C168.046,72.528 168.04,72.528 168.034,72.527C168.04,72.528 168.046,72.528 168.052,72.528ZM113.06,72.075C116.129,71.709 119.216,71.592 122.304,71.592C119.216,71.592 116.128,71.709 113.06,72.075ZM133.865,71.788C135.847,71.788 137.827,71.732 139.809,71.684C137.827,71.732 135.848,71.788 133.865,71.788ZM146.048,71.666C147.351,71.558 148.655,71.471 149.962,71.431C150.419,71.417 150.876,71.411 151.333,71.411C150.876,71.411 150.419,71.417 149.962,71.431C148.655,71.471 147.351,71.558 146.048,71.666ZM140.595,71.666L140.596,71.666L140.595,71.666ZM146.007,71.665C145.977,71.663 145.948,71.662 145.918,71.661C145.948,71.662 145.977,71.663 146.007,71.665ZM141.755,71.643C141.86,71.641 141.965,71.639 142.07,71.638C142.634,71.628 143.202,71.622 143.772,71.622C143.202,71.622 142.634,71.628 142.07,71.638C141.965,71.639 141.86,71.641 141.755,71.643ZM155.837,71.639L155.835,71.639L155.837,71.639ZM155.839,71.639C156.017,71.639 156.195,71.635 156.373,71.624C156.195,71.635 156.017,71.639 155.839,71.639ZM143.775,71.622L143.773,71.622L143.775,71.622ZM153.763,71.465C153.746,71.465 153.73,71.464 153.713,71.463C153.73,71.464 153.746,71.465 153.763,71.465ZM151.336,71.411L151.334,71.411L151.336,71.411ZM160.698,67.797L160.695,67.797L160.698,67.797ZM160.698,67.797L160.72,67.797L160.698,67.797ZM162.668,67.741C163.391,67.711 164.113,67.68 164.836,67.68C164.113,67.68 163.391,67.711 162.668,67.741ZM158.805,67.679C158.804,67.679 158.803,67.678 158.802,67.678C158.803,67.678 158.804,67.679 158.805,67.679ZM158.784,67.677C158.756,67.675 158.727,67.672 158.698,67.67C158.727,67.672 158.756,67.675 158.784,67.677ZM158.628,67.664L158.627,67.664L158.628,67.664ZM158.576,67.661C158.574,67.66 158.572,67.66 158.569,67.66C158.572,67.66 158.574,67.66 158.576,67.661ZM158.494,67.654C158.487,67.654 158.481,67.654 158.474,67.653C158.481,67.654 158.487,67.654 158.494,67.654ZM158.463,67.652C158.453,67.652 158.443,67.651 158.433,67.65C158.443,67.651 158.453,67.652 158.463,67.652ZM5.902,65.897C5.906,65.716 5.907,65.534 5.907,65.352C5.907,65.534 5.906,65.716 5.902,65.897ZM5.874,62.777L5.874,62.753L5.874,62.777ZM176.787,61.601C176.79,61.598 176.793,61.596 176.793,61.596C176.793,61.596 176.79,61.598 176.787,61.601ZM14.305,54.923C14.985,54.705 15.663,54.478 16.321,54.202C15.664,54.477 14.988,54.705 14.309,54.922C14.308,54.923 14.307,54.923 14.305,54.923ZM176.96,53.612C176.96,52.645 176.978,51.676 177.05,50.716C177.11,49.888 177.318,49.062 177.484,48.25C177.697,47.208 177.912,46.164 178.048,45.109C178.1,44.705 178.188,44.202 178.189,43.721C178.188,44.202 178.1,44.705 178.048,45.109C177.912,46.164 177.697,47.208 177.484,48.251C177.318,49.063 177.11,49.888 177.05,50.716C176.978,51.676 176.96,52.645 176.96,53.612ZM7.107,53.365L7.105,53.365L7.107,53.365ZM7.19,53.365L7.191,53.365L7.19,53.365ZM7.206,53.364L7.208,53.364L7.206,53.364ZM7.222,53.364L7.225,53.364L7.222,53.364ZM7.239,53.364L7.242,53.364L7.239,53.364ZM7.255,53.364L7.259,53.364L7.255,53.364ZM7.272,53.364L7.276,53.364L7.272,53.364ZM7.288,53.364L7.293,53.364L7.288,53.364ZM7.304,53.364C7.306,53.363 7.308,53.363 7.31,53.363C7.308,53.363 7.306,53.363 7.304,53.364ZM7.32,53.363L7.326,53.363L7.32,53.363ZM7.337,53.363L7.343,53.363L7.337,53.363ZM7.353,53.363L7.36,53.363L7.353,53.363ZM7.369,53.363C7.371,53.363 7.374,53.362 7.377,53.362C7.374,53.362 7.371,53.363 7.369,53.363ZM7.385,53.362L7.394,53.362L7.385,53.362ZM7.401,53.362L7.41,53.362L7.401,53.362ZM7.417,53.362C7.421,53.362 7.424,53.362 7.427,53.361C7.424,53.362 7.421,53.362 7.417,53.362ZM7.433,53.361L7.444,53.361L7.433,53.361ZM7.449,53.361L7.461,53.361L7.449,53.361ZM7.465,53.361C7.469,53.361 7.473,53.361 7.477,53.36C7.473,53.361 7.469,53.361 7.465,53.361ZM7.482,53.36L7.494,53.36L7.482,53.36ZM7.497,53.36L7.511,53.36L7.497,53.36ZM7.513,53.36C7.523,53.359 7.533,53.359 7.544,53.359C7.533,53.359 7.523,53.359 7.513,53.36ZM7.545,53.359C7.55,53.359 7.555,53.359 7.56,53.358C7.555,53.359 7.55,53.359 7.545,53.359ZM7.561,53.358L7.593,53.358L7.561,53.358ZM7.593,53.358C7.598,53.358 7.603,53.357 7.608,53.357C7.603,53.357 7.598,53.358 7.593,53.358ZM7.61,53.357C7.668,53.356 7.727,53.354 7.784,53.352C7.727,53.354 7.668,53.356 7.61,53.357ZM7.785,53.352C7.887,53.349 7.987,53.346 8.084,53.343C7.987,53.346 7.887,53.349 7.785,53.352ZM8.085,53.343C8.1,53.342 8.115,53.342 8.129,53.342C9.659,53.298 11.18,53.127 12.708,53.046C11.18,53.127 9.659,53.298 8.129,53.342C8.115,53.342 8.1,53.342 8.085,53.343ZM12.731,53.044C12.758,53.043 12.786,53.042 12.813,53.04C12.786,53.042 12.758,53.043 12.731,53.044ZM12.821,53.04C13.259,53.017 13.709,52.995 14.159,52.995C13.709,52.995 13.259,53.017 12.821,53.04ZM14.162,52.995L14.16,52.995L14.162,52.995ZM4.616,52.819C4.613,52.817 4.61,52.815 4.607,52.813C4.61,52.815 4.613,52.817 4.616,52.819ZM4.598,52.807C4.595,52.805 4.592,52.802 4.588,52.8C3.951,52.356 3.794,51.501 3.793,50.643C3.794,51.501 3.951,52.356 4.588,52.8C4.592,52.802 4.595,52.805 4.598,52.807ZM178.007,42.765C177.674,42.09 176.439,41.851 175.711,41.723C176.439,41.851 177.675,42.09 178.007,42.765ZM175.711,41.723C174.722,41.549 173.713,41.507 172.715,41.403C173.713,41.507 174.722,41.549 175.711,41.723ZM148.917,37.666C148.916,37.408 149.209,37.122 149.395,37.042C151.27,36.235 153.288,35.895 155.308,35.688C156.98,35.517 158.671,35.409 160.351,35.332C160.357,35.332 160.363,35.332 160.37,35.331C160.363,35.332 160.357,35.332 160.351,35.332C158.671,35.409 156.98,35.517 155.308,35.688C153.288,35.895 151.27,36.235 149.395,37.042C149.209,37.122 148.916,37.408 148.917,37.666ZM163.251,35.346C162.903,35.345 162.555,35.338 162.207,35.33C162.555,35.338 162.903,35.345 163.251,35.346C164.395,35.346 165.557,35.327 166.681,35.101C167.072,35.022 167.607,34.871 167.876,34.717C168.047,34.619 168.109,34.576 168.191,34.486C168.109,34.576 168.047,34.619 167.876,34.717C167.607,34.871 167.072,35.022 166.681,35.101C165.557,35.327 164.395,35.346 163.251,35.346ZM160.383,35.331C160.387,35.331 160.391,35.331 160.395,35.33C160.391,35.331 160.387,35.331 160.383,35.331ZM160.424,35.329L160.435,35.329L160.424,35.329ZM160.439,35.329C160.68,35.319 160.92,35.315 161.16,35.315C160.92,35.315 160.679,35.319 160.439,35.329ZM161.163,35.315L161.161,35.315L161.163,35.315ZM5.248,32.123C5.38,30.862 5.672,29.391 6.776,28.612C5.672,29.391 5.38,30.862 5.248,32.123ZM173.763,27.505C173.763,27.118 173.743,26.737 173.716,26.376C173.743,26.737 173.763,27.118 173.763,27.505ZM15.344,24.552L15.24,24.552L15.344,24.552ZM15.436,24.552C15.71,24.551 15.983,24.546 16.258,24.54C15.983,24.546 15.71,24.551 15.436,24.552ZM17.403,24.51C17.708,24.502 18.013,24.496 18.317,24.495C18.013,24.496 17.708,24.502 17.403,24.51ZM18.456,24.495L18.425,24.495L18.456,24.495ZM13.021,24.401C12.998,24.397 12.974,24.393 12.951,24.389C11.492,24.154 10.453,23.598 10.102,22.079C9.936,21.361 9.89,20.636 9.889,19.909C9.89,20.636 9.936,21.361 10.102,22.079C10.453,23.598 11.492,24.154 12.951,24.389C12.974,24.393 12.998,24.397 13.021,24.401ZM168.065,17.774C168.647,17.774 169.203,17.7 169.778,17.598C169.203,17.7 168.647,17.774 168.065,17.774ZM167.876,17.771L167.863,17.771L167.876,17.771ZM167.744,17.767C166.935,17.741 166.127,17.688 165.321,17.614C161.913,17.304 158.529,16.661 155.226,15.769C158.529,16.661 161.913,17.304 165.322,17.614C166.127,17.688 166.935,17.741 167.744,17.767ZM169.915,17.573C169.949,17.567 169.984,17.56 170.019,17.553C169.984,17.56 169.949,17.567 169.915,17.573ZM170.029,17.551C170.374,17.485 170.745,17.406 171.105,17.405C170.745,17.406 170.374,17.485 170.029,17.551ZM171.754,17.518C171.751,17.517 171.748,17.515 171.745,17.514C171.748,17.515 171.751,17.517 171.754,17.518ZM171.743,17.514C171.742,17.513 171.74,17.512 171.738,17.512C171.74,17.512 171.742,17.513 171.743,17.514ZM171.108,17.405L171.107,17.405L171.108,17.405ZM154.832,15.184C154.947,14.929 155.203,14.79 155.472,14.766C156.346,14.69 157.223,14.636 158.099,14.594C159.875,14.511 161.653,14.484 163.43,14.414C164.638,14.367 165.901,14.378 167.096,14.17C167.19,14.154 167.284,14.134 167.378,14.113L167.535,14.072L167.724,13.991L167.754,13.981L167.808,13.935L167.83,13.929L167.871,13.869L167.83,13.929L167.808,13.935L167.754,13.981L167.724,13.991L167.535,14.072L167.378,14.113C167.284,14.134 167.19,14.154 167.096,14.171C165.901,14.378 164.638,14.367 163.43,14.414C161.653,14.484 159.875,14.511 158.099,14.594C157.223,14.636 156.346,14.69 155.472,14.766C155.203,14.79 154.947,14.929 154.832,15.184ZM167.864,13.879C167.866,13.877 167.868,13.874 167.87,13.87C167.868,13.874 167.866,13.877 167.864,13.879ZM168.103,10.476C168.098,10.292 168.095,10.103 168.066,9.93C168.096,10.103 168.098,10.292 168.103,10.476ZM40.595,10.213L40.592,10.213L40.595,10.213ZM40.595,10.213C41.051,10.213 41.507,10.21 41.962,10.203C41.507,10.21 41.051,10.213 40.595,10.213ZM41.962,10.203C47.155,10.128 52.331,9.637 57.492,9.089C52.331,9.637 47.156,10.128 41.962,10.203ZM33.81,10.061C33.8,10.061 33.79,10.06 33.781,10.06C33.79,10.06 33.8,10.061 33.81,10.061ZM33.593,10.053C33.548,10.052 33.504,10.05 33.459,10.049C33.504,10.05 33.548,10.052 33.593,10.053ZM33.459,10.049C33.41,10.047 33.362,10.045 33.313,10.044C33.362,10.045 33.41,10.047 33.459,10.049ZM33.276,10.043C33.232,10.041 33.188,10.039 33.144,10.038C33.188,10.039 33.232,10.041 33.276,10.043ZM26.187,9.885L26.185,9.885L26.187,9.885ZM26.234,9.885L26.323,9.885L26.234,9.885ZM26.326,9.885L26.323,9.885L26.326,9.885ZM22.842,9.655L22.837,9.655L22.842,9.655ZM22.814,9.651C22.805,9.649 22.796,9.648 22.787,9.647C22.796,9.648 22.805,9.649 22.814,9.651ZM22.736,9.638C22.721,9.636 22.706,9.633 22.691,9.631C22.706,9.633 22.721,9.636 22.736,9.638ZM22.641,9.622C22.635,9.621 22.629,9.62 22.623,9.619C22.629,9.62 22.635,9.621 22.641,9.622ZM22.62,9.618C22.614,9.617 22.607,9.616 22.601,9.615C22.607,9.616 22.614,9.617 22.62,9.618ZM22.532,9.603C22.529,9.603 22.526,9.602 22.523,9.602C22.526,9.602 22.529,9.603 22.532,9.603ZM22.384,9.577C22.372,9.575 22.36,9.573 22.348,9.571C22.36,9.573 22.372,9.575 22.384,9.577ZM22.323,9.566C22.319,9.566 22.315,9.565 22.31,9.564C22.315,9.565 22.319,9.566 22.323,9.566ZM19.119,9.179C19.164,9.178 19.209,9.178 19.254,9.178C19.209,9.178 19.164,9.178 19.119,9.179ZM19.257,9.178L19.254,9.178L19.257,9.178ZM57.614,9.077C62.784,8.527 67.947,7.978 73.134,7.615C67.947,7.978 62.784,8.528 57.614,9.077ZM158.551,6.919C156.824,6.63 155.104,6.307 153.374,6.034C155.104,6.307 156.824,6.63 158.551,6.919ZM98.393,5.913L98.391,5.913L98.393,5.913ZM98.395,5.913C98.814,5.913 99.235,5.89 99.657,5.854C99.235,5.89 98.814,5.913 98.395,5.913ZM115.342,5.538L115.339,5.538L115.342,5.538ZM115.342,5.538L115.376,5.538L115.342,5.538ZM118.492,5.509C122.783,5.509 127.076,5.274 131.359,5.027C127.076,5.274 122.783,5.509 118.492,5.509ZM113.016,5.471C112.963,5.468 112.91,5.466 112.857,5.463C112.91,5.466 112.963,5.468 113.016,5.471ZM112.696,5.455C112.584,5.45 112.472,5.444 112.359,5.439C112.472,5.444 112.584,5.45 112.696,5.455ZM112.313,5.436C112.3,5.436 112.288,5.435 112.275,5.434C112.288,5.435 112.3,5.436 112.313,5.436ZM103.957,5.403C105.053,5.297 106.147,5.258 107.242,5.258C106.147,5.258 105.053,5.297 103.957,5.403ZM107.244,5.258L107.243,5.258L107.244,5.258ZM131.417,5.023C131.457,5.021 131.497,5.019 131.537,5.016C131.497,5.019 131.457,5.021 131.417,5.023ZM132.04,4.987C132.071,4.985 132.101,4.984 132.132,4.982C132.101,4.984 132.071,4.985 132.04,4.987ZM132.164,4.98C132.193,4.978 132.221,4.977 132.25,4.975C132.221,4.977 132.193,4.978 132.164,4.98ZM132.257,4.975C134.487,4.848 136.709,4.756 138.935,4.756C136.709,4.756 134.486,4.848 132.257,4.975ZM142.699,4.853C142.68,4.852 142.66,4.851 142.641,4.85C142.66,4.851 142.68,4.852 142.699,4.853ZM138.938,4.756L138.937,4.756L138.938,4.756Z" style="fill:rgb(105,68,24);fill-rule:nonzero;"></path>
        </g>
        <g transform="matrix(1,0,0,1,0.469117,50.5614)">
            <path d="M42.608,77.226L42.605,77.226C37.193,77.226 31.824,76.462 26.458,75.728C26.456,75.728 26.455,75.728 26.454,75.727C26.399,75.72 26.343,75.712 26.288,75.705C26.269,75.702 26.251,75.7 26.232,75.697C23.155,75.277 20.074,74.829 16.98,74.561C14.116,74.313 11.184,74.234 8.404,73.44C8.392,73.437 8.38,73.433 8.368,73.43C7.36,73.14 6.315,72.714 5.848,71.702C5.618,71.204 5.55,70.651 5.55,70.096C5.55,69.691 5.587,69.284 5.624,68.898C5.717,67.897 5.88,66.904 5.902,65.897C5.906,65.716 5.907,65.534 5.907,65.352C5.907,64.494 5.874,63.635 5.874,62.777L5.874,62.753C5.874,62.744 5.874,62.736 5.875,62.728C5.878,60.843 5.832,58.619 7.586,57.491C8.514,56.894 9.55,56.458 10.614,56.088C10.351,56.25 10.11,56.433 9.9,56.649C8.862,57.719 9.067,59.486 9.153,60.84C9.159,60.942 9.258,61.016 9.355,61.016C9.361,61.016 9.368,61.016 9.374,61.015C9.681,60.986 9.988,60.974 10.294,60.974C10.848,60.974 11.401,61.013 11.954,61.058C11.173,61.161 10.399,61.299 9.644,61.523C8.489,61.866 7.75,62.304 7.724,63.553C7.697,64.963 7.934,66.439 8.308,67.796C8.421,68.208 8.54,68.701 8.843,69.022C9.319,69.526 10.166,69.665 10.816,69.752C11.738,69.875 12.677,69.799 13.589,69.978C14.914,70.237 16.236,70.5 17.563,70.742C20.195,71.221 22.836,71.55 25.501,71.783C28.46,72.042 31.428,72.144 34.397,72.144C36.792,72.144 39.189,72.078 41.581,71.973C52.612,71.491 63.66,70.691 74.626,69.413C80.007,68.787 85.365,68.002 90.792,68.002L91.053,68.002C96.604,68.028 102.139,68.576 107.68,68.847C112.065,69.062 116.452,69.135 120.841,69.135C127.403,69.135 133.968,68.972 140.527,68.88C141.909,68.86 143.291,68.844 144.673,68.832C144.839,68.831 144.916,68.568 144.773,68.479C141.834,66.628 138.56,65.472 135.252,64.469C143.585,64.397 151.849,63.29 160.08,62.058C162.035,61.765 164.035,61.305 166.009,61.201C167.313,61.132 168.62,61.189 169.923,61.064C170.77,60.983 171.837,60.894 172.394,60.159C173.034,59.311 173.126,58.05 173.196,57.033C173.281,55.786 173.248,54.536 173.235,53.289C173.226,52.239 173.349,51.41 173.661,50.408C174.042,49.186 174.447,47.963 174.694,46.704C174.844,45.943 175.091,44.777 174.596,44.077C174.143,43.437 173.135,43.276 172.422,43.18C171.765,43.091 171.098,43.062 170.432,43.062C169.926,43.062 169.421,43.079 168.92,43.099C167.708,43.149 166.5,43.256 165.289,43.313C165.027,43.325 164.765,43.33 164.502,43.33C163.321,43.33 162.134,43.221 160.96,43.137C151.428,42.45 142.049,40.515 132.695,38.639C140.472,36.94 148.415,36.168 156.21,34.565C156.34,34.538 156.461,34.368 156.347,34.247C154.902,32.715 152.683,32.515 150.643,32.292C155.428,31.417 160.43,32.174 165.124,30.721C168.672,29.624 171.389,25.624 170.588,21.85C170.01,19.127 166.676,18.744 164.392,18.658C163.985,18.643 163.579,18.637 163.172,18.637C162.043,18.637 160.914,18.684 159.785,18.708C159.651,18.711 159.518,18.713 159.385,18.713C157.768,18.713 156.259,18.498 154.646,18.209C148.893,17.177 143.18,15.908 137.526,14.419C144.18,12.479 151.141,11.878 158.018,11.275C158.189,11.26 158.254,11.025 158.119,10.921C155.296,8.748 151.098,8.825 147.716,8.804C147.553,8.803 147.391,8.802 147.229,8.802C146.772,8.802 146.316,8.806 145.859,8.809C145.401,8.813 144.943,8.816 144.485,8.816C143.646,8.816 142.807,8.804 141.97,8.759C139.291,8.615 136.616,8.402 133.936,8.268C130.987,8.121 128.035,8.062 125.082,8.062C116.146,8.062 107.197,8.61 98.277,8.953C86.316,9.413 74.336,9.777 62.397,10.661C50.529,11.54 38.678,12.799 26.773,13.077C25.869,13.098 24.97,13.124 24.073,13.124C22.943,13.124 21.815,13.082 20.684,12.935C19.07,12.726 17.447,12.485 15.817,12.452C15.636,12.448 15.438,12.442 15.232,12.442C14.418,12.442 13.497,12.545 13.179,13.345C12.658,14.656 12.9,16.414 12.962,17.785C12.992,18.44 13.056,19.104 13.032,19.761C13.028,19.866 13.081,19.974 13.198,19.989C17.113,20.471 21.018,21.034 24.941,21.449C23.025,21.678 21.131,22.147 19.27,22.632C19.108,22.674 19.109,22.947 19.264,22.999C21.586,23.767 24.099,23.774 26.513,23.984C28.87,24.188 31.527,24.446 33.461,25.939C33.056,26.094 32.647,26.237 32.238,26.38C28.638,26.872 25.071,27.571 21.532,28.393C19.59,28.845 17.658,29.329 15.728,29.83C14.616,30.118 13.515,30.19 12.37,30.261C11.283,30.329 10.118,30.315 9.057,30.589C8.409,30.757 8.162,31.267 7.965,31.878C7.265,34.048 7.345,36.507 7.236,38.76C7.165,40.222 6.955,41.666 6.869,43.126C6.732,45.446 6.786,47.772 6.629,50.091C6.622,50.205 6.682,50.293 6.795,50.319C8.259,50.657 9.742,50.787 11.234,50.787C14.295,50.787 17.385,50.236 20.378,49.789C22.838,49.421 25.411,49.029 27.952,49.029C29.88,49.029 31.79,49.255 33.615,49.89C27.325,51.05 21.291,53.238 15.085,54.751C14.84,54.811 14.578,54.866 14.309,54.922C14.988,54.705 15.664,54.477 16.321,54.202C16.53,54.114 16.74,53.843 16.74,53.616C16.741,53.485 16.672,53.368 16.494,53.309C15.753,53.063 14.956,52.995 14.162,52.995L14.159,52.995C13.709,52.995 13.259,53.017 12.821,53.04L12.813,53.04C12.786,53.042 12.758,53.043 12.731,53.044C12.723,53.045 12.715,53.045 12.708,53.046C11.18,53.127 9.659,53.298 8.129,53.342C8.115,53.342 8.1,53.342 8.085,53.343L8.084,53.343C7.987,53.346 7.887,53.349 7.785,53.352L7.784,53.352C7.727,53.354 7.668,53.356 7.61,53.357L7.608,53.357C7.603,53.357 7.598,53.358 7.593,53.358L7.56,53.358C7.555,53.359 7.55,53.359 7.545,53.359L7.544,53.359C7.533,53.359 7.523,53.359 7.513,53.36L7.477,53.36C7.473,53.361 7.469,53.361 7.465,53.361L7.427,53.361C7.424,53.362 7.421,53.362 7.417,53.362L7.377,53.362C7.374,53.362 7.371,53.363 7.369,53.363L7.31,53.363C7.308,53.363 7.306,53.363 7.304,53.364L7.206,53.364C7.201,53.365 7.196,53.365 7.191,53.365L7.105,53.365C6.242,53.365 5.323,53.281 4.645,52.838C4.635,52.832 4.626,52.825 4.616,52.819C4.613,52.817 4.601,52.809 4.598,52.807C4.595,52.805 4.592,52.802 4.588,52.8C3.951,52.356 3.794,51.501 3.793,50.643C3.793,50.026 3.874,49.408 3.917,48.939C4.069,47.259 4.327,45.6 4.446,43.916C4.617,41.483 4.869,39.055 5.036,36.622C5.137,35.137 5.09,33.643 5.244,32.16C5.245,32.148 5.246,32.136 5.248,32.123C5.38,30.862 5.672,29.391 6.776,28.612C7.57,28.053 8.541,28.009 9.471,27.895C10.778,27.735 12.076,27.498 13.366,27.237C16.135,26.675 18.89,25.999 21.718,25.819C21.971,25.803 22.357,25.476 22.356,25.219C22.356,25.113 22.289,25.019 22.119,24.964C20.936,24.584 19.703,24.496 18.456,24.495L18.317,24.495C18.013,24.496 17.708,24.502 17.403,24.51C17.23,24.514 17.057,24.519 16.884,24.523C16.675,24.529 16.466,24.535 16.258,24.54C15.983,24.546 15.71,24.551 15.436,24.552L15.24,24.552C14.492,24.549 13.75,24.513 13.021,24.401C12.998,24.397 12.974,24.393 12.951,24.389C11.492,24.154 10.453,23.598 10.102,22.079C9.936,21.361 9.89,20.636 9.889,19.909C9.889,19.01 9.959,18.108 9.959,17.209C9.959,17.078 9.958,16.948 9.955,16.818C9.954,16.811 9.954,16.805 9.954,16.799C9.909,15.173 9.281,13.608 9.261,11.982L9.261,11.955C9.262,10.099 11.615,9.992 13.014,9.975C14.019,9.963 14.989,9.899 15.975,9.697C17.014,9.484 18.052,9.198 19.119,9.179C19.164,9.178 19.209,9.178 19.254,9.178L19.257,9.178C20.285,9.178 21.301,9.383 22.31,9.564C22.315,9.565 22.319,9.566 22.323,9.566C22.332,9.568 22.34,9.569 22.348,9.571C22.36,9.573 22.372,9.575 22.384,9.577C22.43,9.585 22.476,9.593 22.523,9.602C22.526,9.602 22.529,9.603 22.532,9.603C22.555,9.607 22.578,9.611 22.601,9.615C22.607,9.616 22.614,9.617 22.62,9.618C22.621,9.619 22.622,9.619 22.623,9.619C22.629,9.62 22.635,9.621 22.641,9.622C22.652,9.624 22.663,9.626 22.674,9.628C22.68,9.629 22.686,9.63 22.691,9.631C22.706,9.633 22.721,9.636 22.736,9.638C22.753,9.641 22.77,9.644 22.787,9.647C22.796,9.648 22.805,9.649 22.814,9.651C22.822,9.652 22.829,9.653 22.837,9.655L22.842,9.655C23.961,9.833 25.049,9.885 26.185,9.885L26.326,9.885C28.599,9.885 30.872,9.96 33.144,10.038C33.188,10.039 33.232,10.041 33.276,10.043C33.289,10.043 33.301,10.043 33.313,10.044C33.362,10.045 33.41,10.047 33.459,10.049C33.504,10.05 33.548,10.052 33.593,10.053C33.656,10.056 33.718,10.058 33.781,10.06C33.79,10.06 33.8,10.061 33.81,10.061C36.071,10.139 38.331,10.213 40.592,10.213L40.595,10.213C41.051,10.213 41.507,10.21 41.962,10.203C47.156,10.128 52.331,9.637 57.492,9.089C57.533,9.085 57.573,9.081 57.614,9.077C62.784,8.528 67.947,7.978 73.134,7.615C73.175,7.612 73.216,7.609 73.256,7.606C78.492,7.243 83.709,6.669 88.941,6.276C91.809,6.06 94.675,5.916 97.544,5.879C97.825,5.902 98.108,5.913 98.391,5.913L98.395,5.913C98.814,5.913 99.235,5.89 99.657,5.854C101.083,5.734 102.501,5.547 103.924,5.407C103.935,5.405 103.946,5.404 103.957,5.403C105.053,5.297 106.147,5.258 107.242,5.258L107.244,5.258C108.921,5.258 110.596,5.35 112.275,5.434C112.288,5.435 112.3,5.436 112.313,5.436C112.328,5.437 112.344,5.438 112.359,5.439C112.472,5.444 112.584,5.45 112.696,5.455C112.75,5.458 112.804,5.461 112.857,5.463C112.91,5.466 112.963,5.468 113.016,5.471C113.047,5.472 113.079,5.474 113.11,5.475C113.853,5.51 114.596,5.537 115.339,5.538L115.376,5.538C115.387,5.538 115.399,5.537 115.41,5.537C115.939,5.536 116.471,5.54 116.997,5.499C117.495,5.506 117.992,5.509 118.49,5.509L118.492,5.509C122.783,5.509 127.076,5.274 131.359,5.027C131.378,5.025 131.397,5.024 131.417,5.023C131.457,5.021 131.497,5.019 131.537,5.016C131.705,5.007 131.872,4.997 132.04,4.987C132.071,4.985 132.101,4.984 132.132,4.982C132.143,4.981 132.153,4.981 132.164,4.98C132.193,4.978 132.221,4.977 132.25,4.975L132.257,4.975C134.486,4.848 136.709,4.756 138.935,4.756L138.938,4.756C140.17,4.756 141.404,4.784 142.641,4.85C142.66,4.851 142.68,4.852 142.699,4.853C142.717,4.854 142.736,4.855 142.755,4.856C146.313,5.053 149.855,5.477 153.374,6.034C155.104,6.307 156.824,6.63 158.551,6.919C160.202,7.195 161.86,7.455 163.487,7.855C164.824,8.185 166.182,8.601 167.425,9.201C167.686,9.327 167.861,9.419 167.979,9.62L168.026,9.743L168.066,9.93C168.095,10.103 168.098,10.292 168.103,10.476C168.118,11.02 168.17,11.602 168.17,12.177C168.17,12.616 168.14,13.051 168.038,13.46C168.005,13.591 167.945,13.74 167.927,13.776C167.917,13.795 167.844,13.905 167.845,13.905C167.845,13.905 167.85,13.899 167.861,13.883C167.862,13.882 167.863,13.88 167.864,13.879C167.866,13.877 167.868,13.874 167.87,13.87L167.871,13.869L167.83,13.929L167.808,13.935L167.754,13.981L167.724,13.991L167.535,14.072L167.378,14.113C167.284,14.134 167.19,14.154 167.096,14.17C165.901,14.378 164.638,14.367 163.43,14.414C161.653,14.484 159.875,14.511 158.099,14.594C157.223,14.636 156.346,14.69 155.472,14.766C155.203,14.79 154.947,14.929 154.832,15.184C154.739,15.389 154.778,15.647 155.028,15.716C155.094,15.734 155.16,15.751 155.226,15.769C158.529,16.661 161.913,17.304 165.321,17.614C166.127,17.688 166.935,17.741 167.744,17.767C167.784,17.768 167.824,17.77 167.863,17.771L167.876,17.771C167.938,17.773 168.001,17.774 168.063,17.774L168.065,17.774C168.647,17.774 169.203,17.7 169.778,17.598C169.818,17.591 169.859,17.583 169.899,17.576C169.904,17.575 169.909,17.574 169.915,17.573C169.949,17.567 169.984,17.56 170.019,17.553C170.023,17.553 170.026,17.552 170.029,17.551C170.374,17.485 170.745,17.406 171.105,17.405L171.108,17.405C171.324,17.405 171.537,17.434 171.738,17.512C171.74,17.512 171.742,17.513 171.743,17.514L171.745,17.514C171.748,17.515 171.751,17.517 171.754,17.518C172.309,17.741 172.697,18.187 172.887,18.748C173.288,19.937 173.145,21.283 173.271,22.517C173.388,23.661 173.576,24.798 173.68,25.944C173.692,26.084 173.705,26.228 173.716,26.376C173.743,26.737 173.763,27.118 173.763,27.505C173.764,29.042 173.443,30.655 171.97,31.325C171.234,31.66 170.38,31.792 169.584,31.913C169.558,31.917 169.532,31.921 169.507,31.925C168.768,32.038 168.022,32.104 167.275,32.136C167.27,32.136 167.264,32.137 167.258,32.137L167.039,32.178C164.998,32.536 162.915,32.675 160.873,33.025C163.125,34.106 165.784,33.9 168.191,34.486C168.109,34.576 168.047,34.619 167.876,34.717C167.607,34.871 167.072,35.022 166.681,35.101C165.557,35.327 164.395,35.346 163.251,35.346C162.903,35.345 162.555,35.338 162.207,35.33C161.859,35.323 161.511,35.315 161.163,35.315L161.16,35.315C160.92,35.315 160.68,35.319 160.439,35.329L160.424,35.329C160.414,35.33 160.405,35.33 160.395,35.33C160.391,35.331 160.387,35.331 160.383,35.331L160.37,35.331C160.363,35.332 160.357,35.332 160.351,35.332C158.671,35.409 156.98,35.517 155.308,35.688C153.288,35.895 151.27,36.235 149.395,37.042C149.209,37.122 148.916,37.408 148.917,37.666C148.917,37.74 148.941,37.811 148.999,37.875C150.402,39.421 152.874,39.697 154.828,39.909C155.915,40.028 157.007,40.089 158.098,40.158C159.432,40.242 160.761,40.39 162.093,40.503C165.626,40.804 169.165,41.028 172.691,41.4C172.699,41.401 172.707,41.402 172.715,41.403C173.713,41.507 174.722,41.549 175.711,41.723C176.439,41.851 177.674,42.09 178.007,42.765C178.144,43.042 178.189,43.376 178.189,43.721C178.188,44.202 178.1,44.705 178.048,45.109C177.912,46.164 177.697,47.208 177.484,48.25C177.318,49.062 177.11,49.888 177.05,50.716C176.978,51.676 176.96,52.645 176.96,53.612C176.96,54.377 176.972,55.142 176.978,55.902C176.987,57.141 177.02,58.382 177.02,59.622C177.019,59.879 177.018,60.136 177.015,60.393C177.011,60.748 177.012,61.12 176.892,61.434L176.787,61.601C176.79,61.598 176.793,61.596 176.793,61.596C176.793,61.599 176.764,61.631 176.687,61.678L176.535,61.752C176.082,61.951 175.564,62.017 175.079,62.091C174.247,62.218 173.412,62.332 172.577,62.442C170.859,62.668 169.139,62.867 167.416,63.056C165.686,63.246 163.952,63.421 162.22,63.592C160.811,63.732 159.4,63.905 157.984,63.96C155.491,64.056 152.855,63.922 150.446,64.674C149.898,64.845 149.392,65.064 148.898,65.357C148.702,65.473 148.573,65.699 148.573,65.906C148.573,66.072 148.656,66.226 148.855,66.303C150.868,67.075 153.042,67.307 155.178,67.454C156.262,67.529 157.349,67.576 158.433,67.65C158.443,67.651 158.453,67.652 158.463,67.652C158.467,67.653 158.471,67.653 158.474,67.653C158.481,67.654 158.487,67.654 158.494,67.654C158.519,67.656 158.544,67.658 158.569,67.66C158.572,67.66 158.574,67.66 158.576,67.661C158.593,67.662 158.61,67.663 158.627,67.664L158.628,67.664C158.651,67.666 158.675,67.668 158.698,67.67C158.727,67.672 158.756,67.675 158.784,67.677C158.79,67.677 158.796,67.678 158.802,67.678C158.803,67.678 158.804,67.679 158.805,67.679C159.435,67.731 160.063,67.797 160.695,67.797L160.743,67.797C161.385,67.794 162.027,67.768 162.668,67.741C163.391,67.711 164.113,67.68 164.836,67.68L164.839,67.68C165.032,67.68 165.224,67.682 165.417,67.687C166.699,67.721 168.286,67.779 169.134,68.899C169.389,69.236 169.469,69.616 169.469,70.009C169.469,70.344 169.41,70.688 169.351,71.021C169.289,71.366 169.22,71.713 169.12,72.05C169.084,72.171 169.048,72.296 168.994,72.41L168.93,72.516L168.813,72.538C168.81,72.538 168.807,72.539 168.804,72.539L168.803,72.539C168.801,72.539 168.799,72.54 168.797,72.54C168.738,72.546 168.665,72.549 168.584,72.549L168.579,72.549C168.412,72.549 168.215,72.538 168.052,72.528C168.046,72.528 168.04,72.528 168.034,72.527C168.018,72.526 168.002,72.526 167.987,72.525C166.966,72.468 165.943,72.421 164.922,72.35C162.081,72.154 159.243,71.833 156.4,71.623C156.391,71.623 156.382,71.624 156.373,71.624C156.195,71.635 156.017,71.639 155.839,71.639L155.835,71.639C155.559,71.639 155.284,71.628 155.013,71.608C154.628,71.58 154.243,71.536 153.861,71.47C153.828,71.468 153.796,71.467 153.763,71.465C153.746,71.465 153.73,71.464 153.713,71.463C152.922,71.43 152.129,71.411 151.336,71.411L151.333,71.411C150.876,71.411 150.419,71.417 149.962,71.431C148.655,71.471 147.351,71.558 146.048,71.666C146.034,71.666 146.02,71.665 146.007,71.665C145.977,71.663 145.948,71.662 145.918,71.661C145.203,71.632 144.487,71.622 143.775,71.622L143.772,71.622C143.202,71.622 142.634,71.628 142.07,71.638C141.965,71.639 141.86,71.641 141.755,71.643C141.368,71.65 140.982,71.657 140.596,71.666L140.595,71.666C140.333,71.672 140.071,71.678 139.809,71.684C137.827,71.732 135.847,71.788 133.865,71.788L133.862,71.788C133.387,71.788 132.912,71.785 132.437,71.778C129.186,71.728 125.934,71.602 122.681,71.593C122.556,71.592 122.431,71.592 122.306,71.592L122.304,71.592C119.216,71.592 116.129,71.709 113.06,72.075C113.033,72.078 113.005,72.081 112.978,72.085C112.957,72.087 112.937,72.09 112.916,72.092C109.619,72.493 106.35,73.117 103.058,73.56C99.772,74.003 96.47,74.345 93.157,74.469C93.143,74.469 93.128,74.47 93.114,74.47C93.094,74.471 93.075,74.472 93.055,74.472C92.343,74.498 91.632,74.509 90.922,74.509L90.92,74.509C88.474,74.509 86.038,74.37 83.594,74.165C83.535,74.16 83.476,74.155 83.417,74.15C83.295,74.139 83.173,74.129 83.051,74.118C83.034,74.117 83.017,74.116 83,74.114C80.077,73.864 77.15,73.606 74.215,73.606L74.212,73.606C74.128,73.606 74.044,73.606 73.96,73.607L73.917,73.607C70.731,73.626 67.584,74.059 64.441,74.542C58.219,75.499 52.028,76.762 45.734,77.136C45.718,77.137 45.702,77.138 45.686,77.139C44.658,77.199 43.632,77.226 42.608,77.226Z" style="fill:rgb(243,199,139);fill-rule:nonzero;"></path>
        </g>
    </g>
</svg>